SplineFontDB: 3.0
FontName: Untitled1
FullName: Untitled1
FamilyName: Untitled1
Weight: Medium
Copyright: Created by Rémi G.,,, with FontForge 2.0 (http://fontforge.sf.net)
UComments: "2010-10-7: Created." 
Version: 001.000
ItalicAngle: 0
UnderlinePosition: -100
UnderlineWidth: 50
Ascent: 800
Descent: 200
LayerCount: 2
Layer: 0 0 "Back"  1
Layer: 1 0 "Fore"  0
NeedsXUIDChange: 1
XUID: [1021 425 1453733837 1883037]
OS2Version: 0
OS2_WeightWidthSlopeOnly: 0
OS2_UseTypoMetrics: 1
CreationTime: 1286468519
ModificationTime: 1286482031
OS2TypoAscent: 0
OS2TypoAOffset: 1
OS2TypoDescent: 0
OS2TypoDOffset: 1
OS2TypoLinegap: 0
OS2WinAscent: 0
OS2WinAOffset: 1
OS2WinDescent: 0
OS2WinDOffset: 1
HheadAscent: 0
HheadAOffset: 1
HheadDescent: 0
HheadDOffset: 1
OS2Vendor: 'PfEd'
DEI: 91125
Encoding: TeX-Base-Encoding
UnicodeInterp: none
NameList: Adobe Glyph List
DisplaySize: -36
AntiAlias: 1
FitToEm: 1
WinInfo: 0 32 8
BeginChars: 256 168

StartChar: dotaccent
Encoding: 1 729 0
Width: 500
Flags: W
HStem: 0 31<62 438> 754 31<62 438>
VStem: 31 31<31 754> 438 31<31 754>
LayerCount: 2
Fore
SplineSet
31 0 m 1
 31 785 l 1
 469 785 l 1
 469 0 l 1
 31 0 l 1
438 31 m 1
 438 754 l 1
 62 754 l 1
 62 31 l 1
 438 31 l 1
EndSplineSet
Validated: 1
EndChar

StartChar: fraction
Encoding: 4 8260 1
Width: 699
Flags: W
HStem: 0 115<1 62 96 157 192 254 285 346 384 445 476 538 573 634> 156 114<2 62 96 157 192 254 285 346 384 445 476 538 573 634> 309 115<1 62 96 157 192 254 285 346 384 445 476 538 573 634> 466 114<1 62 96 157 192 254 285 346 384 445 476 538 573 634> 623 113<1 62 96 157 192 254 285 346 384 445 476 538 573 634>
VStem: 1 61<0 115 156 270 309 424 466 580 623 736> 96 61<0 115 156 270 309 424 466 580 623 736> 192 62<0 115 156 270 309 424 466 580 623 736> 285 61<0 115 156 270 309 424 466 580 623 736> 384 61<0 115 156 270 309 424 466 580 623 736> 476 62<0 115 156 270 309 424 466 580 623 736> 573 61<0 115 156 270 309 424 466 580 623 736>
LayerCount: 2
Fore
SplineSet
634 623 m 1
 573 623 l 1
 573 736 l 1
 634 736 l 1
 634 623 l 1
538 623 m 1
 476 623 l 1
 476 736 l 1
 538 736 l 1
 538 623 l 1
634 466 m 1
 573 466 l 1
 573 580 l 1
 634 580 l 1
 634 466 l 1
445 623 m 1
 384 623 l 1
 384 736 l 1
 445 736 l 1
 445 623 l 1
538 466 m 1
 476 466 l 1
 476 580 l 1
 538 580 l 1
 538 466 l 1
346 623 m 1
 285 623 l 1
 285 736 l 1
 346 736 l 1
 346 623 l 1
634 309 m 1
 573 309 l 1
 573 424 l 1
 634 424 l 1
 634 309 l 1
445 466 m 1
 384 466 l 1
 384 580 l 1
 445 580 l 1
 445 466 l 1
254 623 m 1
 192 623 l 1
 192 736 l 1
 254 736 l 1
 254 623 l 1
538 309 m 1
 476 309 l 1
 476 424 l 1
 538 424 l 1
 538 309 l 1
346 466 m 1
 285 466 l 1
 285 580 l 1
 346 580 l 1
 346 466 l 1
634 156 m 1
 573 156 l 1
 573 270 l 1
 634 270 l 1
 634 156 l 1
157 623 m 1
 96 623 l 1
 96 736 l 1
 157 736 l 1
 157 623 l 1
445 309 m 1
 384 309 l 1
 384 424 l 1
 445 424 l 1
 445 309 l 1
254 466 m 1
 192 466 l 1
 192 580 l 1
 254 580 l 1
 254 466 l 1
538 156 m 1
 476 156 l 1
 476 270 l 1
 538 270 l 1
 538 156 l 1
62 623 m 1
 1 623 l 1
 1 736 l 1
 62 736 l 1
 62 623 l 1
346 309 m 1
 285 309 l 1
 285 424 l 1
 346 424 l 1
 346 309 l 1
634 0 m 1
 573 0 l 1
 573 115 l 1
 634 115 l 1
 634 0 l 1
157 466 m 1
 96 466 l 1
 96 580 l 1
 157 580 l 1
 157 466 l 1
445 156 m 1
 384 156 l 1
 384 270 l 1
 445 270 l 1
 445 156 l 1
254 309 m 1
 192 309 l 1
 192 424 l 1
 254 424 l 1
 254 309 l 1
538 0 m 1
 476 0 l 1
 476 115 l 1
 538 115 l 1
 538 0 l 1
62 466 m 1
 1 466 l 1
 1 580 l 1
 62 580 l 1
 62 466 l 1
346 156 m 1
 285 156 l 1
 285 270 l 1
 346 270 l 1
 346 156 l 1
157 309 m 1
 96 309 l 1
 96 424 l 1
 157 424 l 1
 157 309 l 1
445 0 m 1
 384 0 l 1
 384 115 l 1
 445 115 l 1
 445 0 l 1
254 156 m 1
 192 156 l 1
 192 270 l 1
 254 270 l 1
 254 156 l 1
62 309 m 1
 1 309 l 1
 1 424 l 1
 62 424 l 1
 62 309 l 1
346 0 m 1
 285 0 l 1
 285 115 l 1
 346 115 l 1
 346 0 l 1
157 156 m 1
 96 156 l 1
 96 270 l 1
 157 270 l 1
 157 156 l 1
254 0 m 1
 192 0 l 1
 192 115 l 1
 254 115 l 1
 254 0 l 1
62 156 m 1
 2 156 l 1
 2 270 l 1
 62 270 l 1
 62 156 l 1
157 0 m 1
 96 0 l 1
 96 115 l 1
 157 115 l 1
 157 0 l 1
62 0 m 1
 1 0 l 1
 1 115 l 1
 62 115 l 1
 62 0 l 1
EndSplineSet
Validated: 1
EndChar

StartChar: hungarumlaut
Encoding: 5 733 2
Width: 729
Flags: W
HStem: 0 744<1 643>
VStem: 1 642<0 744>
LayerCount: 2
Fore
SplineSet
643 0 m 1
 1 0 l 1
 1 744 l 1
 643 744 l 1
 643 0 l 1
EndSplineSet
Validated: 1
EndChar

StartChar: Lslash
Encoding: 6 321 3
Width: 700
Flags: W
HStem: 0 69<89 599> 550 69<89 599>
VStem: 26 63<69 550> 599 69<69 550>
LayerCount: 2
Fore
SplineSet
668 0 m 1
 26 0 l 1
 26 619 l 1
 668 619 l 1
 668 0 l 1
599 69 m 1
 599 550 l 1
 89 550 l 1
 89 69 l 1
 599 69 l 1
EndSplineSet
Validated: 1
EndChar

StartChar: lslash
Encoding: 7 322 4
Width: 1606
Flags: W
HStem: 0 39<58 269 325 537 641 854 958 1171 1276 1488> 204 47<58 269 1276 1488> 413 47<958 1171> 512 47<641 854> 672 49<325 537>
VStem: 3 55<39 204> 269 56<39 204 251 672> 537 104<39 512> 537 49<559 672> 854 104<39 413> 854 49<460 512> 1171 49<39 413> 1220 56<39 204> 1488 50<39 204>
LayerCount: 2
Fore
SplineSet
1171 39 m 1xfe5c
 1171 413 l 1
 958 413 l 1
 958 39 l 1
 1171 39 l 1xfe5c
1220 0 m 1
 903 0 l 1
 903 460 l 1xfe3c
 1220 460 l 1
 1220 0 l 1
854 39 m 1xff5c
 854 512 l 1xfe3c
 641 512 l 1
 641 39 l 1
 854 39 l 1xff5c
537 38 m 1xfe9c
 537 672 l 1
 325 672 l 1
 325 38 l 1
 537 38 l 1xfe9c
1488 39 m 1
 1488 204 l 1
 1276 204 l 1
 1276 39 l 1
 1488 39 l 1
1538 0 m 1
 1220 0 l 1
 1220 251 l 1
 1538 251 l 1
 1538 0 l 1
269 204 m 1
 58 204 l 1
 58 39 l 1
 269 39 l 1
 269 204 l 1
269 251 m 1
 269 721 l 1
 586 721 l 1
 586 559 l 1
 903 559 l 1
 903 0 l 1xfebc
 586 0 l 1
 269 -1 l 1
 3 0 l 1
 3 251 l 1
 269 251 l 1
EndSplineSet
Validated: 5
EndChar

StartChar: ogonek
Encoding: 8 731 5
Width: 600
Flags: W
HStem: 0 212<70 137 458 529> 0 76<137 458>
VStem: 70 67<76 209> 458 71<76 212>
LayerCount: 2
Fore
SplineSet
458 76 m 1x70
 458 212 l 1
 529 212 l 1
 529 0 l 1
 70 0 l 1xb0
 70 209 l 1
 138 210 l 1
 137 76 l 1
 458 76 l 1x70
EndSplineSet
Validated: 1
EndChar

StartChar: ring
Encoding: 9 730 6
Width: 1587
Flags: W
HStem: 253 62<313 647>
LayerCount: 2
Fore
SplineSet
1 777 m 1
 1 1 l 1
 1495 1 l 1
 1495 61 l 1
 64 61 l 1
 64 777 l 1
 1 777 l 1
95 74 m 1
 296 315 l 1
 647 315 l 1
 884 684 l 1
 1171 344 l 1
 1294 413 l 1
 1294 308 l 1
 1166 225 l 1
 884 553 l 1
 691 253 l 1
 313 253 l 1
 173 74 l 1
 95 74 l 1
EndSplineSet
Validated: 9
EndChar

StartChar: breve
Encoding: 11 728 7
Width: 1593
Flags: W
HStem: 0 60<1 1495> 167 54<285 645> 354 173<23 76 856 909> 412 51<78 240 691 854> 665 47<285 645>
VStem: 23 55<354 412 463 528> 239 46<221 412 463 665> 239 1<412 463> 645 46<221 412 463 665> 854 55<354 412 463 528>
LayerCount: 2
Fore
SplineSet
240 412 m 1xddc0
 76 412 l 1xddc0
 76 354 l 1
 23 354 l 1xedc0
 23 528 l 1
 78 528 l 1
 78 463 l 1
 240 463 l 1
 240 412 l 1xddc0
909 354 m 1xecc0
 856 354 l 1xecc0
 856 412 l 1
 691 412 l 1
 691 463 l 1
 854 463 l 1xdcc0
 854 528 l 1
 909 528 l 1
 909 354 l 1xecc0
691 167 m 1
 239 167 l 1
 239 712 l 1xcdc0
 691 712 l 1
 691 167 l 1
1495 0 m 1
 1 0 l 1
 1 58 l 1
 1495 60 l 1
 1495 0 l 1
645 221 m 1
 645 665 l 1
 285 665 l 1
 285 221 l 1xcec0
 645 221 l 1
1024 527 m 1xecc0
 1024 354 l 1
 1201 354 l 1
 1201 527 l 1
 1024 527 l 1xecc0
1302 527 m 1
 1302 354 l 1
 1479 354 l 1
 1479 527 l 1
 1302 527 l 1
EndSplineSet
Validated: 5
EndChar

StartChar: minus
Encoding: 12 8722 8
Width: 1571
Flags: W
HStem: 0 60<1 1495> 167 54<285 668 716 945> 354 174<23 76 1256 1309> 412 51<78 240 991 1254> 665 47<285 668 716 945>
VStem: 23 55<354 412 463 528> 239 46<221 412 463 665> 239 1<412 463> 668 48<221 665> 945 46<221 665> 1254 55<354 412 463 528>
LayerCount: 2
Fore
SplineSet
1495 0 m 1xcce0
 1 0 l 1
 1 58 l 1
 1495 60 l 1
 1495 0 l 1xcce0
991 167 m 1
 239 167 l 1
 239 712 l 1xcde0
 991 712 l 1
 991 167 l 1
668 665 m 1
 285 665 l 1
 285 221 l 1xcee0
 668 221 l 1
 668 665 l 1
716 221 m 1
 945 221 l 1
 945 665 l 1
 716 665 l 1
 716 221 l 1
1309 354 m 1xece0
 1256 354 l 1xece0
 1256 412 l 1
 991 412 l 1
 991 463 l 1
 1254 463 l 1xdce0
 1254 528 l 1
 1309 528 l 1
 1309 354 l 1xece0
240 412 m 1xdde0
 76 412 l 1xdde0
 76 354 l 1
 23 354 l 1
 23 528 l 1
 78 528 l 1xede0
 78 463 l 1
 240 463 l 1
 240 412 l 1xdde0
EndSplineSet
Validated: 5
EndChar

StartChar: Zcaron
Encoding: 14 381 9
Width: 2780
Flags: W
HStem: -156 66<68 230 2530 2692> 131 58<1480.3 1547.07> 132 64<288.479 359.085 621.948 749.593 1293.53 1348.71 1816.06 1887.85 2308.11 2436.62> 294 55<600 702 2288 2389> 315 52<1490.43 1558> 436 56<810 858 940 1006 1158 1203 1285 1357 1432.5 1500.38> 440 59<619.439 687.233 1427.1 1545.87 2307.48 2374.9> 584 65<950.267 1022.93> 720 63<68 230 2530 2692>
VStem: 8 222<-156 -90 720 783> 8 60<-90 720> 187 82<213.657 412.775> 372 81<205.51 422.621 460 643> 381 75<137 179> 519 80<217.431 294 349 416.496> 702 76<349 415.761> 858 82<137 436 492 561.826> 1203 82<207.349 436 492 555> 1391 79<198.293 295.005> 1560 81<198.539 315 367 420.951> 1571 74<137 173> 1723 81<205.195 421.661 454 643> 1723 71<137 180> 1906 82<212.318 414.858> 2055 82<137 643> 2207 80<217.431 294 349 418.414> 2389 76<349 415.761> 2530 222<-156 -90 720 783> 2692 60<-90 720>
LayerCount: 2
Fore
SplineSet
230 -156 m 1x81c3e1e0
 8 -156 l 1
 8 783 l 1
 230 783 l 1
 230 720 l 1x81c3e1e0
 68 720 l 1
 68 -90 l 1x81a3e1e0
 230 -90 l 1
 230 -156 l 1x81c3e1e0
2752 -156 m 1x8183e1f0
 2530 -156 l 1
 2530 -90 l 1x8183e1f0
 2692 -90 l 1
 2692 720 l 1x8183e1e8
 2530 720 l 1
 2530 783 l 1
 2752 783 l 1
 2752 -156 l 1x8183e1f0
453 643 m 1xc39be1e0
 453 233 l 2xc39be1e0
 453 218.333 453.167 202 453.5 184 c 0
 453.833 166 454.667 150.333 456 137 c 1
 385 137 l 1
 381 179 l 1xc387e1e0
 379 179 l 1
 371.667 165.667 361.333 154.333 348 145 c 0
 334.667 135.667 319 131 301 131 c 256
 283 131 266.833 135.5 252.5 144.5 c 0
 238.167 153.5 226.167 166 216.5 182 c 0
 206.833 198 199.5 217.167 194.5 239.5 c 0
 189.5 261.833 187 286.333 187 313 c 0
 187 344.333 190.333 371.667 197 395 c 0
 203.667 418.333 212.5 437.667 223.5 453 c 0
 234.5 468.333 247 479.833 261 487.5 c 0
 275 495.167 289.667 499 305 499 c 0
 335.667 499 357.333 486 370 460 c 1
 372 460 l 1
 372 643 l 1
 453 643 l 1xc39be1e0
372 357 m 2
 372 362 372 362 372 368 c 0
 372 372 371.333 375.667 370 379 c 1
 368.667 393 364 405.333 356 416 c 0
 348 426.667 338 432 326 432 c 0
 315.333 432 306.333 428.667 299 422 c 0
 291.667 415.333 285.833 406.5 281.5 395.5 c 0
 277.167 384.5 274 371.833 272 357.5 c 0
 270 343.167 269 328 269 312 c 0
 269 276 273.833 247.5 283.5 226.5 c 0
 293.167 205.5 306.667 195 324 195 c 0
 331.333 195 339.333 198 348 204 c 0
 356.667 210 363.667 221.667 369 239 c 0
 371 245.667 372 253.333 372 262 c 2
 372 357 l 2
599 294 m 1xb383e1e0
 599 274 601.333 257.5 606 244.5 c 0
 610.667 231.5 616.833 221 624.5 213 c 0
 632.167 205 641 199.5 651 196.5 c 0
 661 193.5 671.667 192 683 192 c 0
 696.333 192 708.667 193.333 720 196 c 0
 731.333 198.667 741.333 201.667 750 205 c 1
 761 149 l 1
 749.667 143.667 735.667 139.5 719 136.5 c 0
 702.333 133.5 685.333 132 668 132 c 0
 619.333 132 582.333 147.667 557 179 c 0
 531.667 210.333 519 253.667 519 309 c 0
 519 338.333 522.667 364.833 530 388.5 c 0
 537.333 412.167 547.167 432.167 559.5 448.5 c 0
 571.833 464.833 586.667 477.333 604 486 c 0
 621.333 494.667 640 499 660 499 c 0
 679.333 499 696.333 494.833 711 486.5 c 0
 725.667 478.167 738 466.833 748 452.5 c 0
 758 438.167 765.5 421 770.5 401 c 0
 775.5 381 778 359.333 778 336 c 0
 778 325.333 777.667 316.833 777 310.5 c 0
 776.333 304.167 776 298.667 776 294 c 1
 599 294 l 1xb383e1e0
702 349 m 1
 702 378.333 697.5 400.833 688.5 416.5 c 0
 679.5 432.167 667.667 440 653 440 c 0
 644.333 440 636.833 437.167 630.5 431.5 c 0
 624.167 425.833 618.833 418.667 614.5 410 c 0
 610.167 401.333 606.833 391.667 604.5 381 c 0
 602.167 370.333 600.667 359.667 600 349 c 1
 702 349 l 1
758 638 m 1
 679 537 l 1
 626 537 l 1
 681 638 l 1
 758 638 l 1
858 137 m 1
 858 436 l 1
 810 436 l 1
 810 492 l 1
 858 492 l 1
 858 510 l 2
 858 530 860.5 549.167 865.5 567.5 c 0
 870.5 585.833 880 602.333 894 617 c 0
 905.333 628.333 918.167 636.5 932.5 641.5 c 0
 946.833 646.5 961.667 649 977 649 c 0
 989 649 999.5 648.167 1008.5 646.5 c 0
 1017.5 644.833 1025 643 1031 641 c 1
 1021 579 l 1
 1012.33 582.333 1001.67 584 989 584 c 0
 969.667 584 956.667 576.833 950 562.5 c 0
 943.333 548.167 940 531.333 940 512 c 2
 940 492 l 1
 1006 492 l 1
 1006 436 l 1
 940 436 l 1x8583e1e0
 940 137 l 1
 858 137 l 1
1285 582 m 1
 1285 492 l 1
 1357 492 l 1
 1357 436 l 1
 1285 436 l 1
 1285 251 l 2
 1285 229 1288.83 214.333 1296.5 207 c 0
 1304.17 199.667 1313.33 196 1324 196 c 0
 1331.33 196 1339.67 197 1349 199 c 1
 1350 138 l 1
 1338 134 1320.33 132 1297 132 c 0xa583e1e0
 1283.67 132 1271.17 133.833 1259.5 137.5 c 0
 1247.83 141.167 1238 146.667 1230 154 c 0
 1220.67 163.333 1213.83 175.167 1209.5 189.5 c 0
 1205.17 203.833 1203 224 1203 250 c 2
 1203 436 l 1
 1158 436 l 1
 1158 492 l 1
 1203 492 l 1
 1203 555 l 1
 1285 582 l 1
1641 218 m 2xcb83f1e0
 1641 204 1641.33 189.833 1642 175.5 c 0
 1642.67 161.167 1643.67 148.333 1645 137 c 1
 1571 137 l 1xcb83e9e0
 1567 173 l 1
 1565 173 l 1
 1545.67 145 1519.33 131 1486 131 c 0
 1458.67 131 1436 140.667 1418 160 c 0
 1400 179.333 1391 204.667 1391 236 c 0
 1391 258.667 1395.67 278.333 1405 295 c 0
 1414.33 311.667 1426.83 325.167 1442.5 335.5 c 0
 1458.17 345.833 1476 353.667 1496 359 c 0
 1516 364.333 1536.67 367 1558 367 c 1
 1558 376 l 2
 1558 394.667 1553.67 409.833 1545 421.5 c 0
 1536.33 433.167 1521.67 439 1501 439 c 0
 1487.67 439 1475.5 437.333 1464.5 434 c 0
 1453.5 430.667 1442.67 426 1432 420 c 1
 1416 474 l 1
 1425.33 479.333 1439 484.833 1457 490.5 c 0
 1475 496.167 1495.67 499 1519 499 c 0
 1543 499 1562.83 495.333 1578.5 488 c 0
 1594.17 480.667 1606.67 470.667 1616 458 c 0
 1625.33 445.333 1631.83 430.5 1635.5 413.5 c 0
 1639.17 396.5 1641 378.667 1641 360 c 2
 1641 218 l 2xcb83f1e0
1560 315 m 1xc983f1e0
 1552 315 1542.67 314.167 1532 312.5 c 0
 1521.33 310.833 1511.5 307.5 1502.5 302.5 c 0
 1493.5 297.5 1485.83 290.333 1479.5 281 c 0
 1473.17 271.667 1470 259.333 1470 244 c 0
 1470 224 1474.33 209.833 1483 201.5 c 0
 1491.67 193.167 1500.67 189 1510 189 c 0
 1520.67 189 1530.5 192.5 1539.5 199.5 c 0
 1548.5 206.5 1554.67 217 1558 231 c 0
 1559.33 236.333 1560 242.333 1560 249 c 2
 1560 315 l 1xc983f1e0
1723 643 m 1xc383e5e0
 1804 643 l 1
 1804 454 l 1xc383e5e0
 1805 454 l 1
 1823 484 1849.33 499 1884 499 c 0
 1916.67 499 1942.17 482.667 1960.5 450 c 0
 1978.83 417.333 1988 374.333 1988 321 c 0
 1988 257.667 1976.33 210.167 1953 178.5 c 0
 1929.67 146.833 1902 131 1870 131 c 0
 1852.67 131 1838.17 135.167 1826.5 143.5 c 0
 1814.83 151.833 1804.67 164 1796 180 c 1
 1794 180 l 1xc383e3e0
 1789 137 l 1
 1719 137 l 1
 1719.67 150.333 1720.5 166 1721.5 184 c 0
 1722.5 202 1723 218.333 1723 233 c 2
 1723 643 l 1xc383e5e0
1804 263 m 2
 1804 253.667 1805 246 1807 240 c 0
 1812.33 222 1819.17 210 1827.5 204 c 0
 1835.83 198 1843.33 195 1850 195 c 0
 1870.67 195 1885.17 206.333 1893.5 229 c 0
 1901.83 251.667 1906 281 1906 317 c 0
 1906 350.333 1901.67 377.833 1893 399.5 c 0
 1884.33 421.167 1870 432 1850 432 c 0
 1839.33 432 1830.17 427.333 1822.5 418 c 0
 1814.83 408.667 1809.67 398 1807 386 c 0
 1805 378.667 1804 371 1804 363 c 2
 1804 263 l 2
2055 643 m 1
 2137 643 l 1
 2137 137 l 1
 2055 137 l 1
 2055 643 l 1
2287 294 m 1xb383e1e0
 2287.67 254 2296.17 227 2312.5 213 c 0
 2328.83 199 2348.33 192 2371 192 c 0
 2384.33 192 2396.67 193.333 2408 196 c 0
 2419.33 198.667 2429 201.667 2437 205 c 1
 2449 149 l 1
 2437.67 143.667 2423.5 139.5 2406.5 136.5 c 0
 2389.5 133.5 2372.33 132 2355 132 c 0
 2307 132 2270.33 147.667 2245 179 c 0
 2219.67 210.333 2207 253.667 2207 309 c 0
 2207 338.333 2210.5 364.833 2217.5 388.5 c 0
 2224.5 412.167 2234.33 432.167 2247 448.5 c 0
 2259.67 464.833 2274.5 477.333 2291.5 486 c 0
 2308.5 494.667 2327 499 2347 499 c 0
 2366.33 499 2383.33 494.833 2398 486.5 c 0
 2412.67 478.167 2425 466.833 2435 452.5 c 0
 2445 438.167 2452.5 421 2457.5 401 c 0
 2462.5 381 2465 359.333 2465 336 c 0
 2465 325.333 2464.67 316.833 2464 310.5 c 0
 2463.33 304.167 2463 298.667 2463 294 c 1
 2287 294 l 1xb383e1e0
2389 349 m 1
 2389 378.333 2384.67 400.833 2376 416.5 c 0
 2367.33 432.167 2355.67 440 2341 440 c 0
 2332.33 440 2324.83 437.167 2318.5 431.5 c 0
 2312.17 425.833 2306.83 418.667 2302.5 410 c 0
 2298.17 401.333 2294.83 391.667 2292.5 381 c 0
 2290.17 370.333 2288.67 359.667 2288 349 c 1
 2389 349 l 1
EndSplineSet
Validated: 524289
EndChar

StartChar: zcaron
Encoding: 15 382 10
Width: 2225
Flags: W
HStem: -156 66<68 230 1980 2142> 129 61<542.141 608.853 1566.56 1633.14> 136 355<776 844 992 1060 1164 1219.55 1337 1389.55 1658 1690.97> 314 52<1577.02 1644> 419 78<880.305 944> 434 57<217 266 347 413 540.311 609.628 1086.79 1155.17 1257.78 1326.81 1513.35 1633.58 1780 1825 1907 1979> 583 65<357.854 429.926> 720 63<68 230 1980 2142>
VStem: 8 222<-156 -90 720 783> 8 60<-90 720> 266 81<136 434 491 560.826> 441 82<207.923 419.391> 627 82<205.715 419.292> 776 83<136 397.682> 776 73<437 491> 988 72<449 491> 992 81<136 421.498> 1164 82<136 424.162> 1337 81<136 425.156> 1478 79<197.581 293.755> 1646 81<197.084 314 366 419.951> 1658 74<136 172> 1825 82<206.349 434 491 553> 1980 222<-151 -85 725 788> 2142 60<-85 725>
LayerCount: 2
Fore
SplineSet
230 -156 m 1x83b872
 8 -156 l 1
 8 783 l 1
 230 783 l 1
 230 720 l 1x83b872
 68 720 l 1
 68 -90 l 1x837872
 230 -90 l 1
 230 -156 l 1x83b872
2202 -151 m 1x833873
 1980 -151 l 1
 1980 -85 l 1x833873
 2142 -85 l 1
 2142 725 l 1x83387280
 1980 725 l 1
 1980 788 l 1
 2202 788 l 1
 2202 -151 l 1x833873
266 136 m 1xa33872
 266 434 l 1
 217 434 l 1
 217 491 l 1
 266 491 l 1
 266 509 l 2
 266 529 268.333 548.167 273 566.5 c 0
 277.667 584.833 287.333 601 302 615 c 1
 312.667 626.333 325.333 634.667 340 640 c 0
 354.667 645.333 369.333 648 384 648 c 0
 396 648 406.5 647.167 415.5 645.5 c 0
 424.5 643.833 432 642 438 640 c 1
 428 578 l 1
 419.333 581.333 409 583 397 583 c 0
 377.667 583 364.5 575.833 357.5 561.5 c 0
 350.5 547.167 347 530.333 347 511 c 2
 347 491 l 1
 413 491 l 1
 413 434 l 1
 347 434 l 1x873872
 347 136 l 1
 266 136 l 1xa33872
709 315 m 0
 709 279 704.667 249 696 225 c 0
 687.333 201 676.333 182 663 168 c 0
 649.667 154 635 144 619 138 c 0
 603 132 588 129 574 129 c 0
 534 129 501.833 144.333 477.5 175 c 0
 453.167 205.667 441 251.333 441 312 c 0
 441 344 444.833 371.667 452.5 395 c 0
 460.167 418.333 470.333 437.5 483 452.5 c 0
 495.667 467.5 510.333 478.667 527 486 c 0
 543.667 493.333 560.667 497 578 497 c 0xcb3872
 617.333 497 649 481.333 673 450 c 0
 697 418.667 709 373.667 709 315 c 0
523 314 m 0xd33872
 523 298.667 523.833 283.667 525.5 269 c 0
 527.167 254.333 530 241.167 534 229.5 c 0
 538 217.833 543.5 208.333 550.5 201 c 0
 557.5 193.667 566.667 190 578 190 c 0
 588 190 596.167 194 602.5 202 c 0
 608.833 210 613.833 220 617.5 232 c 0
 621.167 244 623.667 257.333 625 272 c 0
 626.333 286.667 627 300.667 627 314 c 0
 627 326.667 626.333 340.167 625 354.5 c 0
 623.667 368.833 621.167 382 617.5 394 c 0
 613.833 406 608.667 416 602 424 c 0
 595.333 432 586.667 436 576 436 c 0
 564.667 436 555.5 432 548.5 424 c 0
 541.5 416 536.167 406 532.5 394 c 0
 528.833 382 526.333 368.833 525 354.5 c 0
 523.667 340.167 523 326.667 523 314 c 0xd33872
776 391 m 2xa33c72
 776 408.333 775.667 425.5 775 442.5 c 0
 774.333 459.5 773.667 475.667 773 491 c 1x873c72
 844 491 l 1xa33c72
 849 437 l 1
 851 437 l 1
 858.333 455.667 869 470.333 883 481 c 0
 897 491.667 911.667 497 927 497 c 0
 935.667 497 941.333 496.667 944 496 c 1
 944 417 l 1
 941.333 418.333 935.667 419 927 419 c 0x8b3a72
 913 419 899.5 413.667 886.5 403 c 0
 873.5 392.333 865 377.333 861 358 c 0
 859.667 353.333 859 348.167 859 342.5 c 0
 859 334 859 334 859 323 c 2
 859 136 l 1
 776 136 l 1
 776 391 l 2xa33c72
992 391 m 2xa338f2
 992 411.667 991.667 429.667 991 445 c 0
 990.333 460.333 989.333 475.667 988 491 c 1x873972
 1060 491 l 1xa33972
 1065 449 l 1
 1066 449 l 1
 1075.33 462.333 1087.17 473.667 1101.5 483 c 0
 1115.83 492.333 1133 497 1153 497 c 0
 1193 497 1219.67 480 1233 446 c 1
 1234 446 l 1
 1239.33 453.333 1245.17 460.5 1251.5 467.5 c 0
 1257.83 474.5 1264.67 480 1272 484 c 0
 1286.67 492.667 1304 497 1324 497 c 0
 1354 497 1377.17 486.167 1393.5 464.5 c 0
 1409.83 442.833 1418 410 1418 366 c 2x9b3972
 1418 136 l 1
 1337 136 l 1
 1337 351 l 2
 1337 361.667 1336.5 372 1335.5 382 c 0
 1334.5 392 1332.33 400.667 1329 408 c 0
 1325.67 415.333 1321.17 421.333 1315.5 426 c 0
 1309.83 430.667 1302.33 433 1293 433 c 0
 1271.67 433 1256.67 418.667 1248 390 c 0
 1247.33 386.667 1246.83 382.5 1246.5 377.5 c 0
 1246.17 372.5 1246 367.333 1246 362 c 2
 1246 136 l 1
 1164 136 l 1
 1164 362 l 2
 1164 370 1163.5 378.333 1162.5 387 c 0
 1161.5 395.667 1159.5 403.333 1156.5 410 c 0
 1153.5 416.667 1149.33 422.167 1144 426.5 c 0
 1138.67 430.833 1131.33 433 1122 433 c 256
 1112.67 433 1103.67 429.167 1095 421.5 c 0
 1086.33 413.833 1080 403 1076 389 c 0
 1075.33 385 1074.67 380.667 1074 376 c 0
 1073.33 371.333 1073 366.333 1073 361 c 2
 1073 136 l 1
 992 136 l 1
 992 391 l 2xa338f2
1727 217 m 2xdb387a
 1727 203 1727.33 188.833 1728 174.5 c 0
 1728.67 160.167 1730 147.333 1732 136 c 1
 1658 136 l 1xa33876
 1653 172 l 1
 1652 172 l 1
 1632.67 143.333 1606 129 1572 129 c 0
 1545.33 129 1523 138.833 1505 158.5 c 0
 1487 178.167 1478 203.667 1478 235 c 0
 1478 257.667 1482.67 277.167 1492 293.5 c 0
 1501.33 309.833 1513.83 323.333 1529.5 334 c 0
 1545.17 344.667 1562.83 352.667 1582.5 358 c 0
 1602.17 363.333 1622.67 366 1644 366 c 1
 1644 375 l 2
 1644 393.667 1639.83 408.833 1631.5 420.5 c 0
 1623.17 432.167 1608.67 438 1588 438 c 0
 1562.67 438 1539.33 431.333 1518 418 c 1
 1503 472 l 1
 1512.33 477.333 1526.17 482.833 1544.5 488.5 c 0
 1562.83 494.167 1583.33 497 1606 497 c 0
 1630 497 1649.83 493.333 1665.5 486 c 0
 1681.17 478.667 1693.5 468.667 1702.5 456 c 0
 1711.5 443.333 1717.83 428.667 1721.5 412 c 0
 1725.17 395.333 1727 377.667 1727 359 c 2
 1727 217 l 2xdb387a
1646 314 m 1x93387a
 1638 314 1628.83 313.167 1618.5 311.5 c 0
 1608.17 309.833 1598.5 306.5 1589.5 301.5 c 0
 1580.5 296.5 1572.83 289.333 1566.5 280 c 0
 1560.17 270.667 1557 258.333 1557 243 c 0
 1557 222.333 1561.5 208 1570.5 200 c 0
 1579.5 192 1588.67 188 1598 188 c 256
 1607.33 188 1616.5 191.333 1625.5 198 c 0
 1634.5 204.667 1640.67 215 1644 229 c 1
 1645.33 231.667 1646 234.5 1646 237.5 c 0
 1646 242 1646 242 1646 247 c 2
 1646 314 l 1x93387a
1907 580 m 1
 1907 491 l 1
 1979 491 l 1
 1979 434 l 1
 1907 434 l 1x873872
 1907 250 l 2
 1907 228 1910.83 213.333 1918.5 206 c 0
 1926.17 198.667 1935.33 195 1946 195 c 0
 1954.67 195 1963 196 1971 198 c 1
 1973 137 l 1
 1959.67 133 1941.67 131 1919 131 c 0
 1905.67 131 1893.17 132.667 1881.5 136 c 0xa33872
 1869.83 139.333 1860.33 145 1853 153 c 0
 1843.67 162.333 1836.67 174.167 1832 188.5 c 0
 1827.33 202.833 1825 223 1825 249 c 2
 1825 434 l 1
 1780 434 l 1
 1780 491 l 1
 1825 491 l 1x873872
 1825 553 l 1
 1907 580 l 1
EndSplineSet
Validated: 524289
EndChar

StartChar: caron
Encoding: 16 711 11
Width: 2180
Flags: W
HStem: -156 66<68 230 1884 2046> 129 59<537.059 603.349> 131 64<320.085 412.596 1042.78 1136.55 1282.71 1351.91 1683.29 1796.6> 134.5 68.5<371.687 411.933 1094.69 1135.93> 314 52<547.432 615> 438 59<327.255 414.416 484.347 602.914 1049.35 1138.21 1761.85 1853.41> 720 63<68 230 1884 2046>
VStem: 8 222<-156 -90 720 783> 8 60<-90 720> 209 82<226.132 399.49> 448 79<197.581 293.755> 617 81<197.084 314 366 419.951> 628 74<136 172> 779 82<136 641> 932 81<227.143 399.49> 1191 82<219.269 491> 1363 82<202.573 491> 1372 73.5<136 173> 1527 82<136 641> 1679 75<363.999 429.203> 1799 77<195.393 271.93> 1884 222<-156 -90 720 783> 2046 60<-90 720>
LayerCount: 2
Fore
SplineSet
2106 -156 m 1x8e273c
 1884 -156 l 1
 1884 -90 l 1x8e273c
 2046 -90 l 1
 2046 720 l 1x8e273a
 1884 720 l 1
 1884 783 l 1
 2106 783 l 1
 2106 -156 l 1x8e273c
230 -156 m 1x8f2738
 8 -156 l 1
 8 783 l 1
 230 783 l 1
 230 720 l 1x8f2738
 68 720 l 1
 68 -90 l 1x8ea738
 230 -90 l 1
 230 -156 l 1x8f2738
419 143 m 1
 413.667 139.667 405.333 136.833 394 134.5 c 0x9e6738
 382.667 132.167 370 131 356 131 c 0
 311.333 131 275.667 146.333 249 177 c 0
 222.333 207.667 209 252.333 209 311 c 0
 209 337.667 212.667 362.333 220 385 c 0
 227.333 407.667 238 427.333 252 444 c 0
 266 460.667 283 473.667 303 483 c 0
 323 492.333 345.333 497 370 497 c 0
 381.333 497 391.833 495.833 401.5 493.5 c 0
 411.167 491.167 418.667 489 424 487 c 1
 411 425 l 1
 406.333 426.333 400.833 428 394.5 430 c 0
 388.167 432 380.333 433 371 433 c 0
 357.667 433 346.167 429.833 336.5 423.5 c 0
 326.833 417.167 318.5 408.5 311.5 397.5 c 0
 304.5 386.5 299.333 373.667 296 359 c 0
 292.667 344.333 291 328.667 291 312 c 0
 291 275.333 298 246.667 312 226 c 0
 326 205.333 345.667 195 371 195 c 0xae6738
 385.667 195 399 197.667 411 203 c 1x9e6738
 419 143 l 1
698 217 m 2xce3738
 698 203 698.167 188.833 698.5 174.5 c 0
 698.833 160.167 700 147.333 702 136 c 1
 628 136 l 1xce2f38
 624 172 l 1
 622 172 l 1
 602.667 143.333 576.333 129 543 129 c 0
 516.333 129 493.833 138.833 475.5 158.5 c 0
 457.167 178.167 448 203.667 448 235 c 0
 448 257.667 452.667 277.167 462 293.5 c 0
 471.333 309.833 483.833 323.333 499.5 334 c 0
 515.167 344.667 533 352.667 553 358 c 0
 573 363.333 593.667 366 615 366 c 1
 615 375 l 2
 615 393.667 610.667 408.833 602 420.5 c 0
 593.333 432.167 578.667 438 558 438 c 0
 532.667 438 509.667 431.333 489 418 c 1
 473 472 l 1
 482.333 477.333 496.167 482.833 514.5 488.5 c 0
 532.833 494.167 553.333 497 576 497 c 0
 600 497 620 493.333 636 486 c 0
 652 478.667 664.5 468.667 673.5 456 c 0
 682.5 443.333 688.833 428.667 692.5 412 c 0
 696.167 395.333 698 377.667 698 359 c 2
 698 217 l 2xce3738
617 314 m 1xce3738
 609 314 599.667 313.167 589 311.5 c 0
 578.333 309.833 568.5 306.5 559.5 301.5 c 0
 550.5 296.5 542.833 289.333 536.5 280 c 0
 530.167 270.667 527 258.333 527 243 c 0
 527 222.333 531.5 208 540.5 200 c 0
 549.5 192 558.667 188 568 188 c 0
 578 188 587.5 191.333 596.5 198 c 0
 605.5 204.667 611.667 215 615 229 c 0
 616.333 235.667 617 241.667 617 247 c 2
 617 314 l 1xce3738
779 641 m 1
 861 641 l 1
 861 136 l 1
 779 136 l 1
 779 641 l 1
1143 143 m 1
 1137 139.667 1128.5 136.833 1117.5 134.5 c 0x9e2738
 1106.5 132.167 1094 131 1080 131 c 0
 1035.33 131 999.5 146.333 972.5 177 c 0
 945.5 207.667 932 252.333 932 311 c 0
 932 337.667 935.667 362.333 943 385 c 0
 950.333 407.667 961 427.333 975 444 c 0
 989 460.667 1006 473.667 1026 483 c 0
 1046 492.333 1068.33 497 1093 497 c 0
 1104.33 497 1114.83 495.833 1124.5 493.5 c 0
 1134.17 491.167 1141.67 489 1147 487 c 1
 1135 425 l 1
 1128 427 1128 427 1118 430 c 0
 1111.33 432 1103.33 433 1094 433 c 0
 1080.67 433 1069 429.833 1059 423.5 c 0
 1049 417.167 1040.5 408.5 1033.5 397.5 c 0
 1026.5 386.5 1021.33 373.667 1018 359 c 0
 1014.67 344.333 1013 328.667 1013 312 c 0
 1013 275.333 1020.33 246.667 1035 226 c 0
 1049.67 205.333 1069.33 195 1094 195 c 0xae2738
 1108.67 195 1122.33 197.667 1135 203 c 1x9e2738
 1143 143 l 1
1445 238 m 2xce27b8
 1445 218.667 1445.17 200.5 1445.5 183.5 c 0
 1445.83 166.5 1446.33 150.667 1447 136 c 1
 1377 136 l 1
 1372 173 l 1xce2778
 1370 173 l 1
 1362.67 161.667 1352 151.5 1338 142.5 c 0
 1324 133.5 1306.67 129 1286 129 c 0
 1252 129 1227.67 141.167 1213 165.5 c 0
 1198.33 189.833 1191 225.333 1191 272 c 2
 1191 491 l 1
 1273 491 l 1
 1273 281 l 2
 1273 255.667 1276 234.833 1282 218.5 c 0
 1288 202.167 1299.33 194 1316 194 c 0
 1328.67 194 1338.33 198.167 1345 206.5 c 0
 1351.67 214.833 1355.67 222.333 1357 229 c 1
 1361 237 1363 247.667 1363 261 c 2
 1363 491 l 1
 1445 491 l 1
 1445 238 l 2xce27b8
1527 641 m 1
 1609 641 l 1
 1609 136 l 1
 1527 136 l 1
 1527 641 l 1
1688 209 m 1
 1695.33 204.333 1704.83 200.167 1716.5 196.5 c 0
 1728.17 192.833 1740 191 1752 191 c 0
 1783.33 191 1799 204.333 1799 231 c 0
 1799 242.333 1795.83 252.167 1789.5 260.5 c 0
 1783.17 268.833 1771.33 278.333 1754 289 c 1
 1726 304.333 1706.5 320.5 1695.5 337.5 c 0
 1684.5 354.5 1679 372 1679 390 c 0
 1679 421.333 1689.5 447 1710.5 467 c 0
 1731.5 487 1759 497 1793 497 c 0
 1808.33 497 1821.83 495.333 1833.5 492 c 0
 1845.17 488.667 1855.67 484.333 1865 479 c 1
 1848 422 l 1
 1840.67 426.667 1832.67 430.333 1824 433 c 0
 1815.33 435.667 1806 437 1796 437 c 0
 1782 437 1771.5 433.333 1764.5 426 c 0
 1757.5 418.667 1754 410 1754 400 c 0
 1754 390.667 1757 382.5 1763 375.5 c 0
 1769 368.5 1781 359.333 1799 348 c 1
 1850.33 318.667 1876 283 1876 241 c 0
 1876 204.333 1864.17 176.833 1840.5 158.5 c 0
 1816.83 140.167 1787 131 1751 131 c 0xae2738
 1737 131 1722.33 132.833 1707 136.5 c 0
 1691.67 140.167 1680 145 1672 151 c 1
 1688 209 l 1
EndSplineSet
Validated: 524289
EndChar

StartChar: dotlessi
Encoding: 17 305 12
Width: 1836
Flags: W
HStem: -156 66<68 230 1593 1755> 130 59<530.563 596.354 874.054 932.994 1364.78 1491.37> 132 64<343.348 399 1421.62 1487.56> 293 56<1337 1439> 315 52<540.026 607> 436 56<209 253 335 408> 439 60<477.923 595.628 1355.91 1425.96> 720 63<68 230 1595 1755>
VStem: 8 222<-156 -90 720 783> 8 60<-90 720> 253 82<207.349 436 492 554> 442 78<198.581 295.005> 610 80<198.69 315 367 420.951> 621 74<137 173> 772 82<204.639 421.677 454 643> 772 72<137 180> 956 82<212.577 414.729> 1104 83<137 643> 1257 80<217.431 293 349 418.414> 1439 76<349 415.761> 1593 222<-156 -90 720 783> 1755 60<-90 720>
LayerCount: 2
Fore
SplineSet
230 -156 m 1x81b0f0
 8 -156 l 1
 8 783 l 1
 230 783 l 1
 230 720 l 1x81b0f0
 68 720 l 1
 68 -90 l 1x8170f0
 230 -90 l 1
 230 -156 l 1x81b0f0
1815 -156 m 1x8130f8
 1593 -156 l 1
 1593 -90 l 1x8130f8
 1755 -90 l 1
 1755 720 l 1x8130f4
 1595 720 l 1
 1593 783 l 1
 1815 783 l 1
 1815 -156 l 1x8130f8
335 581 m 1
 335 492 l 1
 408 492 l 1
 408 436 l 1
 335 436 l 1
 335 251 l 2
 335 229 338.833 214.333 346.5 207 c 0
 354.167 199.667 363 196 373 196 c 0
 381 196 389.667 197 399 199 c 1
 400 138 l 1
 388 134 370 132 346 132 c 0
 332.667 132 320.5 133.833 309.5 137.5 c 0
 298.5 141.167 289 146.667 281 154 c 0
 271.667 163.333 264.667 175.167 260 189.5 c 0
 255.333 203.833 253 224 253 250 c 2
 253 436 l 1
 209 436 l 1
 209 492 l 1
 253 492 l 1xa530f0
 253 554 l 1
 335 581 l 1
690 218 m 2xcb38f0
 690 204 690.333 189.833 691 175.5 c 0
 691.667 161.167 693 148.333 695 137 c 1
 621 137 l 1xcb34f0
 616 173 l 1
 615 173 l 1
 595.667 144.333 569.333 130 536 130 c 0
 508.667 130 486.167 139.833 468.5 159.5 c 0
 450.833 179.167 442 204.667 442 236 c 0
 442 258.667 446.667 278.333 456 295 c 0
 465.333 311.667 477.667 325.167 493 335.5 c 0
 508.333 345.833 525.833 353.667 545.5 359 c 0
 565.167 364.333 585.667 367 607 367 c 1
 607 376 l 2
 607 394.667 602.833 409.833 594.5 421.5 c 0
 586.167 433.167 572 439 552 439 c 0
 526 439 502.333 432.333 481 419 c 1
 466 473 l 1
 475.333 478.333 489.167 484 507.5 490 c 0
 525.833 496 546.333 499 569 499 c 0
 593 499 612.833 495.333 628.5 488 c 0
 644.167 480.667 656.5 470.667 665.5 458 c 0
 674.5 445.333 680.833 430.5 684.5 413.5 c 0
 688.167 396.5 690 378.667 690 360 c 2
 690 218 l 2xcb38f0
610 315 m 1xc938f0
 602 315 592.833 314.167 582.5 312.5 c 0
 572.167 310.833 562.333 307.5 553 302.5 c 0
 543.667 297.5 535.833 290.333 529.5 281 c 0
 523.167 271.667 520 259.333 520 244 c 0
 520 223.333 524.5 209 533.5 201 c 0
 542.5 193 551.667 189 561 189 c 256
 570.333 189 579.5 192.333 588.5 199 c 0
 597.5 205.667 603.667 216 607 230 c 1
 609 234.667 610 240.667 610 248 c 2
 610 315 l 1xc938f0
772 643 m 1xc332f0
 854 643 l 1
 854 454 l 1xc332f0
 855 454 l 1
 873.667 484 899.667 499 933 499 c 0
 967 499 993 482.667 1011 450 c 0
 1029 417.333 1038 374.333 1038 321 c 0
 1038 257.667 1026.33 210 1003 178 c 0
 979.667 146 952 130 920 130 c 0
 902.667 130 888.333 134.333 877 143 c 0
 865.667 151.667 855.333 164 846 180 c 1
 844 180 l 1xc331f0
 839 137 l 1
 769 137 l 1
 769 150.333 769.5 165.833 770.5 183.5 c 0
 771.5 201.167 772 217.667 772 233 c 2
 772 643 l 1xc332f0
854 263 m 2
 854 253.667 855 246 857 240 c 0
 862.333 221.333 869.167 209.167 877.5 203.5 c 0
 885.833 197.833 893.667 195 901 195 c 0
 920.333 195 934.333 206.333 943 229 c 0
 951.667 251.667 956 281 956 317 c 0
 956 349.667 951.667 377 943 399 c 0
 934.333 421 920.333 432 901 432 c 0
 889.667 432 880 427.167 872 417.5 c 0
 864 407.833 859 397.333 857 386 c 1
 855 378.667 854 371 854 363 c 2
 854 263 l 2
1104 643 m 1
 1187 643 l 1
 1187 137 l 1
 1104 137 l 1
 1104 643 l 1
1337 293 m 1xb330f0
 1337 273 1339.33 256.5 1344 243.5 c 0
 1348.67 230.5 1354.83 220.167 1362.5 212.5 c 0
 1370.17 204.833 1379 199.5 1389 196.5 c 0
 1399 193.5 1409.67 192 1421 192 c 0
 1434.33 192 1446.5 193.333 1457.5 196 c 0
 1468.5 198.667 1478.67 201.667 1488 205 c 1
 1499 148 l 1
 1487.67 143.333 1473.5 139.5 1456.5 136.5 c 0
 1439.5 133.5 1422.33 132 1405 132 c 0
 1357 132 1320.33 147.667 1295 179 c 0
 1269.67 210.333 1257 253.667 1257 309 c 0
 1257 338.333 1260.5 364.833 1267.5 388.5 c 0
 1274.5 412.167 1284.33 432.167 1297 448.5 c 0
 1309.67 464.833 1324.5 477.333 1341.5 486 c 0
 1358.5 494.667 1377 499 1397 499 c 0
 1416.33 499 1433.33 494.833 1448 486.5 c 0
 1462.67 478.167 1475 466.833 1485 452.5 c 0
 1495 438.167 1502.5 421 1507.5 401 c 0
 1512.5 381 1515 359.333 1515 336 c 0
 1515 325.333 1514.83 316.833 1514.5 310.5 c 0
 1514.17 304.167 1513.67 298.333 1513 293 c 1
 1337 293 l 1xb330f0
1439 349 m 1
 1439.67 378.333 1435.5 400.833 1426.5 416.5 c 0
 1417.5 432.167 1405.33 440 1390 440 c 0
 1381.33 440 1373.83 437.167 1367.5 431.5 c 0
 1361.17 425.833 1355.83 418.667 1351.5 410 c 0
 1347.17 401.333 1343.83 391.667 1341.5 381 c 0
 1339.17 370.333 1337.67 359.667 1337 349 c 1
 1439 349 l 1
EndSplineSet
Validated: 524321
EndChar

StartChar: notequal
Encoding: 22 8800 13
Width: 2176
Flags: W
HStem: -156 66<68 230 1934 2096> 133.5 56<750.283 851.747 1060.11 1182.62 1550.85 1671.62> 279 53<1043 1138 1532 1626> 397 73<1364.54 1426 1853.55 1915> 416 54<818.107 903.353 1059.79 1124.66 1548.79 1614.19> 510 84<295.376 352.623> 720 63<68 230 1934 2096>
VStem: 8 222<-156 -90 720 783> 8 60<-90 720> 286 77<133 465 521.861 582.139> 438 78<133 400.077> 438 68<426 465> 603 76<133 404.637> 740 71<344.163 407.023> 853 71<187.404 261.642> 967 75<206.267 279 332 399.621> 1138 71<332 393.308> 1269 76<133 377.639> 1269 68<414 465> 1456 76<206.267 279 332 399.621> 1626 71<332 393.308> 1759 76<133 378.664> 1759 68<414 465> 1934 222<-156 -90 720 783> 2096 60<-90 720>
LayerCount: 2
Fore
SplineSet
2156 -156 m 1xe64f99
 1934 -156 l 1
 1934 -90 l 1xe64f99
 2096 -90 l 1
 2096 720 l 1xe64f9880
 1934 720 l 1
 1934 783 l 1
 2156 783 l 1
 2156 -156 l 1xe64f99
230 -156 m 1xe74f98
 8 -156 l 1
 8 783 l 1
 230 783 l 1
 230 720 l 1xe74f98
 68 720 l 1
 68 -90 l 1xe6cf98
 230 -90 l 1
 230 -156 l 1xe74f98
365 551 m 0
 365 539 361 529.167 353 521.5 c 0
 345 513.833 334.667 510 322 510 c 0
 311.333 510 302.167 513.833 294.5 521.5 c 0
 286.833 529.167 283 539 283 551 c 0
 283 564.333 287 574.833 295 582.5 c 0
 303 590.167 312.667 594 324 594 c 256
 335.333 594 345 590.167 353 582.5 c 0
 361 574.833 365 564.333 365 551 c 0
286 133 m 1
 286 465 l 1
 363 465 l 1
 363 133 l 1
 286 133 l 1
438 371 m 2xee6f98
 438 390.333 437.833 407.167 437.5 421.5 c 0
 437.167 435.833 436.667 450.333 436 465 c 1
 502 465 l 1
 506 426 l 1xee5f98
 508 426 l 1
 516 439.333 527 450 541 458 c 0
 555 466 571 470 589 470 c 0
 619 470 641.5 459.833 656.5 439.5 c 0
 671.5 419.167 679 389.333 679 350 c 2
 679 133 l 1
 603 133 l 1
 603 343 l 2
 603 351.667 602.5 360 601.5 368 c 0
 600.5 376 598.5 383 595.5 389 c 0
 592.5 395 588.333 399.833 583 403.5 c 0
 577.667 407.167 570.667 409 562 409 c 0
 552.667 409 544 405.5 536 398.5 c 0
 528 391.5 522.333 381.333 519 368 c 0
 517 360.667 516 350.667 516 338 c 2
 516 133 l 1
 438 133 l 1
 438 371 l 2xee6f98
750 202 m 1
 756 197.333 764.5 193.167 775.5 189.5 c 0
 786.5 185.833 797.667 184 809 184 c 0
 838.333 184 853 196.667 853 222 c 0
 853 232 850 241 844 249 c 0
 838 257 827 266 811 276 c 0
 785.667 290.667 767.5 305.833 756.5 321.5 c 0
 745.5 337.167 740 353.667 740 371 c 0
 740 400.333 750 424.167 770 442.5 c 0
 790 460.833 815.667 470 847 470 c 0
 861.667 470 874.333 468.5 885 465.5 c 0
 895.667 462.5 905.333 458.667 914 454 c 1
 898 400 l 1
 891.333 404 884 407.333 876 410 c 0
 868 412.667 859.333 414 850 414 c 0
 836.667 414 826.833 410.5 820.5 403.5 c 0
 814.167 396.5 811 388.333 811 379 c 0
 811 370.333 813.667 362.667 819 356 c 0
 824.333 349.333 835.667 341.333 853 332 c 0
 900.333 304.667 924 271 924 231 c 0
 924 197 913.167 171.333 891.5 154 c 0
 869.833 136.667 842 128 808 128 c 0
 794.667 128 781.167 129.833 767.5 133.5 c 0
 753.833 137.167 742.667 142 734 148 c 1
 750 202 l 1
1042 279 m 1
 1042 260.333 1044.17 245 1048.5 233 c 0
 1052.83 221 1058.67 211.333 1066 204 c 0
 1073.33 196.667 1081.67 191.5 1091 188.5 c 0
 1100.33 185.5 1110 184 1120 184 c 0
 1133.33 184 1145.17 185.333 1155.5 188 c 0
 1165.83 190.667 1175 193.667 1183 197 c 1
 1193 144 l 1
 1182.33 138.667 1169.17 134.667 1153.5 132 c 0
 1137.83 129.333 1122 128 1106 128 c 0
 1061.33 128 1027 142.667 1003 172 c 0
 979 201.333 967 242 967 294 c 0
 967 349.333 979.5 392.5 1004.5 423.5 c 0
 1029.5 454.5 1060.67 470 1098 470 c 256
 1135.33 470 1163.17 455.833 1181.5 427.5 c 0
 1199.83 399.167 1209 362.667 1209 318 c 0
 1209 308.667 1208.83 301 1208.5 295 c 0
 1208.17 289 1207.67 283.667 1207 279 c 1
 1042 279 l 1
1138 332 m 1
 1138 358.667 1133.83 379.333 1125.5 394 c 0
 1117.17 408.667 1106.33 416 1093 416 c 0
 1085 416 1077.83 413.333 1071.5 408 c 0
 1065.17 402.667 1060 396 1056 388 c 0
 1052 380 1049 371 1047 361 c 0
 1045 351 1043.67 341.333 1043 332 c 1
 1138 332 l 1
1190 602 m 1
 1116 507 l 1
 1067 507 l 1
 1119 602 l 1
 1190 602 l 1
1269 371 m 2xf64fd8
 1269 387 1268.67 403 1268 419 c 0
 1267 443 1267 443 1266 465 c 1
 1333 465 l 1
 1337 414 l 1xf64fb8
 1339 414 l 1
 1346.33 431.333 1356.33 445 1369 455 c 0
 1381.67 465 1395.33 470 1410 470 c 0
 1418 470 1423.33 469.667 1426 469 c 1
 1426 396 l 1
 1423.33 396.667 1418 397 1410 397 c 0
 1396.67 397 1384 392.167 1372 382.5 c 0
 1360 372.833 1352 358.667 1348 340 c 0
 1346 332 1345 321.333 1345 308 c 2
 1345 133 l 1
 1269 133 l 1
 1269 371 l 2xf64fd8
1532 279 m 1
 1532 260.333 1534.17 245 1538.5 233 c 0
 1542.83 221 1548.5 211.333 1555.5 204 c 0
 1562.5 196.667 1570.67 191.5 1580 188.5 c 0
 1589.33 185.5 1599 184 1609 184 c 0
 1621.67 184 1633.33 185.333 1644 188 c 0
 1654.67 190.667 1664 193.667 1672 197 c 1
 1683 144 l 1
 1671.67 138.667 1658.17 134.667 1642.5 132 c 0
 1626.83 129.333 1611 128 1595 128 c 0
 1550.33 128 1516 142.667 1492 172 c 0
 1468 201.333 1456 242 1456 294 c 0
 1456 349.333 1468.5 392.5 1493.5 423.5 c 0
 1518.5 454.5 1549.67 470 1587 470 c 0xee4f98
 1623.67 470 1651.17 455.833 1669.5 427.5 c 0
 1687.83 399.167 1697 362.667 1697 318 c 0
 1697 308.667 1696.83 301 1696.5 295 c 0
 1696.17 289 1696 283.667 1696 279 c 1
 1532 279 l 1
1626 332 m 1
 1626.67 358.667 1622.83 379.333 1614.5 394 c 0
 1606.17 408.667 1595.33 416 1582 416 c 0
 1574 416 1566.83 413.333 1560.5 408 c 0
 1554.17 402.667 1549 396 1545 388 c 0
 1541 380 1538 371 1536 361 c 0
 1534 351 1532.67 341.333 1532 332 c 1
 1626 332 l 1
1759 371 m 2xf64f9c
 1759 387 1758.5 403 1757.5 419 c 0
 1756.5 435 1755.67 450.333 1755 465 c 1
 1822 465 l 1
 1827 414 l 1xf64f9a
 1829 414 l 1
 1835 431.333 1844.5 445 1857.5 455 c 0
 1870.5 465 1884.33 470 1899 470 c 0
 1907 470 1912.33 469.667 1915 469 c 1
 1915 396 l 1
 1912.33 396.667 1907 397 1899 397 c 0
 1885.67 397 1873 392.167 1861 382.5 c 0
 1849 372.833 1841.33 358.667 1838 340 c 0
 1836 332 1835 321.333 1835 308 c 2
 1835 133 l 1
 1759 133 l 1
 1759 371 l 2xf64f9c
EndSplineSet
Validated: 524321
EndChar

StartChar: infinity
Encoding: 23 8734 14
Width: 2240
Flags: W
HStem: -156 66<68 230 1993 2155> 137.5 59<651.518 778.624> 294 56<630 732> 421 78<976.975 1040 1192.48 1256> 441 58<649.483 717.139> 720 63<68 230 1993 2155>
VStem: 8 222<-156 -90 720 783> 8 60<-90 720> 549 80<220.312 294 350 418.563> 732 75<350 416.245> 872 83<137 399.116> 872 73<439 494> 1088 82<137 398.543> 1088 73<439 494> 1993 222<-156 -90 720 783> 2155 60<-90 720>
LayerCount: 2
Fore
SplineSet
230 -156 m 1xe6c0
 8 -156 l 1
 8 783 l 1
 230 783 l 1
 230 720 l 1xe6c0
 68 720 l 1
 68 -90 l 1xe5c0
 230 -90 l 1
 230 -156 l 1xe6c0
2215 -156 m 1xe4c2
 1993 -156 l 1
 1993 -90 l 1xe4c2
 2155 -90 l 1
 2155 720 l 1xe4c1
 1993 720 l 1
 1993 783 l 1
 2215 783 l 1
 2215 -156 l 1xe4c2
326 494 m 1
 363 316 l 2
 365.667 302 368.167 287 370.5 271 c 0
 372.833 255 375.667 238.667 379 222 c 1
 381 222 l 1
 383 238.667 385.333 254.667 388 270 c 0
 392 293 392 293 396 316 c 2
 432 494 l 1
 514 494 l 1
 415 137 l 1
 340 137 l 1
 239 494 l 1
 326 494 l 1
629 294 m 1
 629 274 631.5 257.5 636.5 244.5 c 0
 641.5 231.5 647.833 221.167 655.5 213.5 c 0
 663.167 205.833 672 200.333 682 197 c 0
 692 193.667 702.333 192 713 192 c 0
 726.333 192 738.667 193.5 750 196.5 c 0
 761.333 199.5 771 202.667 779 206 c 1
 791 150 l 1
 779.667 144.667 765.5 140.5 748.5 137.5 c 0
 731.5 134.5 714.333 133 697 133 c 0
 649 133 612.333 148.667 587 180 c 0
 561.667 211.333 549 254.667 549 310 c 0
 549 339.333 552.5 365.667 559.5 389 c 0
 566.5 412.333 576.333 432.167 589 448.5 c 0
 601.667 464.833 616.5 477.333 633.5 486 c 0
 650.5 494.667 669 499 689 499 c 0xecc0
 729 499 758.667 483.833 778 453.5 c 0
 797.333 423.167 807 384 807 336 c 0
 807 326 806.667 317.833 806 311.5 c 0
 805.333 305.167 805 299.333 805 294 c 1
 629 294 l 1
732 350 m 1
 732 378.667 727.5 401 718.5 417 c 0
 709.5 433 697.667 441 683 441 c 0
 674.333 441 666.833 438.167 660.5 432.5 c 0
 654.167 426.833 648.833 419.667 644.5 411 c 0
 640.167 402.333 636.833 392.667 634.5 382 c 0
 632.167 371.333 630.667 360.667 630 350 c 1
 732 350 l 1
872 393 m 2xf4e0
 872 409.667 871.667 426.667 871 444 c 0
 870 470 870 470 869 494 c 1
 940 494 l 1
 945 439 l 1xf4d0
 948 439 l 1
 955.333 457.667 965.833 472.333 979.5 483 c 0
 993.167 493.667 1007.67 499 1023 499 c 0
 1027 499 1030.33 498.833 1033 498.5 c 0
 1035.67 498.167 1038 498 1040 498 c 1
 1040 420 l 1
 1037.33 420.667 1031.67 421 1023 421 c 0
 1009 421 995.667 415.667 983 405 c 0
 970.333 394.333 962 379.333 958 360 c 0
 956.667 355.333 955.833 350.167 955.5 344.5 c 0
 955.167 338.833 955 332.667 955 326 c 2
 955 137 l 1
 872 137 l 1
 872 393 l 2xf4e0
1088 393 m 2xf4c8
 1088 409.667 1087.5 426.667 1086.5 444 c 0
 1085.5 461.333 1084.67 478 1084 494 c 1
 1156 494 l 1
 1161 439 l 1xf4c4
 1163 439 l 1
 1170.33 457.667 1181 472.333 1195 483 c 0
 1209 493.667 1223.67 499 1239 499 c 0
 1242.33 499 1245.5 498.833 1248.5 498.5 c 0
 1251.5 498.167 1254 498 1256 498 c 1
 1256 420 l 1
 1253.33 420.667 1247.67 421 1239 421 c 0
 1224.33 421 1210.83 415.667 1198.5 405 c 0
 1186.17 394.333 1177.67 379.333 1173 360 c 0
 1171 350.667 1170 339.333 1170 326 c 2
 1170 137 l 1
 1088 137 l 1
 1088 393 l 2xf4c8
1632 515 m 1
 1631 515 l 1
 1627.67 501.667 1624 488 1620 474 c 0
 1614 453 1614 453 1608 433 c 2
 1572 324 l 1
 1692 324 l 1
 1655 433 l 2
 1650.33 446.333 1646.17 460 1642.5 474 c 0
 1637 495 1637 495 1632 515 c 1
1383 637 m 1
 1383 80 l 1
 1887 80 l 1
 1887 637 l 1
 1383 637 l 1
1749 137 m 1
 1706 263 l 1
 1559 263 l 1
 1519 137 l 1
 1432 137 l 1
 1580 579 l 1
 1688 579 l 1
 1840 137 l 1
 1749 137 l 1
EndSplineSet
Validated: 524297
EndChar

StartChar: lessequal
Encoding: 24 8804 15
Width: 2697
Flags: W
HStem: -156 66<68 230 2454 2616> -3 60<1706.73 1832.85> 133 57<1119.81 1184.89> 139 58<268.424 394.593 578.073 669.656 2091.95 2217.62> 140 61<629.748 668.436 1770.04 1832.23> 292 54<249 348 2072 2171> 313 50<1128.77 1195> 415 76<2409 2472> 434 57<266.818 333.965 586.502 671.392 1068.58 1183.75 2089.82 2157.2> 720 63<68 230 2454 2616>
VStem: 8 222<-156 -90 720 783> 8 60<-90 720> 171 77<217.788 292 346 415.187> 348 74<346 410.277> 471 79<227.162 395.975> 724 80<139 416.684 448 631> 895 80<139 420.468> 1034 76<198.961 293.737> 1197 79<198.789 313 363 415.951> 1209 71<139 175> 1352 70<445 485> 1355 80<139 416.826> 1526 80<139 405.343> 1672 79<223.7 408.458> 1851 79<80.2096 178 209.185 418.673> 1859 72<448 485> 1994 78<215.976 292 346 415.187> 2171 74<346 410.277> 2308 80<139 393.773> 2308 71<433 485> 2454 222<-156 -90 720 783> 2616 60<-90 720>
LayerCount: 2
Fore
SplineSet
2676 -156 m 1xc047c332
 2454 -156 l 1
 2454 -90 l 1xc047c332
 2616 -90 l 1
 2616 720 l 1xc047c331
 2454 720 l 1
 2454 783 l 1
 2676 783 l 1
 2676 -156 l 1xc047c332
230 -156 m 1xc067c330
 8 -156 l 1
 8 783 l 1
 230 783 l 1
 230 720 l 1xc067c330
 68 720 l 1
 68 -90 l 1xc057c330
 230 -90 l 1
 230 -156 l 1xc067c330
248 292 m 1xd4cfc330
 248 272.667 250.333 256.5 255 243.5 c 0
 259.667 230.5 265.667 220.333 273 213 c 0
 280.333 205.667 289 200.5 299 197.5 c 0
 309 194.5 319.333 193 330 193 c 0
 343.333 193 355.333 194.333 366 197 c 0
 376.667 199.667 386.333 202.667 395 206 c 1
 406 151 l 1
 394.667 145.667 380.833 141.667 364.5 139 c 0
 348.167 136.333 331.667 135 315 135 c 0
 267.667 135 231.833 150.167 207.5 180.5 c 0
 183.167 210.833 171 253 171 307 c 0
 171 364.333 183.833 409.333 209.5 442 c 0
 235.167 474.667 267.667 491 307 491 c 0
 345 491 373.667 476.167 393 446.5 c 0
 412.333 416.833 422 379 422 333 c 0
 422 323 421.667 314.833 421 308.5 c 0
 420.333 302.167 419.667 296.667 419 292 c 1
 248 292 l 1xd4cfc330
348 346 m 1
 348 374 343.667 395.667 335 411 c 0
 326.333 426.333 315 434 301 434 c 0
 292.333 434 284.833 431.333 278.5 426 c 0
 272.167 420.667 266.833 413.833 262.5 405.5 c 0
 258.167 397.167 255 387.667 253 377 c 0
 251 366.333 249.667 356 249 346 c 1
 348 346 l 1
402 627 m 1
 325 529 l 1
 274 529 l 1
 328 627 l 1
 402 627 l 1
676 146 m 1
 670.667 142.667 662.5 140 651.5 138 c 0
 640.5 136 628.333 135 615 135 c 0
 571 135 536 149.833 510 179.5 c 0
 484 209.167 471 252.667 471 310 c 0
 471 336 474.667 360 482 382 c 0
 489.333 404 499.667 423 513 439 c 0
 526.333 455 542.667 467.5 562 476.5 c 0
 581.333 485.5 603 490 627 490 c 0
 638.333 490 648.667 489 658 487 c 0
 667.333 485 674.667 482.667 680 480 c 1
 668 420 l 1
 662 422 662 422 652.5 425 c 0
 646.167 427 638.333 428 629 428 c 0
 615.667 428 604.167 424.833 594.5 418.5 c 0
 584.833 412.167 576.667 403.667 570 393 c 0
 563.333 382.333 558.333 370 555 356 c 0
 551.667 342 550 327 550 311 c 0
 550 275 557 247 571 227 c 0
 585 207 604.333 197 629 197 c 0
 645 197 658 199.667 668 205 c 1
 676 146 l 1
724 631 m 1
 804 631 l 1
 804 448 l 1
 806 448 l 1
 813.333 460.667 823.667 470.667 837 478 c 1
 851 486.667 867 491 885 491 c 0
 914.333 491 936.667 479.833 952 457.5 c 0
 967.333 435.167 975 402 975 358 c 2
 975 139 l 1
 895 139 l 1
 895 355 l 2
 895 364.333 894.333 373.333 893 382 c 0
 891.667 390.667 889.5 398.333 886.5 405 c 0
 883.5 411.667 879.333 417 874 421 c 0
 868.667 425 861.667 427 853 427 c 0
 842.333 427 833 423.667 825 417 c 0
 817 410.333 811 399.333 807 384 c 0
 806.333 380.667 805.667 376.667 805 372 c 0
 804.333 367.333 804 362.667 804 358 c 2
 804 139 l 1
 724 139 l 1
 724 631 l 1
1276 218 m 2xe2c7e330
 1276 204.667 1276.17 191 1276.5 177 c 0
 1276.83 163 1278 150.333 1280 139 c 1
 1209 139 l 1xd2c7d330
 1204 175 l 1
 1203 175 l 1
 1183 147 1157.33 133 1126 133 c 0
 1099.33 133 1077.33 142.5 1060 161.5 c 0
 1042.67 180.5 1034 205.333 1034 236 c 0
 1034 258 1038.5 277 1047.5 293 c 0
 1056.5 309 1068.5 322.167 1083.5 332.5 c 0
 1098.5 342.833 1115.67 350.5 1135 355.5 c 0
 1154.33 360.5 1174.33 363 1195 363 c 1
 1195 372 l 2
 1195 390 1190.83 404.833 1182.5 416.5 c 0
 1174.17 428.167 1160.33 434 1141 434 c 0
 1127.67 434 1115.5 432.167 1104.5 428.5 c 0
 1093.5 424.833 1083 420 1073 414 c 1
 1058 466 l 1
 1067.33 471.333 1080.83 476.833 1098.5 482.5 c 0
 1116.17 488.167 1136 491 1158 491 c 0
 1181.33 491 1200.67 487.5 1216 480.5 c 0
 1231.33 473.5 1243.5 463.833 1252.5 451.5 c 0
 1261.5 439.167 1267.67 424.833 1271 408.5 c 0
 1274.33 392.167 1276 374.667 1276 356 c 2
 1276 218 l 2xe2c7e330
1197 313 m 1xe247e330
 1189 313 1180 312.167 1170 310.5 c 0
 1160 308.833 1150.5 305.5 1141.5 300.5 c 0
 1132.5 295.5 1125 288.5 1119 279.5 c 0
 1113 270.5 1110 258.667 1110 244 c 0
 1110 224 1114.33 210 1123 202 c 0
 1131.67 194 1140.33 190 1149 190 c 0
 1159 190 1168.33 193.333 1177 200 c 0
 1185.67 206.667 1191.67 216.667 1195 230 c 0
 1196.33 233.333 1197 239.333 1197 248 c 2
 1197 313 l 1xe247e330
1355 388 m 2xd0c7c730
 1355 407.333 1354.83 424.5 1354.5 439.5 c 0
 1354.17 454.5 1353.33 469.667 1352 485 c 1
 1422 485 l 1xd0c7cb30
 1426 445 l 1
 1427 445 l 1
 1435.67 459 1447.33 470.167 1462 478.5 c 0
 1476.67 486.833 1493.67 491 1513 491 c 0
 1543.67 491 1566.83 480.167 1582.5 458.5 c 0
 1598.17 436.833 1606 406 1606 366 c 2
 1606 139 l 1
 1526 139 l 1
 1526 359 l 2
 1526 376.333 1523.33 392 1518 406 c 0
 1512.67 420 1501.33 427 1484 427 c 0
 1474 427 1464.83 423.5 1456.5 416.5 c 0
 1448.17 409.5 1442.33 398.667 1439 384 c 0
 1437.67 380.667 1436.67 376.333 1436 371 c 0
 1435.33 365.667 1435 359.667 1435 353 c 2
 1435 139 l 1
 1355 139 l 1
 1355 388 l 2xd0c7c730
1930 180 m 2xc8c7c3b0
 1930 159.333 1929.17 141.5 1927.5 126.5 c 0
 1925.83 111.5 1923.33 98.1667 1920 86.5 c 0
 1916.67 74.8333 1912.5 64.8333 1907.5 56.5 c 0
 1902.5 48.1667 1896.67 40.6667 1890 34 c 0
 1864 9.33333 1827.67 -3 1781 -3 c 0
 1748.33 -3 1719.67 2.33333 1695 13 c 1
 1711 72 l 1
 1719.67 68 1729.67 64.5 1741 61.5 c 0
 1752.33 58.5 1765.33 57 1780 57 c 0
 1804 57 1821.83 64.5 1833.5 79.5 c 0
 1845.17 94.5 1851 118.333 1851 151 c 2
 1851 178 l 1xc8c7c3b0
 1849 178 l 1
 1843 166 1834 156.667 1822 150 c 0
 1810 143.333 1796.67 140 1782 140 c 0
 1763.33 140 1747.17 144.667 1733.5 154 c 0
 1719.83 163.333 1708.5 175.667 1699.5 191 c 0
 1690.5 206.333 1683.67 224.333 1679 245 c 0
 1674.33 265.667 1672 287.333 1672 310 c 0
 1672 340 1675.33 366.333 1682 389 c 0
 1688.67 411.667 1697.5 430.5 1708.5 445.5 c 0
 1719.5 460.5 1732 471.833 1746 479.5 c 0
 1760 487.167 1774.67 491 1790 491 c 0
 1806.67 491 1820.5 486.833 1831.5 478.5 c 0
 1842.5 470.167 1851.33 460 1858 448 c 1
 1859 448 l 1
 1864 485 l 1
 1934 485 l 1
 1932.67 471 1931.67 455.333 1931 438 c 0xc8c7c370
 1930.33 420.667 1930 400.333 1930 377 c 2
 1930 180 l 2xc8c7c3b0
1851 362 m 2
 1851 366.667 1850.67 371.167 1850 375.5 c 0
 1849.33 379.833 1848.33 383.667 1847 387 c 0
 1844.33 396.333 1840 405.167 1834 413.5 c 0
 1828 421.833 1819 426 1807 426 c 0
 1787.67 426 1773.5 415.333 1764.5 394 c 0
 1755.5 372.667 1751 345.333 1751 312 c 0
 1751 274 1756.17 246 1766.5 228 c 0
 1776.83 210 1789.67 201 1805 201 c 0
 1812.33 201 1819.83 203.333 1827.5 208 c 0
 1835.17 212.667 1841.33 222.333 1846 237 c 0
 1848 241.667 1849.33 246.333 1850 251 c 0
 1850.67 255.667 1851 260.667 1851 266 c 2
 1851 362 l 2
2072 292 m 1xd4c7c330
 2072 272.667 2074.17 256.5 2078.5 243.5 c 0
 2082.83 230.5 2088.83 220.333 2096.5 213 c 0
 2104.17 205.667 2112.83 200.5 2122.5 197.5 c 0
 2132.17 194.5 2142.33 193 2153 193 c 0
 2166.33 193 2178.5 194.333 2189.5 197 c 0
 2200.5 199.667 2210 202.667 2218 206 c 1
 2229 151 l 1
 2217.67 145.667 2204 141.667 2188 139 c 0
 2172 136.333 2155.33 135 2138 135 c 0
 2091.33 135 2055.67 150.167 2031 180.5 c 0
 2006.33 210.833 1994 253 1994 307 c 0
 1994 364.333 2006.83 409.333 2032.5 442 c 0
 2058.17 474.667 2090.67 491 2130 491 c 0
 2168 491 2196.67 476.167 2216 446.5 c 0
 2235.33 416.833 2245 379 2245 333 c 0
 2245 323 2244.67 314.833 2244 308.5 c 0
 2243.33 302.167 2243 296.667 2243 292 c 1
 2072 292 l 1xd4c7c330
2171 346 m 1
 2171.67 374 2167.5 395.667 2158.5 411 c 0
 2149.5 426.333 2138 434 2124 434 c 0
 2115.33 434 2107.83 431.333 2101.5 426 c 0
 2095.17 420.667 2089.83 413.833 2085.5 405.5 c 0
 2081.17 397.167 2078 387.667 2076 377 c 0
 2074 366.333 2072.67 356 2072 346 c 1
 2171 346 l 1
2308 388 m 2xd147c338
 2308 404 2307.67 420.5 2307 437.5 c 0
 2306.33 454.5 2305.67 470.333 2305 485 c 1
 2374 485 l 1
 2379 433 l 1xd147c334
 2381 433 l 1
 2388.33 450.333 2398.67 464.333 2412 475 c 0
 2425.33 485.667 2439.67 491 2455 491 c 0
 2459 491 2462.17 490.833 2464.5 490.5 c 0
 2466.83 490.167 2469.33 490 2472 490 c 1
 2472 414 l 1
 2468.67 414.667 2463 415 2455 415 c 0
 2441 415 2427.83 409.833 2415.5 399.5 c 0
 2403.17 389.167 2395 374.333 2391 355 c 0
 2389 347 2388 336 2388 322 c 2
 2388 139 l 1
 2308 139 l 1
 2308 388 l 2xd147c338
EndSplineSet
Validated: 524321
EndChar

StartChar: greaterequal
Encoding: 25 8805 16
Width: 1696
Flags: W
HStem: -156 66<108 270 1464 1626> 133 60<575.523 676.929 915.344 963.813 1101.18 1223.66 1305.31 1396.14> 284 51<1084 1179> 416 53<647.837 734.4 786 828 904 972 1098.63 1167.42 1376.8 1453.66> 515 83<442.892 500.139> 720 63<108 270 1464 1626>
VStem: 48 222<-156 -90 720 783> 48 60<-90 720> 277 78<137 609> 434 76<137 469 526.346 586.654> 571 71<348.977 411.83> 684 71<194.703 265.865> 828 76<203.318 416 469 527> 1009 75<210.483 284 335 403.991> 1179 71<335 397.792> 1296 71<348.564 411.83> 1408 72<194.703 266.085> 1464 222<-156 -90 720 783> 1626 60<-90 720>
LayerCount: 2
Fore
SplineSet
1686 -156 m 1xfcff40
 1464 -156 l 1
 1464 -90 l 1xfcff40
 1626 -90 l 1
 1626 720 l 1xfcff20
 1464 720 l 1
 1464 783 l 1
 1686 783 l 1
 1686 -156 l 1xfcff40
270 -156 m 1xfeff
 48 -156 l 1
 48 783 l 1
 270 783 l 1
 270 720 l 1xfeff
 108 720 l 1
 108 -90 l 1xfdff
 270 -90 l 1
 270 -156 l 1xfeff
277 609 m 1
 355 609 l 1
 355 137 l 1
 277 137 l 1
 277 609 l 1
512 556 m 1
 512.667 543.333 509 533.333 501 526 c 0
 493 518.667 483 515 471 515 c 0
 459.667 515 450 518.667 442 526 c 0
 434 533.333 430.333 543.333 431 556 c 1
 430.333 569.333 434.167 579.667 442.5 587 c 0
 450.833 594.333 460.667 598 472 598 c 256
 483.333 598 492.833 594.333 500.5 587 c 0
 508.167 579.667 512 569.333 512 556 c 1
434 137 m 1
 434 469 l 1
 510 469 l 1
 510 137 l 1
 434 137 l 1
580 205 m 1
 586.667 201 595.5 197 606.5 193 c 0
 617.5 189 629 187 641 187 c 0
 654.333 187 664.833 190.5 672.5 197.5 c 0
 680.167 204.5 684 214 684 226 c 0
 684 236.667 681 245.833 675 253.5 c 0
 669 261.167 658 270 642 280 c 0
 616 295.333 597.667 310.833 587 326.5 c 0
 576.333 342.167 571 358.333 571 375 c 0
 571 403.667 581 427.5 601 446.5 c 0
 621 465.5 646.667 475 678 475 c 0
 692 475 704.5 473.333 715.5 470 c 0
 726.5 466.667 736.333 462.667 745 458 c 1
 730 404 l 1
 722.667 408 715 411.5 707 414.5 c 0
 699 417.5 690.333 419 681 419 c 0
 667.667 419 657.833 415.5 651.5 408.5 c 0
 645.167 401.5 642 393.333 642 384 c 0
 642 375.333 644.833 367.667 650.5 361 c 0
 656.167 354.333 667.333 345.667 684 335 c 1
 731.333 309 755 275.667 755 235 c 0
 755 201 744.167 175.5 722.5 158.5 c 0
 700.833 141.5 673.333 133 640 133 c 0
 626 133 611.833 134.667 597.5 138 c 0
 583.167 141.333 572.333 145.667 565 151 c 1
 580 205 l 1
904 552 m 1
 904 469 l 1
 972 469 l 1
 972 416 l 1
 904 416 l 1
 904 244 l 2
 904 223.333 907.667 209.667 915 203 c 0
 922.333 196.333 930.667 193 940 193 c 0
 944.667 193 948.833 193.167 952.5 193.5 c 0
 956.167 193.833 960 194.333 964 195 c 1
 965 138 l 1
 959.667 136 952.667 134.667 944 134 c 0
 935.333 133.333 925.333 133 914 133 c 0
 902 133 890.667 134.5 880 137.5 c 0
 869.333 140.5 860.333 145.667 853 153 c 0
 844.333 161 838 172 834 186 c 0
 830 200 828 219 828 243 c 2
 828 416 l 1
 786 416 l 1
 786 469 l 1
 828 469 l 1
 828 527 l 1
 904 552 l 1
1084 284 m 1
 1084 246.667 1091.67 221.333 1107 208 c 0
 1122.33 194.667 1140.67 188 1162 188 c 0
 1174.67 188 1186.33 189.333 1197 192 c 0
 1207.67 194.667 1216.67 197.667 1224 201 c 1
 1235 148 l 1
 1223.67 143.333 1210.33 139.667 1195 137 c 0
 1179.67 134.333 1163.67 133 1147 133 c 0
 1102.33 133 1068.17 147.5 1044.5 176.5 c 0
 1020.83 205.5 1009 246 1009 298 c 0
 1009 353.333 1021.5 396.667 1046.5 428 c 0
 1071.5 459.333 1102.33 475 1139 475 c 0
 1176.33 475 1204.17 460.667 1222.5 432 c 0
 1240.83 403.333 1250 366.667 1250 322 c 0
 1250 312.667 1249.83 305 1249.5 299 c 0
 1249.17 293 1248.67 288 1248 284 c 1
 1084 284 l 1
1179 335 m 1
 1179.67 362.333 1175.67 383.5 1167 398.5 c 0
 1158.33 413.5 1147.33 421 1134 421 c 0
 1126 421 1119 418.333 1113 413 c 0
 1107 407.667 1102 401 1098 393 c 0
 1094 385 1090.83 375.833 1088.5 365.5 c 0
 1086.17 355.167 1084.67 345 1084 335 c 1
 1179 335 l 1
1305 205 m 1
 1311.67 201 1320.5 197 1331.5 193 c 0
 1342.5 189 1353.33 187 1364 187 c 0
 1378 187 1388.83 190.5 1396.5 197.5 c 0
 1404.17 204.5 1408 214 1408 226 c 0
 1408 236.667 1405.17 245.833 1399.5 253.5 c 0
 1393.83 261.167 1383 270 1367 280 c 0
 1341 295.333 1322.67 310.833 1312 326.5 c 0
 1301.33 342.167 1296 358.333 1296 375 c 0
 1296 403.667 1305.83 427.5 1325.5 446.5 c 0
 1345.17 465.5 1370.67 475 1402 475 c 0
 1416.67 475 1429.5 473.333 1440.5 470 c 0
 1451.5 466.667 1461.33 462.667 1470 458 c 1
 1454 404 l 1
 1446.67 408 1439.17 411.5 1431.5 414.5 c 0
 1423.83 417.5 1415.33 419 1406 419 c 0
 1392.67 419 1382.83 415.5 1376.5 408.5 c 0
 1370.17 401.5 1367 393.333 1367 384 c 0
 1367 375.333 1369.67 367.667 1375 361 c 0
 1380.33 354.333 1391.33 345.667 1408 335 c 1
 1456 308.333 1480 275 1480 235 c 0xfcff80
 1480 201 1469 175.5 1447 158.5 c 0
 1425 141.5 1397.33 133 1364 133 c 0
 1350.67 133 1337 134.667 1323 138 c 0
 1309 141.333 1298 145.667 1290 151 c 1
 1305 205 l 1
EndSplineSet
Validated: 524321
EndChar

StartChar: partialdiff
Encoding: 26 8706 17
Width: 1735
Flags: W
HStem: -156 66<68 230 1384 1546> 135 60<341.832 394 533.387 654.624 735.314 795.469 1066.96 1118.11 1172.31 1231.47> 135 55<729.998 831.269 1166.64 1267.98> 287 51<515 609> 419 53<217 258 334 402 529.153 597.955 803.095 889.221 941 982 1059 1126 1243.8 1321.66> 720 63<68 230 1384 1546>
VStem: 8 222<-156 -90 720 783> 8 60<-90 720> 258 76<205.833 419 472 529> 440 74<214.221 287 338 405.991> 609 72<338 399.823> 726 71<351.804 414.146> 839 71<197.81 268.22> 982 77<205.833 419 472 529> 1163 71<351.804 414.146> 1276 71<197.81 268.22> 1384 222<-156 -90 720 783> 1546 60<-90 720>
LayerCount: 2
Fore
SplineSet
1606 -156 m 1x9cff80
 1384 -156 l 1
 1384 -90 l 1x9cff80
 1546 -90 l 1
 1546 720 l 1x9cff40
 1384 720 l 1
 1384 783 l 1
 1606 783 l 1
 1606 -156 l 1x9cff80
230 -156 m 1x9eff
 8 -156 l 1
 8 783 l 1
 230 783 l 1
 230 720 l 1x9eff
 68 720 l 1
 68 -90 l 1x9dff
 230 -90 l 1
 230 -156 l 1x9eff
334 554 m 1
 334 472 l 1
 402 472 l 1
 402 419 l 1
 334 419 l 1
 334 247 l 2
 334 226.333 337.667 212.5 345 205.5 c 0
 352.333 198.5 360.667 195 370 195 c 0
 374.667 195 378.833 195.167 382.5 195.5 c 0
 386.167 195.833 390 196.333 394 197 c 1
 396 141 l 1
 384 137 367 135 345 135 c 0xdcff
 333 135 321.667 136.5 311 139.5 c 0
 300.333 142.5 291.333 147.667 284 155 c 0
 275.333 163.667 268.833 174.833 264.5 188.5 c 0
 260.167 202.167 258 221.333 258 246 c 2
 258 419 l 1
 217 419 l 1
 217 472 l 1
 258 472 l 1
 258 529 l 1
 334 554 l 1
514 287 m 1
 514.667 249.667 522.667 224.333 538 211 c 0
 553.333 197.667 571.667 191 593 191 c 0
 605 191 616.333 192.333 627 195 c 0
 637.667 197.667 647 200.667 655 204 c 1
 666 151 l 1
 654.667 145.667 641.167 141.667 625.5 139 c 0
 609.833 136.333 594 135 578 135 c 0
 532.667 135 498.333 149.5 475 178.5 c 0
 451.667 207.5 440 248 440 300 c 0
 440 355.333 452.333 398.667 477 430 c 0
 501.667 461.333 532.667 477 570 477 c 0
 606.667 477 634.333 462.667 653 434 c 0
 671.667 405.333 681 369 681 325 c 0
 681 315 680.667 307.167 680 301.5 c 0
 679.333 295.833 678.667 291 678 287 c 1
 514 287 l 1
609 338 m 1
 609.667 365.333 605.833 386.167 597.5 400.5 c 0
 589.167 414.833 578.333 422 565 422 c 0
 557 422 549.833 419.5 543.5 414.5 c 0
 537.167 409.5 532 403 528 395 c 0
 524 387 520.833 378 518.5 368 c 0
 516.167 358 515 348 515 338 c 1
 609 338 l 1
735 208 m 1
 741.667 204 750.667 200 762 196 c 0
 773.333 192 784.667 190 796 190 c 0xbcff
 809.333 190 819.833 193.5 827.5 200.5 c 0
 835.167 207.5 839 217 839 229 c 0
 839 239 836 247.833 830 255.5 c 0
 824 263.167 813 272.333 797 283 c 1
 771.667 298.333 753.5 313.667 742.5 329 c 0
 731.5 344.333 726 360.333 726 377 c 0
 726 406.333 736 430.333 756 449 c 0
 776 467.667 801.667 477 833 477 c 0
 847 477 859.5 475.5 870.5 472.5 c 0
 881.5 469.5 891.667 465.333 901 460 c 1
 884 406 l 1
 877.333 410.667 870.167 414.333 862.5 417 c 0
 854.833 419.667 846.333 421 837 421 c 0
 823.667 421 813.667 417.5 807 410.5 c 0
 800.333 403.5 797 395.333 797 386 c 256
 797 376.667 799.833 369 805.5 363 c 0
 811.167 357 822.333 348.667 839 338 c 1
 886.333 312 910 278.333 910 237 c 0
 910 203 899.167 177.5 877.5 160.5 c 0
 855.833 143.5 828.333 135 795 135 c 0
 781 135 767 136.833 753 140.5 c 0
 739 144.167 728.333 148.667 721 154 c 1
 735 208 l 1
1059 554 m 1
 1059 472 l 1
 1126 472 l 1
 1126 419 l 1
 1059 419 l 1
 1059 247 l 2
 1059 226.333 1062.67 212.5 1070 205.5 c 0
 1077.33 198.5 1085.67 195 1095 195 c 0
 1099.67 195 1103.83 195.167 1107.5 195.5 c 0
 1111.17 195.833 1114.67 196.333 1118 197 c 1
 1120 141 l 1
 1108.67 137 1092 135 1070 135 c 0xdcff
 1057.33 135 1045.83 136.5 1035.5 139.5 c 0
 1025.17 142.5 1016.33 147.667 1009 155 c 0
 999.667 163.667 992.833 174.833 988.5 188.5 c 0
 984.167 202.167 982 221.333 982 246 c 2
 982 419 l 1
 941 419 l 1
 941 472 l 1
 982 472 l 1
 982 529 l 1
 1059 554 l 1
1172 208 m 1
 1178.67 204 1187.5 200 1198.5 196 c 0
 1209.5 192 1220.67 190 1232 190 c 0
 1246 190 1256.83 193.5 1264.5 200.5 c 0
 1272.17 207.5 1276 217 1276 229 c 0
 1276 239 1273 247.833 1267 255.5 c 0
 1261 263.167 1250 272.333 1234 283 c 1
 1208 298.333 1189.67 313.667 1179 329 c 0
 1168.33 344.333 1163 360.333 1163 377 c 0
 1163 406.333 1172.83 430.333 1192.5 449 c 0
 1212.17 467.667 1238 477 1270 477 c 0
 1284 477 1296.5 475.5 1307.5 472.5 c 0
 1318.5 469.5 1328.33 465.333 1337 460 c 1
 1322 406 l 1
 1314.67 410.667 1307 414.333 1299 417 c 0
 1291 419.667 1282.33 421 1273 421 c 0
 1259.67 421 1249.83 417.5 1243.5 410.5 c 0
 1237.17 403.5 1234 395.333 1234 386 c 256
 1234 376.667 1236.83 369 1242.5 363 c 0
 1248.17 357 1259.33 348.667 1276 338 c 1
 1323.33 312 1347 278.333 1347 237 c 0
 1347 203 1336 177.5 1314 160.5 c 0
 1292 143.5 1264.67 135 1232 135 c 0xbcff
 1218 135 1204 136.833 1190 140.5 c 0
 1176 144.167 1165 148.667 1157 154 c 1
 1172 208 l 1
EndSplineSet
Validated: 524321
EndChar

StartChar: summation
Encoding: 27 8721 18
Width: 1716
Flags: W
HStem: -156 66<68 230 1473 1635> 12 56<810.376 921.496> 142 53.5<268.709 335.572 1305.68 1421.66> 282 50<1289 1379> 301 46<276.367 338> 405 59<863.194 926.019> 412 52<220.768 328.303 572.68 631.832 1303.86 1367.72> 720 63<68 230 1473 1635>
VStem: 8 222<-156 -90 720 783> 8 60<-90 720> 191 70<196.674 284.634> 341 71<195.742 301 347 395.498> 482 64<422 459> 485 73<142 397.502> 642 72<142 385.374> 774 72<219.538 390.191> 938 72<88.6311 178 205.706 393.656> 950 64<425 459> 1082 73<142 592> 1218 71<211.99 282 332 397.733> 1379 68<332 390.34> 1473 222<-156 -90 720 783> 1635 60<-90 720>
LayerCount: 2
Fore
SplineSet
230 -156 m 1xe19338
 8 -156 l 1
 8 783 l 1
 230 783 l 1
 230 720 l 1xe19338
 68 720 l 1
 68 -90 l 1xe15338
 230 -90 l 1
 230 -156 l 1xe19338
1695 -156 m 1xe1133c
 1473 -156 l 1
 1473 -90 l 1xe1133c
 1635 -90 l 1
 1635 720 l 1xe1133a
 1473 720 l 1
 1473 783 l 1
 1695 783 l 1
 1695 -156 l 1xe1133c
412 214 m 2
 412 202 412.333 189.667 413 177 c 0
 413.667 164.333 415 152.667 417 142 c 1
 351 142 l 1
 346 175 l 1
 328 149.667 304.333 137 275 137 c 0
 251 137 231 145.667 215 163 c 0
 199 180.333 191 203 191 231 c 0
 191 251 195.167 268.333 203.5 283 c 0
 211.833 297.667 222.833 309.833 236.5 319.5 c 0
 250.167 329.167 265.833 336.167 283.5 340.5 c 0
 301.167 344.833 319.333 347 338 347 c 1
 338 356 l 2
 338 372 334.333 385.333 327 396 c 0
 319.667 406.667 307 412 289 412 c 0
 277 412 265.833 410.333 255.5 407 c 0
 245.167 403.667 235.333 399.333 226 394 c 1
 213 441 l 1
 221.667 446.333 234 451.5 250 456.5 c 0
 266 461.5 284.333 464 305 464 c 0xeb3338
 326.333 464 343.833 460.667 357.5 454 c 0
 371.167 447.333 382 438.5 390 427.5 c 0
 398 416.5 403.667 403.333 407 388 c 0
 410.333 372.667 412 356.667 412 340 c 2
 412 214 l 2
341 301 m 1
 333.667 301 325.333 300.167 316 298.5 c 0
 306.667 296.833 298 293.833 290 289.5 c 0
 282 285.167 275.167 279 269.5 271 c 0
 263.833 263 261 252 261 238 c 0
 261 220 265 207.333 273 200 c 0
 281 192.667 289 189 297 189 c 0
 305.667 189 314 191.833 322 197.5 c 0
 330 203.167 335.333 212.333 338 225 c 1
 340 229.667 341 235.333 341 242 c 2
 341 301 l 1
485 370 m 2xe31738
 485 388 484.833 403.833 484.5 417.5 c 0
 484.167 431.167 483.333 445 482 459 c 1
 546 459 l 1xe31b38
 550 422 l 1
 558 435.333 568.833 445.667 582.5 453 c 0
 596.167 460.333 611.667 464 629 464 c 0
 657 464 678.167 454.167 692.5 434.5 c 0
 706.833 414.833 714 386.667 714 350 c 2
 714 142 l 1
 642 142 l 1
 642 343 l 2
 642 358.333 639.333 372.667 634 386 c 0
 628.667 399.333 618 406 602 406 c 0
 593.333 406 585.333 402.667 578 396 c 0
 570.667 389.333 565.333 379.667 562 367 c 1
 559.333 361 558 351.333 558 338 c 2
 558 142 l 1
 485 142 l 1
 485 370 l 2xe31738
1010 180 m 2xe513b8
 1010 142.667 1007 114.167 1001 94.5 c 0
 995 74.8333 986 59 974 47 c 0
 950.667 23.6667 917.333 12 874 12 c 0
 859.333 12 845.333 13.3333 832 16 c 0
 818.667 18.6667 806.333 22.3333 795 27 c 1
 810 81 l 1
 818 77.6667 827.167 74.6667 837.5 72 c 0
 847.833 69.3333 860 68 874 68 c 0
 895.333 68 911.333 74.6667 922 88 c 0
 932.667 101.333 938 123 938 153 c 2
 938 178 l 1xe513b8
 937 178 l 1
 931.667 166.667 923.333 158.167 912 152.5 c 0
 900.667 146.833 888.333 144 875 144 c 0
 858.333 144 843.667 148.167 831 156.5 c 0
 818.333 164.833 807.833 176 799.5 190 c 0
 791.167 204 784.833 220.333 780.5 239 c 0
 776.167 257.667 774 277.333 774 298 c 0
 774 326 777 350.333 783 371 c 0
 789 391.667 797.167 408.833 807.5 422.5 c 0
 817.833 436.167 829.5 446.5 842.5 453.5 c 0
 855.5 460.5 869 464 883 464 c 0
 898.333 464 911 460.333 921 453 c 0
 931 445.667 938.667 436.333 944 425 c 1
 946 425 l 1
 950 459 l 1
 1014 459 l 1xe51378
 1012.67 445.667 1011.67 431.167 1011 415.5 c 0
 1010.33 399.833 1010 381.333 1010 360 c 2
 1010 180 l 2xe513b8
938 347 m 2xed13b8
 938 350.333 937.667 354 937 358 c 0
 936.333 362 935.333 365.667 934 369 c 0
 932 378.333 928.333 386.667 923 394 c 0
 917.667 401.333 909.333 405 898 405 c 0
 880.667 405 867.667 395 859 375 c 0
 850.333 355 846 330 846 300 c 0
 846 266 851 240.667 861 224 c 0
 871 207.333 883 199 897 199 c 0
 903.667 199 910.5 201.167 917.5 205.5 c 0
 924.5 209.833 930 218.667 934 232 c 1
 936 236 937.167 240.167 937.5 244.5 c 0
 937.833 248.833 938 253.333 938 258 c 2
 938 347 l 2xed13b8
1082 592 m 1
 1155 592 l 1
 1155 142 l 1
 1082 142 l 1
 1082 592 l 1
1289 282 m 1xf31338
 1289 264 1291 249.333 1295 238 c 0
 1299 226.667 1304.5 217.5 1311.5 210.5 c 0
 1318.5 203.5 1326.33 198.667 1335 196 c 0
 1343.67 193.333 1353 192 1363 192 c 0
 1375 192 1386 193.167 1396 195.5 c 0
 1406 197.833 1414.67 200.667 1422 204 c 1
 1433 153 l 1
 1422.33 148.333 1409.67 144.667 1395 142 c 0
 1380.33 139.333 1365.33 138 1350 138 c 0
 1306.67 138 1273.83 151.833 1251.5 179.5 c 0
 1229.17 207.167 1218 246 1218 296 c 0
 1218 348 1229.67 389 1253 419 c 0
 1276.33 449 1306 464 1342 464 c 0
 1376.67 464 1402.83 450.5 1420.5 423.5 c 0
 1438.17 396.5 1447 361.667 1447 319 c 0
 1447 309.667 1446.83 302.333 1446.5 297 c 0
 1446.17 291.667 1445.67 286.667 1445 282 c 1
 1289 282 l 1xf31338
1379 332 m 1
 1379.67 357.333 1376 377 1368 391 c 0
 1360 405 1349.33 412 1336 412 c 0
 1328 412 1321.17 409.5 1315.5 404.5 c 0
 1309.83 399.5 1305 393.167 1301 385.5 c 0
 1297 377.833 1294 369.167 1292 359.5 c 0
 1290 349.833 1289 340.667 1289 332 c 1
 1379 332 l 1
EndSplineSet
Validated: 524321
EndChar

StartChar: product
Encoding: 28 8719 19
Width: 2034
Flags: W
HStem: -156 66<68 230 1781 1943> 141 55.5<329.336 392.177 640.323 760.624 841.345 934.138 1068.31 1160.14> 288 52<621 716> 416 63<329.1 397.533 1541.85 1608.17> 423 56<636.718 703.935 910.165 995.838 1135.76 1222.83> 518 85<1309.38 1367.14> 720 63<68 230 1781 1943>
VStem: 8 222<-156 -90 720 783> 8 60<-90 720> 236 76<212.017 400.965> 409 75<203.986 408.18 443 614> 417 70<141 181> 546 75<214.365 288 340 407.936> 716 71<340 401.308> 832 72<353.161 415.947> 946 71<199.81 269.51> 1059 70<353.547 415.947> 1172 72<199.81 269.705> 1300 77<141 474 529.861 591.139> 1449 67<434 474> 1453 76<141 407.615> 1616 78<141 395.859> 1781 222<-156 -90 720 783> 1943 60<-90 720>
LayerCount: 2
Fore
SplineSet
230 -156 m 1xe74fe4
 8 -156 l 1
 8 783 l 1
 230 783 l 1
 230 720 l 1xe74fe4
 68 720 l 1
 68 -90 l 1xe6cfe4
 230 -90 l 1
 230 -156 l 1xe74fe4
2003 -156 m 1xe64fe6
 1781 -156 l 1
 1781 -90 l 1xe64fe6
 1943 -90 l 1
 1943 720 l 1xe64fe5
 1781 720 l 1
 1781 783 l 1
 2003 783 l 1
 2003 -156 l 1xe64fe6
484 614 m 1xf66fe4
 484 231 l 2xf66fe4
 484 217.667 484.167 202.5 484.5 185.5 c 0
 484.833 168.5 485.667 153.667 487 141 c 1
 421 141 l 1
 417 181 l 1xf65fe4
 415 181 l 1
 408.333 168.333 398.833 157.667 386.5 149 c 0
 374.167 140.333 359.333 136 342 136 c 0
 308 136 281.833 151.833 263.5 183.5 c 0
 245.167 215.167 236 256 236 306 c 0
 236 335.333 239 360.833 245 382.5 c 0
 251 404.167 259.167 422.167 269.5 436.5 c 0
 279.833 450.833 291.667 461.5 305 468.5 c 0
 318.333 475.5 332 479 346 479 c 0
 374 479 394.333 467 407 443 c 1
 409 443 l 1
 409 614 l 1
 484 614 l 1xf66fe4
409 346 m 2
 409 351 409 351 409 356.5 c 0
 409 360.167 408.333 363.667 407 367 c 1
 405.667 380.333 401.167 391.833 393.5 401.5 c 0
 385.833 411.167 376.333 416 365 416 c 0
 345.667 416 332 405 324 383 c 0
 316 361 312 335 312 305 c 0
 312 271 316.5 244.333 325.5 225 c 0
 334.5 205.667 347.333 196 364 196 c 0
 371.333 196 378.833 198.5 386.5 203.5 c 0
 394.167 208.5 400.333 219.333 405 236 c 1
 407.667 242 409 249.333 409 258 c 2
 409 346 l 2
621 288 m 1
 621 269.333 623.167 253.833 627.5 241.5 c 0
 631.833 229.167 637.5 219.5 644.5 212.5 c 0
 651.5 205.5 659.833 200.5 669.5 197.5 c 0
 679.167 194.5 689 193 699 193 c 0
 711.667 193 723.167 194.167 733.5 196.5 c 0
 743.833 198.833 753 201.667 761 205 c 1
 772 153 l 1
 761.333 147.667 748.167 143.667 732.5 141 c 0
 716.833 138.333 701 137 685 137 c 0
 639.667 137 605.167 151.5 581.5 180.5 c 0
 557.833 209.5 546 249.667 546 301 c 0
 546 357 558.333 400.667 583 432 c 0
 607.667 463.333 639 479 677 479 c 0xee4fe4
 713.667 479 741.167 464.833 759.5 436.5 c 0
 777.833 408.167 787 371.333 787 326 c 0
 787 316.667 786.833 309.167 786.5 303.5 c 0
 786.167 297.833 785.667 292.667 785 288 c 1
 621 288 l 1
716 340 m 1
 716.667 366.667 712.667 387.333 704 402 c 0
 695.333 416.667 684.333 424 671 424 c 0
 663 424 655.833 421.5 649.5 416.5 c 0
 643.167 411.5 638 405 634 397 c 0
 630 389 627 380 625 370 c 0
 623 360 621.667 350 621 340 c 1
 716 340 l 1
841 209 m 1
 848.333 205 857.5 201.167 868.5 197.5 c 0
 879.5 193.833 890.667 192 902 192 c 0
 916 192 926.833 195.5 934.5 202.5 c 0
 942.167 209.5 946 218.667 946 230 c 0
 946 240.667 943 249.833 937 257.5 c 0
 931 265.167 920 274 904 284 c 1
 877.333 299.333 858.667 314.833 848 330.5 c 0
 837.333 346.167 832 362.667 832 380 c 0
 832 408 842 431.5 862 450.5 c 0
 882 469.5 908 479 940 479 c 0
 954 479 966.333 477.333 977 474 c 0
 987.667 470.667 997.333 466.667 1006 462 c 1
 991 408 l 1
 983.667 412 976.167 415.5 968.5 418.5 c 0
 960.833 421.5 952.333 423 943 423 c 0
 929.667 423 919.833 419.5 913.5 412.5 c 0
 907.167 405.5 904 397.333 904 388 c 256
 904 378.667 906.833 370.833 912.5 364.5 c 0
 918.167 358.167 929.333 350 946 340 c 0
 993.333 312 1017 278.333 1017 239 c 0
 1017 205 1006 179.5 984 162.5 c 0
 962 145.5 934.667 137 902 137 c 0
 888 137 873.833 138.667 859.5 142 c 0
 845.167 145.333 834 149.667 826 155 c 1
 841 209 l 1
1068 209 m 1
 1074.67 205 1083.5 201.167 1094.5 197.5 c 0
 1105.5 193.833 1117 192 1129 192 c 0
 1142.33 192 1152.83 195.5 1160.5 202.5 c 0
 1168.17 209.5 1172 218.667 1172 230 c 0
 1172 240.667 1169 249.833 1163 257.5 c 0
 1157 265.167 1145.67 274 1129 284 c 0
 1103.67 299.333 1085.67 314.833 1075 330.5 c 0
 1064.33 346.167 1059 362.667 1059 380 c 0
 1059 408 1068.83 431.5 1088.5 450.5 c 0
 1108.17 469.5 1133.67 479 1165 479 c 0
 1179.67 479 1192.5 477.333 1203.5 474 c 0
 1214.5 470.667 1224.33 466.667 1233 462 c 1
 1218 408 l 1
 1210.67 412 1203 415.5 1195 418.5 c 0
 1187 421.5 1178.33 423 1169 423 c 0
 1155.67 423 1145.67 419.5 1139 412.5 c 0
 1132.33 405.5 1129 397.333 1129 388 c 256
 1129 378.667 1131.83 370.833 1137.5 364.5 c 0
 1143.17 358.167 1154.67 350 1172 340 c 0
 1220 312.667 1244 279 1244 239 c 0
 1244 205 1232.83 179.5 1210.5 162.5 c 0
 1188.17 145.5 1160.67 137 1128 137 c 0
 1114 137 1100 138.667 1086 142 c 0
 1072 145.333 1061 149.667 1053 155 c 1
 1068 209 l 1
1379 560 m 1
 1379.67 547.333 1376 537.167 1368 529.5 c 0
 1360 521.833 1349.33 518 1336 518 c 0
 1325.33 518 1316.17 521.833 1308.5 529.5 c 0
 1300.83 537.167 1297.33 547.333 1298 560 c 1
 1297.33 573.333 1301 583.833 1309 591.5 c 0
 1317 599.167 1326.33 603 1337 603 c 0
 1349.67 603 1359.83 599.167 1367.5 591.5 c 0
 1375.17 583.833 1379 573.333 1379 560 c 1
1300 141 m 1
 1300 474 l 1
 1377 474 l 1
 1377 141 l 1
 1300 141 l 1
1453 380 m 2xf64fec
 1453 398.667 1452.67 415.167 1452 429.5 c 0
 1451.33 443.833 1450.33 458.667 1449 474 c 1
 1516 474 l 1xf64ff4
 1520 434 l 1
 1521 434 l 1
 1529.67 447.333 1541.17 458.167 1555.5 466.5 c 0
 1569.83 474.833 1586 479 1604 479 c 0
 1633.33 479 1655.67 468.5 1671 447.5 c 0
 1686.33 426.5 1694 397 1694 359 c 2
 1694 141 l 1
 1616 141 l 1
 1616 352 l 2
 1616 368 1613.5 382.833 1608.5 396.5 c 0
 1603.5 410.167 1592.67 417 1576 417 c 0
 1566.67 417 1558 413.667 1550 407 c 0
 1542 400.333 1536.33 390.333 1533 377 c 0
 1531.67 373.667 1530.67 369.333 1530 364 c 0
 1529.33 358.667 1529 352.667 1529 346 c 2
 1529 141 l 1
 1453 141 l 1
 1453 380 l 2xf64fec
EndSplineSet
Validated: 524321
EndChar

StartChar: pi
Encoding: 29 960 20
Width: 1898
Flags: W
HStem: -156 66<68 230 1643 1805> 135 55<372.5 429.114 708.252 790.17 1005.28 1048.84 1496.97 1555> 141 295<578 646 1102 1158 1280 1348> 378 58.5<798.749 841.167 1186.82 1240.91> 389 47<374.001 433.775 767.418 844.411 890 927 996 1056 1493.67 1552.69> 476 75<585.345 636.686 1288.34 1339.69> 720 63<68 230 1643 1805>
VStem: 8 222<-156 -90 720 783> 8 60<-90 720> 290 68<200.373 375.355> 442 68<196.707 381.887 409 561> 450 60<141 176> 578 68<141 436 486.314 540.17> 699 63<328.478 385.224> 801 62<192.117 255.776> 927 69<199.286 389 436 487> 1098 60<391 436> 1102 67<141 360.327> 1280 68<141 436 486.314 540.17> 1413 57<141 177> 1415 67<196.707 379.542 404 561> 1568 68<199.426 375.745> 1643 222<-156 -90 720 783> 1805 60<-90 720>
LayerCount: 2
Fore
SplineSet
230 -156 m 1x874f24
 8 -156 l 1
 8 783 l 1
 230 783 l 1
 230 720 l 1x874f24
 68 720 l 1
 68 -90 l 1x86cf24
 230 -90 l 1
 230 -156 l 1x874f24
1865 -156 m 1x864f26
 1643 -156 l 1
 1643 -90 l 1x864f26
 1805 -90 l 1
 1805 720 l 1x864f25
 1643 720 l 1
 1643 783 l 1
 1865 783 l 1
 1865 -156 l 1x864f26
510 561 m 1xc66f24
 510 221 l 2xc66f24
 510 208.333 510.333 194.667 511 180 c 0
 511.667 165.333 512.333 152.333 513 141 c 1
 454 141 l 1
 450 176 l 1xa65f24
 449 176 l 1
 443.667 164.667 435.333 155 424 147 c 0
 412.667 139 399.333 135 384 135 c 0
 354 135 330.833 149.167 314.5 177.5 c 0
 298.167 205.833 290 242.333 290 287 c 0
 290 313 292.667 335.667 298 355 c 0
 303.333 374.333 310.5 390.333 319.5 403 c 0
 328.5 415.667 338.833 425.167 350.5 431.5 c 0
 362.167 437.833 374.333 441 387 441 c 0
 412.333 441 430.667 430.333 442 409 c 1
 442 561 l 1
 510 561 l 1xc66f24
442 323 m 1
 442 342 l 1
 440.667 354 436.667 364.333 430 373 c 0
 423.333 381.667 414.667 386 404 386 c 0
 395.333 386 388.167 383.333 382.5 378 c 0xd66f24
 376.833 372.667 372.167 365.5 368.5 356.5 c 0
 364.833 347.5 362.167 336.833 360.5 324.5 c 0
 358.833 312.167 358 299.333 358 286 c 0
 358 256 362 232.5 370 215.5 c 0
 378 198.5 389 190 403 190 c 0
 409.667 190 416.5 192.167 423.5 196.5 c 0
 430.5 200.833 436 210.333 440 225 c 0
 441.333 228.333 442 231.667 442 235 c 0
 442 240 442 240 442 245 c 2
 442 323 l 1
647 513 m 0
 647.667 501.667 644.5 492.667 637.5 486 c 0
 630.5 479.333 621.333 476 610 476 c 0
 600 476 591.5 479.333 584.5 486 c 0
 577.5 492.667 574.333 501.667 575 513 c 1
 574.333 524.333 577.667 533.5 585 540.5 c 0
 592.333 547.5 601 551 611 551 c 0
 621.667 551 630.333 547.5 637 540.5 c 0
 643.667 533.5 647 524.333 647 513 c 0
578 141 m 1xa64f24
 578 436 l 1
 646 436 l 1
 646 141 l 1
 578 141 l 1xa64f24
708 202 m 1
 713.333 198 721 194.333 731 191 c 0
 741 187.667 751.333 186 762 186 c 0
 774 186 783.5 189 790.5 195 c 0
 797.5 201 801 209.333 801 220 c 0
 801 229.333 798.167 237.333 792.5 244 c 0
 786.833 250.667 776.667 258.667 762 268 c 0
 739.333 281.333 723.167 295 713.5 309 c 0
 703.833 323 699 337.667 699 353 c 0
 699 378.333 707.833 399.333 725.5 416 c 0
 743.167 432.667 766 441 794 441 c 0
 807.333 441 818.833 439.5 828.5 436.5 c 0
 838.167 433.5 846.667 430 854 426 c 1
 840 378 l 1x964f24
 828 386.667 814 391 798 391 c 0
 786 391 777 388 771 382 c 0
 765 376 762 368.667 762 360 c 0
 762 352 764.667 345.167 770 339.5 c 0
 775.333 333.833 785.667 326.667 801 318 c 0
 842.333 294 863 264 863 228 c 0
 863 197.333 853.5 174.5 834.5 159.5 c 0
 815.5 144.5 791 137 761 137 c 0
 749 137 736.667 138.5 724 141.5 c 0
 711.333 144.5 701.333 148.667 694 154 c 1
 708 202 l 1
996 510 m 1
 996 436 l 1
 1056 436 l 1
 1056 389 l 1
 996 389 l 1
 996 236 l 2
 996 217.333 999 205 1005 199 c 0
 1011 193 1018.67 190 1028 190 c 0
 1033 190 1033 190 1038.5 190 c 0
 1042.17 190 1045.67 190.667 1049 192 c 1
 1050 142 l 1
 1041.33 138.667 1026.67 137 1006 137 c 0
 982 137 963.333 142.667 950 154 c 1
 942.667 162 937 172 933 184 c 0
 929 196 927 213 927 235 c 2
 927 389 l 1
 890 389 l 1
 890 436 l 1
 927 436 l 1xce4f24
 927 487 l 1
 996 510 l 1
1102 353 m 2xa64f64
 1102 366.333 1101.5 380.167 1100.5 394.5 c 0
 1099.5 408.833 1098.67 422.667 1098 436 c 1x8e4fa4
 1158 436 l 1xa64fa4
 1162 391 l 1
 1163 391 l 1
 1169 406.333 1177.83 418.5 1189.5 427.5 c 0
 1201.17 436.5 1213.33 441 1226 441 c 0
 1229.33 441 1232.17 440.833 1234.5 440.5 c 0
 1236.83 440.167 1239 439.667 1241 439 c 1
 1241 375 l 1
 1238.33 375.667 1233.33 376 1226 376 c 0
 1214.67 376 1203.67 371.5 1193 362.5 c 0
 1182.33 353.5 1175.33 341 1172 325 c 0
 1170 317.667 1169 308 1169 296 c 2
 1169 141 l 1
 1102 141 l 1
 1102 353 l 2xa64f64
1350 513 m 0
 1350.67 501.667 1347.5 492.667 1340.5 486 c 0
 1333.5 479.333 1324.33 476 1313 476 c 0
 1303 476 1294.5 479.333 1287.5 486 c 0
 1280.5 492.667 1277.33 501.667 1278 513 c 1
 1277.33 524.333 1280.67 533.5 1288 540.5 c 0
 1295.33 547.5 1304 551 1314 551 c 0
 1324.67 551 1333.33 547.5 1340 540.5 c 0
 1346.67 533.5 1350 524.333 1350 513 c 0
1280 141 m 1xa64f24
 1280 436 l 1
 1348 436 l 1
 1348 141 l 1
 1280 141 l 1xa64f24
1415 561 m 1xa64f2c
 1482 561 l 1
 1482 404 l 1
 1484 404 l 1
 1498.67 428.667 1520.67 441 1550 441 c 0
 1577.33 441 1598.5 427.5 1613.5 400.5 c 0
 1628.5 373.5 1636 338 1636 294 c 0
 1636 242 1626.33 202.5 1607 175.5 c 0
 1587.67 148.5 1564.67 135 1538 135 c 0xc64f2c
 1523.33 135 1511.17 138.667 1501.5 146 c 0
 1491.83 153.333 1483.33 163.667 1476 177 c 1
 1474 177 l 1
 1470 141 l 1
 1413 141 l 1xa64f34
 1413.67 151.667 1414.17 164.5 1414.5 179.5 c 0
 1414.83 194.5 1415 208.333 1415 221 c 2
 1415 561 l 1xa64f2c
1482 246 m 2
 1482 239.333 1483.33 232.667 1486 226 c 1
 1490 210.667 1495.5 200.833 1502.5 196.5 c 0
 1509.5 192.167 1516 190 1522 190 c 0
 1538.67 190 1550.5 199.167 1557.5 217.5 c 0
 1564.5 235.833 1568 260 1568 290 c 0
 1568 317.333 1564.33 340.167 1557 358.5 c 0
 1549.67 376.833 1538 386 1522 386 c 0
 1512.67 386 1504.67 381.833 1498 373.5 c 0
 1491.33 365.167 1487.33 356.333 1486 347 c 1
 1483.33 340.333 1482 334 1482 328 c 2
 1482 246 l 2
EndSplineSet
Validated: 524289
EndChar

StartChar: grave
Encoding: 30 96 21
Width: 2227
Flags: W
HStem: -156 66<68 230 1984 2146> 137 60<750.301 815.969 1068.1 1119.35 1601.55 1688.95 1815.11 1933.66> 286 51<1796 1890> 306 47<758.894 823> 402 72<1268.09 1328> 416 53<313.501 378.258 471.726 535.923 702.166 813.774 944 986 1061 1127 1605.12 1689.83> 513 83<1376.38 1433.14> 720 63<68 230 1984 2146>
VStem: 8 222<-156 -90 720 783> 8 60<-90 720> 228 74<142 405.502> 228 66<430 469> 385 76<142 392.859> 544 74<142 391.311> 671 72<198.914 289.563> 824 75<197.051 306 353 403.498> 835 68<142 175> 986 75<207.317 416 469 525> 1174 74<142 382.02> 1174 67<419 469> 1367 76<142 469 524.861 584.139> 1500 76<224.969 385.833> 1724 72<214.247 286 337 405.505> 1890 70<337 397.793> 1984 222<-156 -90 720 783> 2146 60<-90 720>
LayerCount: 2
Fore
SplineSet
2206 -156 m 1xc30e4f80
 1984 -156 l 1
 1984 -90 l 1xc30e4f80
 2146 -90 l 1
 2146 720 l 1xc30e4f40
 1984 720 l 1
 1984 783 l 1
 2206 783 l 1
 2206 -156 l 1xc30e4f80
230 -156 m 1xc38e4f
 8 -156 l 1
 8 783 l 1
 230 783 l 1
 230 720 l 1xc38e4f
 68 720 l 1
 68 -90 l 1xc34e4f
 230 -90 l 1
 230 -156 l 1xc38e4f
228 377 m 2xdb2e4f
 228 395.667 227.667 412 227 426 c 0
 226 447 226 447 225 469 c 1
 291 469 l 1
 294 430 l 1xd71e4f
 296 430 l 1
 304 442 314.667 452.333 328 461 c 0
 341.333 469.667 357 474 375 474 c 0
 392.333 474 407.5 470 420.5 462 c 0
 433.5 454 443 442.333 449 427 c 1
 450 427 l 1
 460 442.333 471.667 453.667 485 461 c 0
 499.667 469.667 515.667 474 533 474 c 0
 560.333 474 581.333 464 596 444 c 0
 610.667 424 618 393.667 618 353 c 2
 618 142 l 1
 544 142 l 1
 544 340 l 2
 544 360 541.667 377.333 537 392 c 0
 532.333 406.667 521.333 414 504 414 c 0
 484.667 414 471.333 401.333 464 376 c 0
 462 370 461 361.333 461 350 c 2
 461 142 l 1
 385 142 l 1
 385 351 l 2
 385 365.667 382.833 379.833 378.5 393.5 c 0
 374.167 407.167 363.667 414 347 414 c 0
 338.333 414 330 410.667 322 404 c 0
 314 397.333 308.333 387.333 305 374 c 0
 304.333 370.667 303.667 366.833 303 362.5 c 0
 302.333 358.167 302 353.667 302 349 c 2
 302 142 l 1
 228 142 l 1
 228 377 l 2xdb2e4f
899 216 m 2xdb0f4f
 899 203.333 899.167 190.667 899.5 178 c 0
 899.833 165.333 901 153.333 903 142 c 1
 835 142 l 1xdb0ecf
 831 175 l 1
 830 175 l 1
 812.667 149.667 788.333 137 757 137 c 0
 732.333 137 711.833 145.833 695.5 163.5 c 0
 679.167 181.167 671 204.667 671 234 c 0
 671 254.667 675.333 272.5 684 287.5 c 0
 692.667 302.5 704 314.833 718 324.5 c 0
 732 334.167 748.167 341.333 766.5 346 c 0
 784.833 350.667 803.667 353 823 353 c 1
 823 362 l 2
 823 379.333 819.167 393.333 811.5 404 c 0
 803.833 414.667 790.333 420 771 420 c 0
 759 420 747.667 418.333 737 415 c 0
 726.333 411.667 716.333 407.333 707 402 c 1
 693 451 l 1
 701.667 456.333 714.333 461.5 731 466.5 c 0
 747.667 471.5 766.667 474 788 474 c 0
 810 474 828.167 470.667 842.5 464 c 0
 856.833 457.333 868.167 448.167 876.5 436.5 c 0
 884.833 424.833 890.667 411.167 894 395.5 c 0
 897.333 379.833 899 363.333 899 346 c 2
 899 216 l 2xdb0f4f
824 306 m 1xd30f4f
 816.667 306 808.333 305.167 799 303.5 c 0
 789.667 301.833 780.833 298.833 772.5 294.5 c 0
 764.167 290.167 757.167 283.667 751.5 275 c 0
 745.833 266.333 743 255 743 241 c 0
 743 222.333 746.833 209.333 754.5 202 c 0
 762.167 194.667 770.667 191 780 191 c 256
 789.333 191 798 193.833 806 199.5 c 0
 814 205.167 819.667 214.333 823 227 c 0
 823.667 230.333 824 233.333 824 236 c 0
 824 240 824 240 824 245 c 2
 824 306 l 1xd30f4f
1061 551 m 1
 1061 469 l 1
 1127 469 l 1
 1127 416 l 1
 1061 416 l 1
 1061 247 l 2
 1061 227 1064.33 213.667 1071 207 c 0
 1077.67 200.333 1086 197 1096 197 c 0
 1100 197 1104 197.167 1108 197.5 c 0
 1112 197.833 1115.67 198.333 1119 199 c 1
 1121 144 l 1
 1115 142 1108 140.333 1100 139 c 0
 1092 137.667 1082.33 137 1071 137 c 0
 1059 137 1047.83 138.667 1037.5 142 c 0
 1027.17 145.333 1018.33 150.667 1011 158 c 0
 1002.33 166 996 176.667 992 190 c 0
 988 203.333 986 222 986 246 c 2
 986 416 l 1
 944 416 l 1
 944 469 l 1
 986 469 l 1xc70e4f
 986 525 l 1
 1061 551 l 1
1174 377 m 2xcb0e6f
 1174 392.333 1173.67 408 1173 424 c 0
 1172.33 440 1171.67 455 1171 469 c 1
 1237 469 l 1
 1241 419 l 1xc70e5f
 1243 419 l 1
 1249.67 435.667 1259.33 449 1272 459 c 0
 1284.67 469 1298.33 474 1313 474 c 0
 1317.67 474 1322.67 473.333 1328 472 c 1
 1328 401 l 1
 1325.33 401.667 1320.33 402 1313 402 c 0
 1299.67 402 1287 397 1275 387 c 0
 1263 377 1255.33 363 1252 345 c 1
 1249.33 339 1248 328.667 1248 314 c 2
 1248 142 l 1
 1174 142 l 1
 1174 377 l 2xcb0e6f
1445 554 m 1
 1445.67 542 1442 532.167 1434 524.5 c 0
 1426 516.833 1415.67 513 1403 513 c 0
 1392.33 513 1383.17 516.833 1375.5 524.5 c 0
 1367.83 532.167 1364 542 1364 554 c 0
 1364 566.667 1368 576.833 1376 584.5 c 0
 1384 592.167 1393.67 596 1405 596 c 256
 1416.33 596 1425.83 592.167 1433.5 584.5 c 0
 1441.17 576.833 1445 566.667 1445 554 c 1
1367 142 m 1
 1367 469 l 1
 1443 469 l 1
 1443 142 l 1
 1367 142 l 1
1695 148 m 1
 1689.67 146 1681.83 143.667 1671.5 141 c 0
 1661.17 138.333 1649.67 137 1637 137 c 0
 1595 137 1561.67 151.167 1537 179.5 c 0
 1512.33 207.833 1500 249 1500 303 c 0
 1500 327 1503.5 349.5 1510.5 370.5 c 0
 1517.5 391.5 1527.5 409.5 1540.5 424.5 c 0
 1553.5 439.5 1569 451.333 1587 460 c 0
 1605 468.667 1625.33 473 1648 473 c 0
 1659.33 473 1669.17 472.167 1677.5 470.5 c 0
 1685.83 468.833 1692.67 466.667 1698 464 c 1
 1687 407 l 1
 1683 408.333 1678 409.833 1672 411.5 c 0
 1666 413.167 1658.67 414 1650 414 c 0
 1638 414 1627.33 411 1618 405 c 0
 1608.67 399 1600.83 391 1594.5 381 c 0
 1588.17 371 1583.5 359.333 1580.5 346 c 0
 1577.5 332.667 1576 318.667 1576 304 c 0
 1576 270 1582.67 243.667 1596 225 c 0
 1609.33 206.333 1627.33 197 1650 197 c 0
 1657.33 197 1664 197.5 1670 198.5 c 0
 1676 199.5 1681.67 201.667 1687 205 c 1
 1695 148 l 1
1796 286 m 1xeb0e4f
 1796 268 1798.17 253 1802.5 241 c 0
 1806.83 229 1812.5 219.5 1819.5 212.5 c 0
 1826.5 205.5 1834.67 200.5 1844 197.5 c 0
 1853.33 194.5 1863 193 1873 193 c 0
 1885 193 1896.33 194.167 1907 196.5 c 0
 1917.67 198.833 1926.67 201.667 1934 205 c 1
 1945 154 l 1
 1934.33 148.667 1921.33 144.5 1906 141.5 c 0
 1890.67 138.5 1875 137 1859 137 c 0
 1814.33 137 1780.67 151.5 1758 180.5 c 0
 1735.33 209.5 1724 249.333 1724 300 c 0
 1724 354 1736 396.5 1760 427.5 c 0
 1784 458.5 1814.33 474 1851 474 c 0
 1887 474 1914.17 460 1932.5 432 c 0
 1950.83 404 1960 368 1960 324 c 0
 1960 314.667 1959.67 307.167 1959 301.5 c 0
 1958.33 295.833 1958 290.667 1958 286 c 1
 1796 286 l 1xeb0e4f
1890 337 m 1
 1890.67 363 1886.83 383.5 1878.5 398.5 c 0
 1870.17 413.5 1859.33 421 1846 421 c 0
 1838 421 1831 418.333 1825 413 c 0
 1819 407.667 1814 401 1810 393 c 0
 1806 385 1802.83 376 1800.5 366 c 0
 1798.17 356 1796.67 346.333 1796 337 c 1
 1890 337 l 1
EndSplineSet
Validated: 524321
EndChar

StartChar: quotesingle
Encoding: 31 39 22
Width: 2450
Flags: W
HStem: -156 66<68 230 2204 2366> 126 49<1139.13 1231.79> 126 18<1423.32 1482.9> 136 13<229 249.055 342.971 370 497 531.899 682.719 702> 292 30<439 564> 384 84<964.362 1010.51> 434 14<790 808 1662 1680.9 1862 1880.6> 452 16<1229 1280.98 1484.89 1528.32> 527 105<1742.47 1822.47> 720 63<68 230 2204 2366>
VStem: 8 222<-156 -90 720 783> 8 60<-90 720> 564 99<162.316 292 322 389.389> 1042 91<194.885 325.823> 1286 56<397.667 447.624> 1355 12<224.701 245> 1389 78<372.667 435.263> 1500 74<171.34 237.779> 1582 13<357 392.64> 1630 93<156.188 254.734> 1727 105<537.562 616.468> 2030 94<157.688 252.797> 2094 94<327.594 436.367> 2204 222<-156 -90 720 783> 2366 60<-90 720>
LayerCount: 2
Fore
SplineSet
2426 -156 m 1x88cff9
 2204 -156 l 1
 2204 -90 l 1x88cff9
 2366 -90 l 1
 2366 720 l 1x88cff880
 2204 720 l 1
 2204 783 l 1
 2426 783 l 1
 2426 -156 l 1x88cff9
230 -156 m 1x88eff8
 8 -156 l 1
 8 783 l 1
 230 783 l 1
 230 720 l 1x88eff8
 68 720 l 1
 68 -90 l 1x88dff8
 230 -90 l 1
 230 -156 l 1x88eff8
564 292 m 1
 414 292 l 1
 383 256 l 1
 349 214 l 2
 345.667 209.333 342.833 205 340.5 201 c 0
 337 195 337 195 334 190 c 0
 332.667 186.667 331.667 183.833 331 181.5 c 0
 330.333 179.167 330 176.667 330 174 c 0
 330 168.667 333.333 163.333 340 158 c 0
 343.333 154.667 347.333 152.5 352 151.5 c 0
 356.667 150.5 362.667 149.667 370 149 c 1
 370 136 l 1
 226 136 l 1
 229 149 l 1
 243 152.333 254.333 157 263 163 c 0
 275.667 171 295 190.667 321 222 c 2
 665 632 l 1
 681 632 l 1
 665 235 l 2
 664.333 225 663.833 216.833 663.5 210.5 c 0
 663.167 204.167 663 199.667 663 197 c 0
 663 180.333 666.667 168.667 674 162 c 1
 680 155.333 690.667 151 706 149 c 1
 702 136 l 1
 493 136 l 1
 497 149 l 1x98cff8
 518.333 151 530 152.667 532 154 c 0
 538.667 156.667 544.667 163.667 550 175 c 0xc8cff8
 555.333 185 559 203.667 561 231 c 2
 564 292 l 1
564 322 m 1
 573 480 l 1
 439 322 l 1
 564 322 l 1
934 468 m 1x9bcff8
 870 267 l 1
 892 315.667 911 355.167 927 385.5 c 0
 943 415.833 956.667 436.667 968 448 c 0x9bcff8
 981.333 461.333 995 468 1009 468 c 0
 1017.67 468 1025.67 464 1033 456 c 0
 1035.67 452.667 1037.83 448.5 1039.5 443.5 c 0
 1041.17 438.5 1042 432.667 1042 426 c 0
 1042 402.667 1036.33 383.333 1025 368 c 1
 1018.33 357.333 1010.67 352 1002 352 c 0
 992 352 985 356.333 981 365 c 0
 975.667 375 972 380.333 970 381 c 1
 968.667 383 967 384 965 384 c 0x8ccff8
 962.333 384 960 383 958 381 c 1
 953.333 379.667 946.333 372.667 937 360 c 0
 933 354.667 928.333 347.333 923 338 c 0
 917.667 328.667 912 317.333 906 304 c 256
 897 284 897 284 890 268 c 0
 885.333 257.333 881.333 247.333 878 238 c 256
 874.667 228.667 870.333 215.667 865 199 c 0
 859.667 182.333 853.333 161.333 846 136 c 1
 759 136 l 1
 827 373 l 2
 831.667 389.667 834 401.333 834 408 c 0
 834 415.333 832.667 420.667 830 424 c 0
 828.667 425.333 827 426.667 825 428 c 0
 823 429.333 820.667 430.667 818 432 c 0
 815.333 432.667 811.5 433.167 806.5 433.5 c 0
 801.5 433.833 795 434 787 434 c 1
 790 444 l 1
 910 468 l 1
 934 468 l 1x9bcff8
1298 221 m 1
 1308 212 l 1
 1285.33 184 1262.67 164 1240 152 c 1
 1209.33 134.667 1178.33 126 1147 126 c 0
 1125.67 126 1106.67 130.667 1090 140 c 0
 1074 148.667 1062 161.667 1054 179 c 0
 1046 195.667 1042 212.667 1042 230 c 0
 1042 249.333 1044.5 268.5 1049.5 287.5 c 0
 1054.5 306.5 1062.67 325.667 1074 345 c 1
 1093.33 381.667 1121.33 411.667 1158 435 c 0
 1193.33 457 1227.33 468 1260 468 c 0xc9cff8
 1286.67 468 1307 462 1321 450 c 0
 1335 437.333 1342 422.333 1342 405 c 0
 1342 390.333 1336.67 376.667 1326 364 c 1
 1315.33 353.333 1303.67 348 1291 348 c 0
 1280.33 348 1271.33 351.667 1264 359 c 256
 1256.67 366.333 1253 374.667 1253 384 c 0x8ccff8
 1253 396.667 1259.33 408 1272 418 c 1
 1281.33 424 1286 430 1286 436 c 0
 1286 439.333 1284 442.667 1280 446 c 1
 1276 448 1276 448 1272 450 c 0
 1269.33 451.333 1266 452 1262 452 c 0
 1241.33 452 1222.67 443.667 1206 427 c 1
 1182 405 1164 377.667 1152 345 c 1
 1139.33 313 1133 282 1133 252 c 0
 1133 228 1139.33 209.333 1152 196 c 0
 1164.67 182 1180 175 1198 175 c 0xc9cff8
 1212.67 175 1229 179 1247 187 c 1
 1263.67 193.667 1280.67 205 1298 221 c 1
1611 468 m 1
 1595 357 l 1
 1582 357 l 1
 1581.33 385 1572.67 407.333 1556 424 c 0
 1540 440.667 1523.33 449 1506 449 c 0
 1495.33 449 1486 446 1478 440 c 1
 1470.67 432.667 1467 424.667 1467 416 c 0
 1467 410 1468.67 403 1472 395 c 0
 1473.33 391.667 1475.83 387.833 1479.5 383.5 c 0
 1485 377 1485 377 1493 368 c 0
 1511.67 348 1526.83 331 1538.5 317 c 0
 1550.17 303 1558 292 1562 284 c 0
 1570 268.667 1574 252.667 1574 236 c 0
 1574 216.667 1569 198.667 1559 182 c 1
 1550.33 166 1536.33 152.333 1517 141 c 1
 1507.67 136.333 1498 132.667 1488 130 c 0
 1478 127.333 1468 126 1458 126 c 0
 1443.33 126 1426 129 1406 135 c 1
 1391.33 138.333 1381.33 140 1376 140 c 0
 1369.33 140 1364.67 139 1362 137 c 1
 1359.33 136.333 1355.67 132.667 1351 126 c 1
 1338 126 l 1
 1355 245 l 1
 1367 245 l 1
 1374.33 217.667 1382 197.333 1390 184 c 0
 1394 178 1398.33 172.5 1403 167.5 c 0
 1407.67 162.5 1413.33 158.333 1420 155 c 1
 1430.67 147.667 1442 144 1454 144 c 0xa9cff8
 1466.67 144 1477.67 148 1487 156 c 0
 1495.67 164 1500 173.667 1500 185 c 0
 1500 190.333 1499.5 195.833 1498.5 201.5 c 0
 1497.5 207.167 1495.33 212.667 1492 218 c 256
 1488.67 223.333 1484 230 1478 238 c 0
 1472 246 1463.67 255.667 1453 267 c 0
 1439 282.333 1427.33 295.667 1418 307 c 0
 1408.67 318.333 1402 328 1398 336 c 0
 1392 348 1389 361.667 1389 377 c 0
 1389 402.333 1398.33 424 1417 442 c 0
 1435.67 459.333 1462 468 1496 468 c 0
 1509.33 468 1527.33 465.333 1550 460 c 0
 1560 457.333 1568.67 456 1576 456 c 0
 1585.33 456 1592.67 460 1598 468 c 1
 1611 468 l 1
1810 468 m 1
 1730 216 l 2
 1727 205 1727 205 1725 198 c 0
 1723.67 193.333 1723 190 1723 188 c 256
 1723 186 1723.33 184.5 1724 183.5 c 0
 1724.67 182.5 1725.33 181.333 1726 180 c 0
 1728.67 177.333 1731.33 176 1734 176 c 0
 1738 176 1742 178 1746 182 c 0
 1756.67 192 1769 208.667 1783 232 c 1
 1796 224 l 1
 1758.67 158.667 1720 126 1680 126 c 0
 1664.67 126 1652.33 130.667 1643 140 c 0
 1634.33 148 1630 158.667 1630 172 c 0
 1630 176.667 1630.33 181.667 1631 187 c 0
 1631.67 192.333 1633.33 198.667 1636 206 c 2
 1690 377 l 1
 1693.33 385 1695.5 392.167 1696.5 398.5 c 0
 1697.5 404.833 1698 410 1698 414 c 0
 1698 419.333 1695.67 424 1691 428 c 0
 1685.67 432 1679.33 434 1672 434 c 2
 1658 434 l 1
 1662 448 l 1xabcff8
 1788 468 l 1
 1810 468 l 1
1780 632 m 256
 1795.33 632 1807.67 627 1817 617 c 0
 1827 607 1832 594.667 1832 580 c 0
 1832 564 1827 551.667 1817 543 c 1
 1806.33 532.333 1794 527 1780 527 c 0
 1765.33 527 1753 532.333 1743 543 c 1
 1732.33 552.333 1727 564.667 1727 580 c 0
 1727 593.333 1732 605.667 1742 617 c 1
 1752 627 1764.67 632 1780 632 c 256
2009 468 m 1
 1962 314 l 1
 1994.67 360 2018.67 390.667 2034 406 c 0
 2056.67 429.333 2076.67 445.667 2094 455 c 0
 2109.33 463.667 2124.67 468 2140 468 c 0
 2154 468 2165.33 462.667 2174 452 c 1
 2183.33 442.667 2188 429.667 2188 413 c 0x99cffa
 2188 399.667 2185 384 2179 366 c 2
 2130 216 l 2
 2126 202 2124 193 2124 189 c 0
 2124 187.667 2124.67 185.667 2126 183 c 1
 2128 181 2130 180 2132 180 c 0
 2134.67 180 2137 181 2139 183 c 0
 2148.33 190.333 2157 200 2165 212 c 0
 2166.33 214 2167.67 216.167 2169 218.5 c 0
 2170.33 220.833 2172.33 223.667 2175 227 c 1
 2189 219 l 1
 2154.33 161 2117.33 132 2078 132 c 0
 2063.33 132 2051.67 135.667 2043 143 c 0
 2034.33 151 2030 160.667 2030 172 c 0x99cffc
 2030 177.333 2030.83 183.667 2032.5 191 c 0
 2034.17 198.333 2036.67 206.667 2040 216 c 2
 2089 370 l 2
 2092.33 381.333 2094 388.667 2094 392 c 0
 2094 393.333 2093.67 394.5 2093 395.5 c 0
 2092.33 396.5 2091.33 397.667 2090 399 c 0
 2088 401 2085.33 402 2082 402 c 0
 2071.33 402 2059.33 395.667 2046 383 c 1
 2009.33 351 1974.33 304 1941 242 c 1
 1910 136 l 1
 1818 136 l 1x99cffa
 1887 365 l 2
 1894.33 389 1898 405 1898 413 c 0
 1898 417 1897 420.667 1895 424 c 0
 1893.67 426 1890.33 428 1885 430 c 0
 1881.67 431.333 1872.67 432 1858 432 c 1
 1862 446 l 1
 1986 468 l 1
 2009 468 l 1
EndSplineSet
Validated: 524289
EndChar

StartChar: space
Encoding: 32 32 23
Width: 2432
Flags: W
HStem: -156 66<68 230 2184 2346> 135 49<1065.46 1157.02 1381.46 1473.02> 135 19<1698.89 1745.02 2020.19 2084.13> 145 13<155 175.055 269.193 296 422 457.899 607.39 629> 301 30<365 489> 393 84<889.862 936.148> 461 16<1154.93 1206.44 1470.93 1522.44 1784.35 1830.32 2083.89 2128.27> 720 63<68 230 2184 2346>
VStem: 8 222<-156 -90 720 783> 8 60<-90 720> 486 103<171.378 301 331 407.471> 968 91<203.863 335.079> 1212 55<406.333 456.64> 1284 91<203.863 335.079> 1528 55<406.333 456.64> 1598 88<171.052 312.564> 1836 89<296.096 439.829> 1955 11<235.935 254> 1988 79<380.831 444.256> 2099 74<180.34 246.779> 2181 14<366 403.75> 2346 60<-90 720>
LayerCount: 2
Fore
SplineSet
230 -156 m 1x89bffc
 8 -156 l 1
 8 783 l 1
 230 783 l 1
 230 720 l 1x89bffc
 68 720 l 1
 68 -90 l 1x897ffc
 230 -90 l 1
 230 -156 l 1x89bffc
2406 -156 m 1
 2184 -156 l 1
 2184 -90 l 1
 2346 -90 l 1
 2346 720 l 1
 2184 720 l 1
 2184 783 l 1
 2406 783 l 1
 2406 -156 l 1
489 301 m 1
 340 301 l 1
 309 265 l 1
 275 223 l 2
 267.667 213 263 205 261 199 c 1
 258.333 193.667 257 188.333 257 183 c 256
 257 177.667 259.667 172.333 265 167 c 1
 271 162.333 281.333 159.333 296 158 c 1
 296 145 l 1
 151 145 l 1
 155 158 l 1
 169 161.333 180.333 166 189 172 c 0
 195.667 176.667 203.667 183.833 213 193.5 c 0
 222.333 203.167 233.667 215.667 247 231 c 2
 590 641 l 1
 606 641 l 1
 590 244 l 2
 589.333 234 589 225.833 589 219.5 c 0
 589 210 589 210 589 206 c 0
 589 190.667 592.333 179 599 171 c 0
 604.333 164.333 615.333 160 632 158 c 1
 629 145 l 1
 418 145 l 1
 422 158 l 1x993ffc
 444 160 456 161.667 458 163 c 0
 464.667 165.667 471 172.667 477 184 c 1xc93ffc
 479 189.333 480.833 196.667 482.5 206 c 0
 484.167 215.333 485.333 226.667 486 240 c 2
 489 301 l 1
489 331 m 1
 499 489 l 1
 365 331 l 1
 489 331 l 1
860 477 m 1x9b3ffc
 797 276 l 1
 818.333 324.667 837 364.167 853 394.5 c 0
 869 424.833 882.667 445.667 894 457 c 0
 907.333 470.333 920.667 477 934 477 c 0
 944.667 477 952.667 473 958 465 c 1
 964.667 458.333 968 448.333 968 435 c 0
 968 411.667 962.333 392.333 951 377 c 1
 944.333 366.333 936.667 361 928 361 c 0
 918.667 361 911.333 365.333 906 374 c 0
 903.333 378.667 901.333 382.333 900 385 c 0
 898.667 387.667 897.667 389.333 897 390 c 0
 895 392 892.667 393 890 393 c 256x8d3ffc
 887.333 393 885 392 883 390 c 1
 877.667 388 871 381 863 369 c 0
 854.333 357 844.333 338.333 833 313 c 0
 826.333 299.667 820.667 287.667 816 277 c 0
 811.333 266.333 807.333 256.333 804 247 c 256
 800.667 237.667 796.333 224.667 791 208 c 0
 785.667 191.333 779.667 170.333 773 145 c 1
 685 145 l 1
 753 382 l 2
 755 391.333 756.667 398.833 758 404.5 c 0
 759.333 410.167 760 414.333 760 417 c 0
 760 422.333 758.667 427.667 756 433 c 0
 754.667 434.333 753 435.667 751 437 c 0
 749 438.333 746.667 439.667 744 441 c 0
 741.333 441.667 737.5 442.167 732.5 442.5 c 0
 727.5 442.833 721 443 713 443 c 1
 717 453 l 1
 836 477 l 1
 860 477 l 1x9b3ffc
1223 230 m 1
 1234 221 l 1
 1210.67 193 1187.67 173 1165 161 c 1
 1135.67 143.667 1105 135 1073 135 c 0
 1052.33 135 1033.33 139.667 1016 149 c 0
 999.333 157.667 987 170.667 979 188 c 0
 971.667 203.333 968 220.333 968 239 c 0
 968 278.333 978.333 316.667 999 354 c 1
 1020.33 390.667 1048.33 420.667 1083 444 c 1
 1100.33 454.667 1117.67 462.833 1135 468.5 c 0
 1152.33 474.167 1169.33 477 1186 477 c 0xcb3ffc
 1212.67 477 1233 471 1247 459 c 0
 1260.33 447.667 1267 432.667 1267 414 c 0
 1267 398.667 1262 385 1252 373 c 1
 1241.33 362.333 1229.67 357 1217 357 c 0
 1207 357 1197.67 360.667 1189 368 c 1
 1182.33 374.667 1179 383 1179 393 c 0x8d3ffc
 1179 405.667 1185.33 417 1198 427 c 1
 1207.33 433 1212 439 1212 445 c 0
 1212 447.667 1210 451 1206 455 c 1
 1203.33 456.333 1200.5 457.667 1197.5 459 c 0
 1194.5 460.333 1191.33 461 1188 461 c 0
 1167.33 461 1148.33 452.667 1131 436 c 0
 1107.67 414 1089.67 386.667 1077 354 c 1
 1065 320.667 1059 289.667 1059 261 c 0
 1059 237 1065.33 218.333 1078 205 c 0
 1090.67 191 1105.67 184 1123 184 c 0xcb3ffc
 1138.33 184 1155 188 1173 196 c 0
 1189 202.667 1205.67 214 1223 230 c 1
1539 230 m 1
 1550 221 l 1
 1526.67 193 1503.67 173 1481 161 c 1
 1451.67 143.667 1421 135 1389 135 c 0
 1368.33 135 1349.33 139.667 1332 149 c 0
 1315.33 157.667 1303 170.667 1295 188 c 0
 1287.67 203.333 1284 220.333 1284 239 c 0
 1284 278.333 1294.33 316.667 1315 354 c 1
 1336.33 390.667 1364.33 420.667 1399 444 c 1
 1416.33 454.667 1433.67 462.833 1451 468.5 c 0
 1468.33 474.167 1485.33 477 1502 477 c 0xcb3ffc
 1528.67 477 1549 471 1563 459 c 0
 1576.33 447.667 1583 432.667 1583 414 c 0
 1583 398.667 1578 385 1568 373 c 1
 1557.33 362.333 1545.67 357 1533 357 c 0
 1523 357 1513.67 360.667 1505 368 c 1
 1498.33 374.667 1495 383 1495 393 c 0x8d3ffc
 1495 405.667 1501.33 417 1514 427 c 1
 1523.33 433 1528 439 1528 445 c 0
 1528 447.667 1526 451 1522 455 c 1
 1519.33 456.333 1516.5 457.667 1513.5 459 c 0
 1510.5 460.333 1507.33 461 1504 461 c 0
 1483.33 461 1464.33 452.667 1447 436 c 0
 1423.67 414 1405.67 386.667 1393 354 c 1
 1381 320.667 1375 289.667 1375 261 c 0
 1375 237 1381.33 218.333 1394 205 c 0
 1406.67 191 1421.67 184 1439 184 c 0
 1454.33 184 1471 188 1489 196 c 0
 1505 202.667 1521.67 214 1539 230 c 1
1821 477 m 0
 1839.67 477 1857.33 472.667 1874 464 c 0
 1890 455.333 1902.67 443 1912 427 c 0
 1920.67 412.333 1925 395.333 1925 376 c 256
 1925 356.667 1922.17 337.333 1916.5 318 c 0
 1910.83 298.667 1902.67 279.333 1892 260 c 0
 1870 221.333 1841.67 191 1807 169 c 0
 1772.33 146.333 1737 135 1701 135 c 0xab3ffc
 1668.33 135 1643 145 1625 165 c 1
 1607 183.667 1598 207 1598 235 c 0
 1598 267 1604.67 298 1618 328 c 0
 1630.67 356.667 1647.67 382 1669 404 c 0
 1689 424.667 1712.33 442.333 1739 457 c 1
 1765.67 470.333 1793 477 1821 477 c 0
1806 458 m 0
 1794 458 1783.67 454.333 1775 447 c 0
 1757.67 431.667 1738.67 396.333 1718 341 c 0
 1696.67 285 1686 235.333 1686 192 c 0
 1686 181.333 1689.67 172.333 1697 165 c 1
 1702.33 157.667 1710.33 154 1721 154 c 0
 1729.67 154 1737.67 157 1745 163 c 1
 1755.67 170.333 1768.67 189.667 1784 221 c 0
 1791.33 235.667 1798.17 251.333 1804.5 268 c 0
 1810.83 284.667 1816.33 302 1821 320 c 0
 1831 356 1836 389 1836 419 c 0
 1836 431 1833 440.667 1827 448 c 1
 1820.33 454.667 1813.33 458 1806 458 c 0
2210 477 m 1
 2195 366 l 1
 2181 366 l 1
 2180.33 394 2171.67 416.333 2155 433 c 1
 2140.33 449.667 2123.67 458 2105 458 c 0
 2094.33 458 2085 455 2077 449 c 1
 2070.33 442.333 2067 434.333 2067 425 c 0
 2067 421.667 2067.33 418.167 2068 414.5 c 0
 2068.67 410.833 2069.67 407.333 2071 404 c 256
 2072.33 400.667 2074.83 396.833 2078.5 392.5 c 0
 2084 386 2084 386 2092 377 c 0
 2110.67 357 2125.83 340 2137.5 326 c 0
 2149.17 312 2157 301 2161 293 c 0
 2169 277.667 2173 261.667 2173 245 c 0
 2173 225.667 2168 207.667 2158 191 c 1
 2149.33 175 2135.33 161.333 2116 150 c 1
 2106.67 145.333 2097 141.667 2087 139 c 0
 2077 136.333 2067 135 2057 135 c 0
 2042.33 135 2025 138 2005 144 c 1
 1990.33 147.333 1980.33 149 1975 149 c 0
 1968.33 149 1963.67 148 1961 146 c 1
 1957.67 144.667 1954 141 1950 135 c 1
 1937 135 l 1
 1955 254 l 1
 1966 254 l 1
 1973.33 226.667 1981 206.333 1989 193 c 0
 1993 187 1997.33 181.5 2002 176.5 c 0
 2006.67 171.5 2012.33 167.333 2019 164 c 1
 2029.67 156.667 2041.33 153 2054 153 c 0
 2067.33 153 2078 157 2086 165 c 0
 2094.67 173 2099 182.667 2099 194 c 0
 2099 199.333 2098.5 204.833 2097.5 210.5 c 0
 2096.5 216.167 2094.33 221.667 2091 227 c 256
 2087.67 232.333 2083 239 2077 247 c 0
 2071 255 2062.67 264.667 2052 276 c 0
 2038 291.333 2026.33 304.667 2017 316 c 0
 2007.67 327.333 2001 337 1997 345 c 0
 1991 357 1988 370.667 1988 386 c 0
 1988 411.333 1997.33 433 2016 451 c 0
 2034.67 468.333 2061 477 2095 477 c 0
 2108.33 477 2126.33 474.333 2149 469 c 0
 2159 466.333 2167.67 465 2175 465 c 0
 2184.33 465 2191.67 469 2197 477 c 1
 2210 477 l 1
EndSplineSet
Validated: 524289
EndChar

StartChar: exclam
Encoding: 33 33 24
Width: 2469
Flags: W
HStem: -156 66<68 230 2214 2376> 129 66<1563.96 1607.91> 129 49<1085.63 1177.81 1723.87 1766.88> 129 42<1361.84 1409.15> 139 13<175 194.839 289.01 317 443 481.386 628.25 649> 295 30<386 510> 355 116<922.166 974.775 1232.11 1266.37> 419 42<1473 1501> 437 10<737 761.663 1890 1906.8> 448 23<1665.48 1708.62> 455 16<1176.03 1227.72> 720 63<68 230 2214 2376>
VStem: 8 222<-156 -90 720 783> 8 60<-90 720> 507 103<165.316 295 325 401.471> 988 91<197.916 328.955> 1232 56<400.667 453.143> 1298 91<171.117 259.078> 1494 92<199.378 311.678> 1662 91<150.042 259.586> 2058 93<160.688 258.172> 2121 95<332.969 439> 2214 222<-156 -90 720 783> 2376 60<-90 720>
LayerCount: 2
Fore
SplineSet
230 -156 m 1x841bf0
 8 -156 l 1
 8 783 l 1
 230 783 l 1
 230 720 l 1x841bf0
 68 720 l 1
 68 -90 l 1x8417f0
 230 -90 l 1
 230 -156 l 1x841bf0
2436 -156 m 1x8413f2
 2214 -156 l 1
 2214 -90 l 1x8413f2
 2376 -90 l 1
 2376 720 l 1x8413f1
 2214 720 l 1
 2214 783 l 1
 2436 783 l 1
 2436 -156 l 1x8413f2
510 295 m 1
 361 295 l 1
 330 259 l 1
 295 217 l 1
 288.333 206.333 283.667 198.333 281 193 c 0
 279.667 189.667 278.833 186.833 278.5 184.5 c 0
 278.167 182.167 278 179.667 278 177 c 0
 278 171 280.667 165.667 286 161 c 0
 289.333 157.667 293.5 155.5 298.5 154.5 c 0
 303.5 153.5 309.667 152.667 317 152 c 1
 317 139 l 1
 172 139 l 1
 175 152 l 1
 188.333 155.333 200 160 210 166 c 1
 222.667 174.667 241.667 194.333 267 225 c 2
 611 635 l 1
 627 635 l 1
 611 238 l 2
 610.333 228 610 219.833 610 213.5 c 0
 610 204 610 204 610 200 c 0
 610 183.333 613.333 171.667 620 165 c 1
 625.333 158.333 636 154 652 152 c 1
 649 139 l 1
 439 139 l 1
 443 152 l 1x8c13f0
 464.333 154 476 155.667 478 157 c 0
 482 158.333 485.333 160.833 488 164.5 c 0
 490.667 168.167 493.667 172.667 497 178 c 0xa413f0
 499.667 183.333 501.833 190.667 503.5 200 c 0
 505.167 209.333 506.333 220.667 507 234 c 2
 510 295 l 1
510 325 m 1
 519 483 l 1
 386 325 l 1
 510 325 l 1
880 471 m 1x8cb3f0
 817 270 l 1
 859.667 366.667 892 427 914 451 c 1
 927.333 464.333 941 471 955 471 c 0
 965 471 973 467 979 459 c 0
 985 451.667 988 441.667 988 429 c 0
 988 405.667 982.333 386.333 971 371 c 1
 965 360.333 957.333 355 948 355 c 0x8613f0
 939.333 355 932.333 359.333 927 368 c 0
 921.667 378 918.333 383.333 917 384 c 0
 915 386 913 387 911 387 c 0
 908.333 387 906 386 904 384 c 1
 899.333 382.667 892.333 375.667 883 363 c 0
 874.333 351 864.333 332.333 853 307 c 0
 844 287 844 287 836.5 271 c 0
 831.5 260.333 827.333 250.333 824 241 c 256
 820.667 231.667 816.5 218.667 811.5 202 c 0
 804 177 804 177 793 139 c 1
 706 139 l 1
 774 376 l 1
 778 394 780 405.667 780 411 c 0
 780 418.333 778.667 423.667 776 427 c 0
 773.333 429.667 769.333 432.333 764 435 c 0
 761.333 435.667 757.667 436.167 753 436.5 c 0
 748.333 436.833 742 437 734 437 c 1
 737 447 l 1
 856 471 l 1
 880 471 l 1x8cb3f0
1244 224 m 1
 1254 215 l 1
 1230.67 186.333 1208 166.333 1186 155 c 1
 1155.33 137.667 1124.67 129 1094 129 c 0
 1072.67 129 1053.67 133.667 1037 143 c 0
 1020.33 151.667 1008 164.667 1000 182 c 0
 992 198.667 988 215.667 988 233 c 0
 988 252.333 990.5 271.5 995.5 290.5 c 0
 1000.5 309.5 1008.67 328.667 1020 348 c 1
 1040 384.667 1068 414.667 1104 438 c 1
 1139.33 460 1173.33 471 1206 471 c 0
 1233.33 471 1253.67 465 1267 453 c 0
 1281 441 1288 426 1288 408 c 0
 1288 393.333 1282.67 379.667 1272 367 c 1
 1262 356.333 1250.67 351 1238 351 c 0
 1232 351 1226.83 352 1222.5 354 c 0
 1218.17 356 1214 358.667 1210 362 c 0
 1202.67 369.333 1199 377.667 1199 387 c 0
 1199 399 1205.33 410.333 1218 421 c 1
 1227.33 426.333 1232 432.333 1232 439 c 0
 1232 442.333 1230 445.667 1226 449 c 0
 1220.67 453 1214.67 455 1208 455 c 0
 1188 455 1169.33 446.667 1152 430 c 0
 1128 408 1110 380.667 1098 348 c 0
 1085.33 313.333 1079 282.333 1079 255 c 0
 1079 232.333 1085.33 213.667 1098 199 c 0
 1110.67 185 1125.67 178 1143 178 c 0xa433f0
 1157.67 178 1174.67 182 1194 190 c 0
 1210 196.667 1226.67 208 1244 224 c 1
1503 559 m 1
 1473 461 l 1
 1513 461 l 1
 1501 419 l 1
 1460 419 l 1
 1395 210 l 2
 1392.33 203.333 1390.67 197.5 1390 192.5 c 0
 1389.33 187.5 1389 183.333 1389 180 c 256
 1389 176.667 1390 174.667 1392 174 c 1
 1394 172 1396.33 171 1399 171 c 0
 1402.33 171 1406.67 172.667 1412 176 c 1
 1417.33 180.667 1423.17 186.5 1429.5 193.5 c 0
 1435.83 200.5 1442.67 209.333 1450 220 c 1
 1462 212 l 1
 1446.67 184.667 1428.67 163.667 1408 149 c 0
 1388.67 135.667 1369.33 129 1350 129 c 0
 1334.67 129 1322 133.333 1312 142 c 0
 1302.67 150 1298 160.333 1298 173 c 0
 1298 180.333 1299 188.167 1301 196.5 c 0
 1303 204.833 1305.67 214.667 1309 226 c 2
 1370 419 l 1
 1324 419 l 1x9513f0
 1330 446 l 1
 1358.67 456.667 1384 470 1406 486 c 1
 1417.33 493.333 1429.33 503 1442 515 c 0
 1454.67 527 1468.67 541.667 1484 559 c 1
 1503 559 l 1
1832 466 m 1
 1761 228 l 1
 1754 199 l 2
 1753.33 196.333 1753 193.667 1753 191 c 256
 1753 188.333 1754 185.667 1756 183 c 1
 1757.33 182.333 1758.33 181.667 1759 181 c 0
 1759.67 180.333 1760.67 180 1762 180 c 0
 1766.67 180 1773.67 183.667 1783 191 c 1
 1784.33 193 1787.17 196.667 1791.5 202 c 0
 1798 210 1798 210 1809 224 c 1
 1822 218 l 1
 1813.33 202.667 1804.33 189.5 1795 178.5 c 0
 1785.67 167.5 1776.33 158.333 1767 151 c 0
 1748.33 136.333 1727.67 129 1705 129 c 0
 1691.67 129 1681.33 132.667 1674 140 c 1
 1666 146.667 1662 155.667 1662 167 c 0
 1662 175.667 1666 192.667 1674 218 c 2
 1683 247 l 1
 1655 199 1628.33 165.667 1603 147 c 1
 1589 135 1573.33 129 1556 129 c 0
 1534.67 129 1518.67 138 1508 156 c 1
 1498.67 174 1494 194.333 1494 217 c 0
 1494 251 1504.33 289.667 1525 333 c 0
 1545 375.667 1572 410.667 1606 438 c 0
 1620 448.667 1633.33 456.833 1646 462.5 c 0
 1658.67 468.167 1671.33 471 1684 471 c 0x9453f0
 1697.33 471 1708 467 1716 459 c 256
 1724 451 1730 437 1734 417 c 1
 1747 461 l 1
 1832 466 l 1
1717 398 m 0
 1717 417.333 1714 431 1708 439 c 0
 1702.67 445 1696.67 448 1690 448 c 0
 1682 448 1674.33 444.667 1667 438 c 0
 1658.33 430.667 1649.83 419.5 1641.5 404.5 c 0
 1633.17 389.5 1624 370.333 1614 347 c 0
 1595.33 301.667 1586 263 1586 231 c 0
 1586 219 1588.33 209.667 1593 203 c 1
 1598.33 197.667 1603 195 1607 195 c 0xc453f0
 1618.33 195 1629.33 201.333 1640 214 c 0
 1647.33 222.667 1654.67 232.333 1662 243 c 0
 1669.33 253.667 1676 265.667 1682 279 c 1
 1705.33 321.667 1717 361.333 1717 398 c 0
2036 471 m 1x8c33f4
 1990 317 l 1
 2022.67 363 2046.67 393.667 2062 409 c 1
 2083.33 432.333 2103 448.667 2121 458 c 0
 2137.67 466.667 2153.33 471 2168 471 c 0
 2180.67 471 2192 465.667 2202 455 c 0
 2211.33 445.667 2216 432.667 2216 416 c 0x8c33f4
 2216 402 2212.67 386.333 2206 369 c 1
 2158 219 l 2
 2156 211.667 2154.33 205.833 2153 201.5 c 0
 2151.67 197.167 2151 194 2151 192 c 256
 2151 190 2152 188 2154 186 c 256
 2156 184 2157.67 183 2159 183 c 0
 2162.33 183 2165 184 2167 186 c 0
 2175 193.333 2183.67 203 2193 215 c 0
 2194.33 217 2195.67 219.167 2197 221.5 c 0
 2198.33 223.833 2200.33 226.667 2203 230 c 1
 2217 222 l 1
 2182.33 164 2145.33 135 2106 135 c 0
 2091.33 135 2079.33 138.667 2070 146 c 1
 2062 154 2058 163.667 2058 175 c 0x8c33f8
 2058 185 2061 199.667 2067 219 c 2
 2116 373 l 2
 2119.33 384.333 2121 391.667 2121 395 c 0
 2121 396.333 2120 398.667 2118 402 c 1
 2114.67 404 2112 405 2110 405 c 0
 2098.67 405 2086.67 398.667 2074 386 c 1
 2055.33 370.667 2037.33 351.167 2020 327.5 c 0
 2002.67 303.833 1985.67 276.333 1969 245 c 1
 1938 139 l 1
 1846 139 l 1
 1915 368 l 2
 1918.33 379.333 1920.83 389 1922.5 397 c 0
 1924.17 405 1925.33 411.333 1926 416 c 0
 1926 420.667 1924.67 424.333 1922 427 c 0
 1921.33 428.333 1918 430.333 1912 433 c 0
 1909.33 434.333 1900.67 435 1886 435 c 1
 1890 449 l 1
 2014 471 l 1
 2036 471 l 1x8c33f4
EndSplineSet
Validated: 524289
EndChar

StartChar: quotedbl
Encoding: 34 34 25
Width: 1030
Flags: W
HStem: -156 66<61 223 727 889> -7 89<601.654 668.592> 394 84<292.061 368 424.281 535 591.855 716> 720 63<61 223 727 889>
VStem: 1 222<-156 -90 720 783> 1 60<-90 720> 516 66<101.158 336.429> 704 20<113.839 153> 727 222<-156 -90 720 783> 889 60<-90 720>
LayerCount: 2
Fore
SplineSet
949 -156 m 1xf380
 727 -156 l 1
 727 -90 l 1xf380
 889 -90 l 1
 889 720 l 1xf340
 727 720 l 1
 727 783 l 1
 949 783 l 1
 949 -156 l 1xf380
223 -156 m 1xfb
 1 -156 l 1
 1 783 l 1
 223 783 l 1
 223 720 l 1xfb
 61 720 l 1
 61 -90 l 1xf7
 223 -90 l 1
 223 -156 l 1xfb
724 153 m 1
 724 115 715.667 81.6667 699 53 c 0
 686.333 31 671.667 15 655 5 c 0
 641 -3 625.333 -7 608 -7 c 0
 595.333 -7 583.667 -3.66667 573 3 c 1
 559.667 14.3333 549.5 25.8333 542.5 37.5 c 0
 535.5 49.1667 530 62 526 76 c 1
 522 86 519.333 98.8333 518 114.5 c 0
 516.667 130.167 516 148.333 516 169 c 0
 516 195.667 517 219 519 239 c 2
 535 394 l 1
 426 394 l 1
 418.667 309.333 411.333 239.667 404 185 c 0
 396.667 130.333 389.333 88 382 58 c 1
 375.333 20.6667 357.667 -1.66667 329 -9 c 0
 326.333 -9.66667 322.667 -10 318 -10 c 0
 306.667 -10 296.167 -6.16667 286.5 1.5 c 0
 276.833 9.16667 271.333 17.5 270 26.5 c 0
 268.667 35.5 268 41.3333 268 44 c 0
 268 53.3333 270.667 62.3333 276 71 c 0
 277.333 73 282.667 79.6667 292 91 c 0
 304 105 313 116.333 319 125 c 0
 331 141 337.667 157.333 339 174 c 1
 368 394 l 1
 322 394 l 2
 310 394 298 391.167 286 385.5 c 0
 274 379.833 265 373 259 365 c 2
 238 335 l 1
 222 335 l 1
 227.333 351 233 367 239 383 c 1
 245.667 397.667 254.167 412.333 264.5 427 c 0
 274.833 441.667 286.667 453.333 300 462 c 0
 316.667 472.667 335.667 478 357 478 c 2
 716 478 l 1
 716 394 l 1
 594 394 l 1
 590 356.667 587 319.667 585 283 c 0
 583 246.333 582 208.333 582 169 c 0
 582 155.667 584.333 142.167 589 128.5 c 0
 593.667 114.833 599.667 104.667 607 98 c 0
 611.667 93.3333 617.167 89.5 623.5 86.5 c 0
 629.833 83.5 637 82 645 82 c 256
 653 82 659 82.8333 663 84.5 c 0
 667 86.1667 672 89.3333 678 94 c 0
 688.667 102 695.667 112.333 699 125 c 1
 701.667 139.667 703.333 149 704 153 c 1
 724 153 l 1
EndSplineSet
Validated: 524289
EndChar

StartChar: numbersign
Encoding: 35 35 26
Width: 1230
Flags: W
HStem: -156 66<61 223 922 1084> 490 54<631 939> 720 63<61 223 922 1084>
VStem: 1 222<-156 -90 720 783> 1 60<-90 720> 922 222<-156 -90 720 783> 1084 60<-90 720>
LayerCount: 2
Fore
SplineSet
1144 -156 m 1xe4
 922 -156 l 1
 922 -90 l 1xe4
 1084 -90 l 1
 1084 720 l 1xe2
 922 720 l 1
 922 783 l 1
 1144 783 l 1
 1144 -156 l 1xe4
939 490 m 1
 631 490 l 1
 406 -18 l 1
 212 296 l 1
 291 295 l 1
 402 111 l 1
 584 544 l 1
 939 544 l 1
 939 490 l 1
223 -156 m 1xf0
 1 -156 l 1
 1 783 l 1
 223 783 l 1
 223 720 l 1xf0
 61 720 l 1
 61 -90 l 1xe8
 223 -90 l 1
 223 -156 l 1xf0
EndSplineSet
Validated: 1
EndChar

StartChar: dollar
Encoding: 36 36 27
Width: 1250
Flags: W
HStem: -156 66<68 230 934 1096> -1 60<291 529 711 949> 284 60<291 513 711 933> 545 61<291 528 711 948> 720 63<68 230 934 1096>
VStem: 8 222<-156 -90 720 783> 8 60<-90 720> 224 67<59 284 344 545> 644 67<59 284 344 545> 934 222<-156 -90 720 783> 1096 60<-90 720>
LayerCount: 2
Fore
SplineSet
1156 -156 m 1xf8c0
 934 -156 l 1
 934 -90 l 1xf8c0
 1096 -90 l 1
 1096 720 l 1xf8a0
 934 720 l 1
 934 783 l 1
 1156 783 l 1
 1156 -156 l 1xf8c0
230 -156 m 1xfc80
 8 -156 l 1
 8 783 l 1
 230 783 l 1
 230 720 l 1xfc80
 68 720 l 1
 68 -90 l 1xfa80
 230 -90 l 1
 230 -156 l 1xfc80
529 -1 m 1
 224 -1 l 1
 224 606 l 1
 528 606 l 1
 528 545 l 1
 291 545 l 1
 291 344 l 1
 513 344 l 1
 513 284 l 1
 291 284 l 1
 291 59 l 1xf980
 529 59 l 1
 529 -1 l 1
949 -1 m 1
 644 -1 l 1
 644 606 l 1
 948 606 l 1
 948 545 l 1
 711 545 l 1
 711 344 l 1
 933 344 l 1
 933 284 l 1
 711 284 l 1
 711 59 l 1
 949 59 l 1
 949 -1 l 1
EndSplineSet
Validated: 1
EndChar

StartChar: percent
Encoding: 37 37 28
Width: 975
Flags: W
HStem: -156 66<61 223 667 829> 720 63<61 223 667 829>
VStem: 1 222<-156 -90 720 783> 1 60<-90 720> 388 64<29.1442 280.745 368.631 636.371> 667 222<-156 -90 720 783> 829 60<-90 720>
LayerCount: 2
Fore
SplineSet
889 -156 m 1xcc
 667 -156 l 1
 667 -90 l 1xcc
 829 -90 l 1
 829 720 l 1xca
 667 720 l 1
 667 783 l 1
 889 783 l 1
 889 -156 l 1xcc
223 -156 m 1xe8
 1 -156 l 1
 1 783 l 1
 223 783 l 1
 223 720 l 1xe8
 61 720 l 1
 61 -90 l 1xd8
 223 -90 l 1
 223 -156 l 1xe8
388 112 m 2
 388 244 l 2
 388 263.333 387.333 275.667 386 281 c 0
 382.667 292.333 374.667 302.667 362 312 c 0
 356.667 316 349.833 319.833 341.5 323.5 c 0
 333.167 327.167 324.667 330 316 332 c 1
 328.667 332.667 338.333 334.833 345 338.5 c 0
 351.667 342.167 359.667 348.333 369 357 c 1
 377 365.667 382.167 374.5 384.5 383.5 c 0
 386.833 392.5 388 403.667 388 417 c 2
 388 566 l 2
 388 585.333 390.167 601.667 394.5 615 c 0
 398.833 628.333 407.667 639.667 421 649 c 0
 434.333 658.333 448.833 664.167 464.5 666.5 c 0
 480.167 668.833 499.667 670 523 670 c 1
 495 661.333 476.167 650.333 466.5 637 c 0
 456.833 623.667 452 604.667 452 580 c 2
 452 431 l 2
 452 402.333 447.333 381.333 438 368 c 0
 426.667 351.333 404.667 340 372 334 c 1
 404 326 426 312.333 438 293 c 0
 447.333 277.667 452 254 452 222 c 2
 452 84 l 2
 452 60.6667 457 42.1667 467 28.5 c 0
 477 14.8333 495.667 4 523 -4 c 1
 471 -4.66667 435.5 3.33333 416.5 20 c 0
 397.5 36.6667 388 67.3333 388 112 c 2
EndSplineSet
Validated: 524321
EndChar

StartChar: ampersand
Encoding: 38 38 29
Width: 975
Flags: W
HStem: -156 66<61 223 667 829> 720 63<61 223 667 829>
VStem: 1 222<-156 -90 720 783> 1 60<-90 720> 458 64<28.6597 294.698 366.723 634.433> 667 222<-156 -90 720 783> 829 60<-90 720>
LayerCount: 2
Fore
SplineSet
889 -156 m 1xcc
 667 -156 l 1
 667 -90 l 1xcc
 829 -90 l 1
 829 720 l 1xca
 667 720 l 1
 667 783 l 1
 889 783 l 1
 889 -156 l 1xcc
548 312 m 1
 536 304 528.667 295 526 285 c 0
 523.333 275 522 261.333 522 244 c 2
 522 112 l 2
 522 67.3333 512.667 36.5 494 19.5 c 0
 475.333 2.5 439.667 -6 387 -6 c 1
 413.667 2.66667 432.167 14 442.5 28 c 0
 452.833 42 458 60.6667 458 84 c 2
 458 222 l 2
 458 254 463.167 278.5 473.5 295.5 c 0
 483.833 312.5 505.333 324.667 538 332 c 1
 506.667 339.333 485.5 350.667 474.5 366 c 0
 463.5 381.333 458 403 458 431 c 2
 458 580 l 2
 458 604.667 453.667 623 445 635 c 0
 434.333 649 415 660 387 668 c 1
 394 668 394 668 401 668 c 0
 405.667 668 410.333 668.333 415 669 c 1
 429.667 669 443 667.5 455 664.5 c 0
 467 661.5 479.167 655.833 491.5 647.5 c 0
 503.833 639.167 512 628.5 516 615.5 c 0
 520 602.5 522 586 522 566 c 2
 522 417 l 2
 522 401.667 523 390.167 525 382.5 c 0
 527 374.833 532.333 366.333 541 357 c 0
 546.333 351.667 551.333 347.667 556 345 c 0
 567.333 337.667 580 334 594 334 c 1
 586 330.667 578 327.5 570 324.5 c 0
 562 321.5 554.667 317.333 548 312 c 1
223 -156 m 1xe8
 1 -156 l 1
 1 783 l 1
 223 783 l 1
 223 720 l 1xe8
 61 720 l 1
 61 -90 l 1xd8
 223 -90 l 1
 223 -156 l 1xe8
EndSplineSet
Validated: 524289
EndChar

StartChar: quoteright
Encoding: 39 8217 30
Width: 1588
Flags: W
HStem: -156 66<61 223 1277 1439> -13 60<595.547 708.731> 285 44<922.445 992.924 1157.67 1209.87> 435 53<193 295.283> 546 60<601.83 711.395> 601 45<1205.01 1267.93> 617 29<1018.06 1085.67> 720 63<61 223 1277 1439>
VStem: 1 222<-156 -90 720 783> 1 60<-90 720> 322 67<-7 435> 337 52<531.522 601> 489 70<102.168 486.867> 751 70<99.3047 498.442> 1088 52<433.072 505> 1277 222<-156 -90 720 783> 1439 60<-90 720>
LayerCount: 2
Fore
SplineSet
1499 -156 m 1xf10f
 1277 -156 l 1
 1277 -90 l 1xf10f
 1439 -90 l 1
 1439 720 l 1xf10e80
 1277 720 l 1
 1277 783 l 1
 1499 783 l 1
 1499 -156 l 1xf10f
223 -156 m 1xf18e
 1 -156 l 1
 1 783 l 1
 223 783 l 1
 223 720 l 1xf18e
 61 720 l 1
 61 -90 l 1xf14e
 223 -90 l 1
 223 -156 l 1xf18e
389 -7 m 1xf52e
 322 -7 l 1
 322 435 l 1xf52e
 193 435 l 1
 193 488 l 1
 240.333 488 273.667 494.667 293 508 c 0
 317.667 524.667 332.333 555.667 337 601 c 1
 389 601 l 1xf51e
 389 -7 l 1xf52e
821 297 m 0
 821 202.333 813.333 133.667 798 91 c 0
 773.333 21.6667 725.667 -13 655 -13 c 256
 584.333 -13 536.333 25.3333 511 102 c 0
 496.333 146 489 211 489 297 c 0
 489 382.333 497 448 513 494 c 0
 539 568.667 586.333 606 655 606 c 0xf90e
 729 606 778 569 802 495 c 0
 814.667 455.667 821 389.667 821 297 c 0
751 308 m 2
 751 346 l 2
 751 406.667 746.667 450.667 738 478 c 0
 723.333 523.333 695.667 546 655 546 c 0
 615.667 546 588.667 522 574 474 c 0
 564.667 444 560 401 560 345 c 2
 560 308 l 2
 560 294 559.833 280 559.5 266 c 0
 559.167 252 559 238 559 224 c 0
 559 166.667 564 125.667 574 101 c 0
 588.667 65 615.667 47 655 47 c 0
 707.667 47 738.333 89 747 173 c 0
 749.667 198.333 751 243.333 751 308 c 2
1287 617 m 0xf30e
 1287 609 1284.83 602.167 1280.5 596.5 c 0
 1276.17 590.833 1269.33 588 1260 588 c 0
 1253.33 588 1245.67 590.167 1237 594.5 c 0
 1228.33 598.833 1221.67 601 1217 601 c 0xf50e
 1207.67 601 1192 585 1170 553 c 0
 1160 537 1160 537 1140 505 c 1
 1140 498.333 1144.67 475 1154 435 c 0
 1158 417 1164 392.333 1172 361 c 0
 1174 352.333 1176.67 344.833 1180 338.5 c 0
 1183.33 332.167 1188.67 329 1196 329 c 0
 1202.67 329 1211 334.833 1221 346.5 c 0
 1236 364 1236 364 1251 382 c 1
 1262 376 l 1
 1236.67 336 1215.67 309.667 1199 297 c 0
 1188.33 289 1176.67 285 1164 285 c 256
 1151.33 285 1141.83 288.5 1135.5 295.5 c 0
 1129.17 302.5 1123.33 316.667 1118 338 c 2
 1094 434 l 1
 1055.33 380 1022.33 338.333 995 309 c 0
 987.667 300.333 980.667 294.167 974 290.5 c 0
 967.333 286.833 958.333 285 947 285 c 0
 921 285 908 296.333 908 319 c 0
 908 326.333 910.333 332.667 915 338 c 0
 919.667 343.333 926.333 346 935 346 c 0
 941 346 947 344.667 953 342 c 0
 969.667 334.667 979 331 981 331 c 0
 987.667 331 998.167 339.833 1012.5 357.5 c 0
 1026.83 375.167 1052 410.333 1088 463 c 1
 1088 465.667 1083.33 485.667 1074 523 c 0
 1064.67 560.333 1060 579.667 1060 581 c 0
 1056 593 1053.33 600.333 1052 603 c 0
 1047.33 612.333 1039.33 617 1028 617 c 0
 1024 617 1009.33 614 984 608 c 1
 980 620 l 1
 1003 627 1003 627 1029 635 c 0
 1053.67 642.333 1070.67 646 1080 646 c 0xf30e
 1091.33 646 1099 643.333 1103 638 c 0
 1110.33 628.667 1117.33 608 1124 576 c 2
 1133 532 l 1
 1157.67 570 1177.67 597 1193 613 c 0
 1214.33 635 1234.67 646 1254 646 c 0xf50e
 1262 646 1269.5 643.5 1276.5 638.5 c 0
 1283.5 633.5 1287 626.333 1287 617 c 0xf30e
EndSplineSet
Validated: 524289
EndChar

StartChar: parenleft
Encoding: 40 40 31
Width: 975
Flags: W
HStem: -156 66<61 223 667 829> -37 49<452 530> 612 48<452 530> 720 63<61 223 667 829>
VStem: 1 222<-156 -90 720 783> 1 60<-90 720> 390 140<-37 12 612 660> 390 62<12 612> 667 222<-156 -90 720 783> 829 60<-90 720>
LayerCount: 2
Fore
SplineSet
889 -156 m 1xf080
 667 -156 l 1
 667 -90 l 1xf080
 829 -90 l 1
 829 720 l 1xf040
 667 720 l 1
 667 783 l 1
 889 783 l 1
 889 -156 l 1xf080
223 -156 m 1xf8
 1 -156 l 1
 1 783 l 1
 223 783 l 1
 223 720 l 1xf8
 61 720 l 1
 61 -90 l 1xf4
 223 -90 l 1
 223 -156 l 1xf8
530 -37 m 1xf2
 390 -37 l 1
 390 660 l 1
 530 660 l 1
 530 612 l 1xf2
 452 612 l 1
 452 12 l 1xf1
 530 12 l 1
 530 -37 l 1xf2
EndSplineSet
Validated: 1
EndChar

StartChar: parenright
Encoding: 41 41 32
Width: 975
Flags: W
HStem: -156 66<61 223 667 829> -37 49<400 478> 612 48<400 478> 720 63<61 223 667 829>
VStem: 1 222<-156 -90 720 783> 1 60<-90 720> 400 140<-37 12 612 660> 478 62<12 612> 667 222<-156 -90 720 783> 829 60<-90 720>
LayerCount: 2
Fore
SplineSet
889 -156 m 1xf080
 667 -156 l 1
 667 -90 l 1xf080
 829 -90 l 1
 829 720 l 1xf040
 667 720 l 1
 667 783 l 1
 889 783 l 1
 889 -156 l 1xf080
540 -37 m 1xf2
 400 -37 l 1
 400 12 l 1xf2
 478 12 l 1
 478 612 l 1xf1
 400 612 l 1
 400 660 l 1
 540 660 l 1
 540 -37 l 1xf2
223 -156 m 1xf8
 1 -156 l 1
 1 783 l 1
 223 783 l 1
 223 720 l 1xf8
 61 720 l 1
 61 -90 l 1xf4
 223 -90 l 1
 223 -156 l 1xf8
EndSplineSet
Validated: 1
EndChar

StartChar: asterisk
Encoding: 42 42 33
Width: 1350
Flags: W
HStem: -156 66<68 230 1043 1205> -12 54<357.735 461.44> 217 52<330 480> 250 44<662.445 732.924 897.667 949.869> 403 54<355.897 457.569> 566 45<945.012 1007.93> 582 29<758.062 825.667> 720 63<68 230 1043 1205>
VStem: 8 222<-156 -90 720 783> 8 60<-90 720> 264 66<76.083 217 269 361.492> 484 59<64.4453 148 269 374.863> 828 52<398.072 470> 1043 222<-156 -90 720 783> 1205 60<-90 720>
LayerCount: 2
Fore
SplineSet
230 -156 m 1xc9b8
 8 -156 l 1
 8 783 l 1
 230 783 l 1
 230 720 l 1xc9b8
 68 720 l 1
 68 -90 l 1xc978
 230 -90 l 1
 230 -156 l 1xc9b8
1265 -156 m 1xc93c
 1043 -156 l 1
 1043 -90 l 1xc93c
 1205 -90 l 1
 1205 720 l 1xc93a
 1043 720 l 1
 1043 783 l 1
 1265 783 l 1
 1265 -156 l 1xc93c
1027 582 m 0xcb38
 1027 574 1024.83 567.167 1020.5 561.5 c 0
 1016.17 555.833 1009.33 553 1000 553 c 0
 993.333 553 985.667 555.167 977 559.5 c 0
 968.333 563.833 961.667 566 957 566 c 0xcd38
 947.667 566 932 550 910 518 c 0
 900 502 900 502 880 470 c 1
 880 463.333 884.667 440 894 400 c 0
 898 382 904 357.333 912 326 c 0
 914 317.333 916.667 309.833 920 303.5 c 0
 923.333 297.167 928.667 294 936 294 c 0
 942.667 294 951 299.833 961 311.5 c 0
 976 329 976 329 991 347 c 1
 1002 341 l 1
 976.667 301 955.667 274.667 939 262 c 0
 928.333 254 916.667 250 904 250 c 256
 891.333 250 881.833 253.5 875.5 260.5 c 0
 869.167 267.5 863.333 281.667 858 303 c 2
 834 399 l 1
 795.333 345 762.333 303.333 735 274 c 0
 727.667 265.333 720.667 259.167 714 255.5 c 0
 707.333 251.833 698.333 250 687 250 c 0
 661 250 648 261.333 648 284 c 0
 648 291.333 650.333 297.667 655 303 c 0
 659.667 308.333 666.333 311 675 311 c 0
 681 311 687 309.667 693 307 c 0
 709.667 299.667 719 296 721 296 c 0
 727.667 296 738.167 304.833 752.5 322.5 c 0
 766.833 340.167 792 375.333 828 428 c 1
 828 430.667 823.333 450.667 814 488 c 0
 804.667 525.333 800 544.667 800 546 c 0
 796 558 793.333 565.333 792 568 c 0
 787.333 577.333 779.333 582 768 582 c 0
 764 582 749.333 579 724 573 c 1
 720 585 l 1
 743 592 743 592 769 600 c 0
 793.667 607.333 810.667 611 820 611 c 0xdb38
 831.333 611 839 608.333 843 603 c 0
 850.333 593.667 857.333 573 864 541 c 2
 873 497 l 1
 897.667 535 917.667 562 933 578 c 0
 954.333 600 974.667 611 994 611 c 0xcd38
 1002 611 1009.5 608.5 1016.5 603.5 c 0
 1023.5 598.5 1027 591.333 1027 582 c 0xcb38
546 217 m 1xe938
 330 217 l 1
 330 188 l 2
 330 144 333.667 112 341 92 c 0
 353 58.6667 376 42 410 42 c 0
 438 42 458 53.3333 470 76 c 0
 479.333 93.3333 484 117.333 484 148 c 1
 543 148 l 1
 543 100.667 532.333 63 511 35 c 0
 487.667 3.66667 453.333 -12 408 -12 c 256
 362.667 -12 328.333 4.66667 305 38 c 0
 277.667 76.6667 264 138.333 264 223 c 0
 264 284.333 273 335 291 375 c 0
 315.667 429.667 354.333 457 407 457 c 0
 469.667 457 510.667 430 530 376 c 0
 540.667 346 546 293 546 217 c 1xe938
480 269 m 1
 480 310.333 477.333 339 472 355 c 0
 461.333 387 440 403 408 403 c 0
 375.333 403 353 387.333 341 356 c 0
 333.667 336.667 330 307.667 330 269 c 1
 480 269 l 1
EndSplineSet
Validated: 524289
EndChar

StartChar: plus
Encoding: 43 43 34
Width: 2006
Flags: W
HStem: -156 66<68 230 1754 1916> 127 62<493.762 560.56 827.425 890.674 1150.42 1213.68 1461.8 1589.83> 285 54<1441 1540> 306 50<503.775 570> 408 76<322.966 386> 420 64<822.395 890.892 1145.4 1213.89> 427 57<443.83 559.008 1458.61 1525.68> 720 63<68 230 1754 1916>
VStem: 8 222<-156 -90 720 783> 8 60<-90 720> 222 80<132 386.773> 222 71<426 479> 409 76<192.586 286.737> 573 78<192.385 306 356 408.951> 584 72<132 168> 731 79<-4 163 197.244 410.033> 731 71<437 479> 909 79<205.857 403.564> 1054 79<-4 163 197.244 410.033> 1054 71<437 479> 1232 79<205.857 403.564> 1363 77<210.788 285 339 408.844> 1540 74<339 403.277> 1677 80<132 624> 1754 222<-156 -90 720 783> 1916 60<-90 720>
LayerCount: 2
Fore
SplineSet
1976 -156 m 1xc1084e80
 1754 -156 l 1
 1754 -90 l 1xc1084e80
 1916 -90 l 1
 1916 720 l 1xc1084e40
 1754 720 l 1
 1754 783 l 1
 1976 783 l 1
 1976 -156 l 1xc1084e80
230 -156 m 1xc1884e
 8 -156 l 1
 8 783 l 1
 230 783 l 1
 230 720 l 1xc1884e
 68 720 l 1
 68 -90 l 1xc1484e
 230 -90 l 1
 230 -156 l 1xc1884e
222 381 m 2xc9284e
 222 397 221.667 413.5 221 430.5 c 0
 220.333 447.5 219.667 463.667 219 479 c 1
 288 479 l 1
 293 426 l 1xc9184e
 295 426 l 1
 302.333 444 312.667 458.167 326 468.5 c 0
 339.333 478.833 353.667 484 369 484 c 0
 377 484 382.667 483.667 386 483 c 1
 386 407 l 1
 382.667 407.667 377 408 369 408 c 0
 355 408 341.833 402.833 329.5 392.5 c 0
 317.167 382.167 309 367.333 305 348 c 0
 303 340 302 329 302 315 c 2
 302 132 l 1
 222 132 l 1
 222 381 l 2xc9284e
651 211 m 2xd30c4e
 651 197.667 651.333 184 652 170 c 0
 652.667 156 654 143.333 656 132 c 1
 584 132 l 1xd30a4e
 579 168 l 1
 578 168 l 1
 558.667 140.667 533 127 501 127 c 0
 475 127 453.167 136.5 435.5 155.5 c 0
 417.833 174.5 409 199 409 229 c 0
 409 251 413.5 270 422.5 286 c 0
 431.5 302 443.5 315.167 458.5 325.5 c 0
 473.5 335.833 490.667 343.5 510 348.5 c 0
 529.333 353.5 549.333 356 570 356 c 1
 570 366 l 2
 570 383.333 566 397.833 558 409.5 c 0
 550 421.167 536 427 516 427 c 0
 491.333 427 468.667 420.333 448 407 c 1
 433 459 l 1
 442.333 464.333 455.833 469.833 473.5 475.5 c 0
 491.167 481.167 511 484 533 484 c 0
 556.333 484 575.667 480.5 591 473.5 c 0
 606.333 466.5 618.5 456.833 627.5 444.5 c 0
 636.5 432.167 642.667 417.833 646 401.5 c 0
 649.333 385.167 651 367.667 651 349 c 2
 651 211 l 2xd30c4e
573 306 m 1xd10c4e
 565 306 555.833 305.167 545.5 303.5 c 0
 535.167 301.833 525.5 298.5 516.5 293.5 c 0
 507.5 288.5 500 281.5 494 272.5 c 0
 488 263.5 485 251.667 485 237 c 0
 485 217.667 489.333 203.833 498 195.5 c 0
 506.667 187.167 515.667 183 525 183 c 256
 534.333 183 543.333 186.333 552 193 c 0
 560.667 199.667 566.667 209.667 570 223 c 1
 572 227.667 573 233.667 573 241 c 2
 573 306 l 1xd10c4e
731 370 m 2xd5094e
 731 393.333 730.5 413.5 729.5 430.5 c 0
 728.5 447.5 728 463.667 728 479 c 1
 797 479 l 1
 802 437 l 1xd508ce
 803 437 l 1
 811.667 453 822.667 464.833 836 472.5 c 0
 849.333 480.167 863.667 484 879 484 c 0
 915.667 484 943 467.333 961 434 c 0
 979 400.667 988 358 988 306 c 0
 988 274.667 984.833 247.667 978.5 225 c 0
 972.167 202.333 963.667 183.833 953 169.5 c 0
 942.333 155.167 930 144.5 916 137.5 c 0
 902 130.5 887.667 127 873 127 c 0
 857 127 844 130.667 834 138 c 0
 824 145.333 816.333 153.667 811 163 c 1
 810 163 l 1
 810 -4 l 1
 731 -4 l 1
 731 370 l 2xd5094e
810 259 m 2xc5094e
 810 253.667 810.333 248.333 811 243 c 0
 811.667 237.667 812.667 233.333 814 230 c 0
 818.667 212.667 825 201.5 833 196.5 c 0
 841 191.5 848.333 189 855 189 c 0
 865 189 873.5 192.167 880.5 198.5 c 0
 887.5 204.833 893 213.333 897 224 c 0
 901 234.667 904 247 906 261 c 0
 908 275 909 289.667 909 305 c 0
 909 339 904.667 366.667 896 388 c 0
 887.333 409.333 873.667 420 855 420 c 0
 845 420 836 415.333 828 406 c 0
 820 396.667 815 386.333 813 375 c 1
 811 367.667 810 359.333 810 350 c 2
 810 259 l 2xc5094e
1054 370 m 2xd5086e
 1054 393.333 1053.5 413.5 1052.5 430.5 c 0
 1051.5 447.5 1051 463.667 1051 479 c 1
 1120 479 l 1
 1125 437 l 1xd5085e
 1126 437 l 1
 1134.67 453 1145.67 464.833 1159 472.5 c 0
 1172.33 480.167 1186.67 484 1202 484 c 0
 1238.67 484 1266 467.333 1284 434 c 0
 1302 400.667 1311 358 1311 306 c 0
 1311 274.667 1307.83 247.667 1301.5 225 c 0
 1295.17 202.333 1286.67 183.833 1276 169.5 c 0
 1265.33 155.167 1253 144.5 1239 137.5 c 0
 1225 130.5 1210.67 127 1196 127 c 0
 1180 127 1167 130.667 1157 138 c 0
 1147 145.333 1139.33 153.667 1134 163 c 1
 1133 163 l 1
 1133 -4 l 1
 1054 -4 l 1
 1054 370 l 2xd5086e
1133 259 m 2xc5086e
 1133 253.667 1133.33 248.333 1134 243 c 0
 1134.67 237.667 1135.67 233.333 1137 230 c 0
 1141.67 212.667 1148 201.5 1156 196.5 c 0
 1164 191.5 1171.33 189 1178 189 c 0
 1188 189 1196.5 192.167 1203.5 198.5 c 0
 1210.5 204.833 1216 213.333 1220 224 c 0
 1224 234.667 1227 247 1229 261 c 0
 1231 275 1232 289.667 1232 305 c 0
 1232 339 1227.67 366.667 1219 388 c 0
 1210.33 409.333 1196.67 420 1178 420 c 0
 1168 420 1159 415.333 1151 406 c 0
 1143 396.667 1138 386.333 1136 375 c 1
 1134 367.667 1133 359.333 1133 350 c 2
 1133 259 l 2xc5086e
1440 285 m 1xe3084e
 1440 265.667 1442.33 249.667 1447 237 c 0
 1451.67 224.333 1457.67 214.167 1465 206.5 c 0
 1472.33 198.833 1481 193.5 1491 190.5 c 0
 1501 187.5 1511.33 186 1522 186 c 0
 1535.33 186 1547.33 187.333 1558 190 c 0
 1568.67 192.667 1578.33 195.667 1587 199 c 1
 1598 144 l 1
 1586.67 138.667 1572.83 134.667 1556.5 132 c 0
 1540.17 129.333 1523.67 128 1507 128 c 0
 1459.67 128 1423.83 143.167 1399.5 173.5 c 0
 1375.17 203.833 1363 246 1363 300 c 0
 1363 358 1375.83 403.167 1401.5 435.5 c 0
 1427.17 467.833 1459.33 484 1498 484 c 256
 1536.67 484 1565.67 469.167 1585 439.5 c 0
 1604.33 409.833 1614 372 1614 326 c 0
 1614 316 1613.67 307.833 1613 301.5 c 0
 1612.33 295.167 1611.67 289.667 1611 285 c 1
 1440 285 l 1xe3084e
1540 339 m 1
 1540 367 1535.67 388.667 1527 404 c 0
 1518.33 419.333 1507 427 1493 427 c 0
 1484.33 427 1476.83 424.333 1470.5 419 c 0
 1464.17 413.667 1458.83 406.833 1454.5 398.5 c 0
 1450.17 390.167 1446.83 380.667 1444.5 370 c 0
 1442.17 359.333 1441 349 1441 339 c 1
 1540 339 l 1
1677 624 m 1xc1084f
 1757 624 l 1
 1757 132 l 1
 1677 132 l 1
 1677 624 l 1xc1084f
EndSplineSet
Validated: 524289
EndChar

StartChar: comma
Encoding: 44 44 35
Width: 1777
Flags: W
HStem: -156 66<68 230 1524 1686> 140 59<846.518 973.593> 297 56<824 926> 437 65<350.005 414.395 519.738 585.763 839.408 914.44 1166 1230.67 1334.99 1402.16> 720 63<68 230 1524 1686>
VStem: 8 222<-156 -90 720 783> 8 60<-90 720> 251 81<140 426.498> 251 73<453 497> 423 82<140 427.652> 595 82<140 430.156> 744 79<222.648 297 353 421.563> 926 76<353 418.761> 1063 72<453 497> 1067 81<140 426.498> 1239 82<140 428.376> 1412 81<140 430.156> 1524 222<-156 -90 720 783> 1686 60<-90 720>
LayerCount: 2
Fore
SplineSet
1746 -156 m 1xf879c0
 1524 -156 l 1
 1524 -90 l 1xf879c0
 1686 -90 l 1
 1686 720 l 1xf879a0
 1524 720 l 1
 1524 783 l 1
 1746 783 l 1
 1746 -156 l 1xf879c0
230 -156 m 1xfc7980
 8 -156 l 1
 8 783 l 1
 230 783 l 1
 230 720 l 1xfc7980
 68 720 l 1
 68 -90 l 1xfa7980
 230 -90 l 1
 230 -156 l 1xfc7980
251 396 m 2xf97980
 251 416 250.667 433.833 250 449.5 c 0
 249 473 249 473 248 497 c 1
 319 497 l 1
 324 453 l 1xf8f980
 325 453 l 1
 334.333 467 346.333 478.667 361 488 c 0
 375.667 497.333 392.667 502 412 502 c 0
 452 502 478.667 485 492 451 c 1
 494 451 l 1
 499.333 458.333 505 465.333 511 472 c 0
 517 478.667 524 484 532 488 c 1
 547.333 497.333 564.667 502 584 502 c 0
 613.333 502 636.167 491.167 652.5 469.5 c 0
 668.833 447.833 677 415 677 371 c 2
 677 140 l 1
 595 140 l 1
 595 355 l 2
 595 365.667 594.5 376 593.5 386 c 0
 592.5 396 590.5 404.667 587.5 412 c 0
 584.5 419.333 580.167 425.333 574.5 430 c 0
 568.833 434.667 561.333 437 552 437 c 0
 542 437 533 433.333 525 426 c 0
 517 418.667 511 408.333 507 395 c 0
 505.667 391.667 505 387.5 505 382.5 c 0
 505 375 505 375 505 367 c 2
 505 140 l 1
 423 140 l 1
 423 367 l 2
 423 375 422.5 383.167 421.5 391.5 c 0
 420.5 399.833 418.5 407.333 415.5 414 c 0
 412.5 420.667 408.333 426.167 403 430.5 c 0
 397.667 434.833 390.333 437 381 437 c 256
 371.667 437 362.667 433.5 354 426.5 c 0
 345.333 419.5 339.333 408.333 336 393 c 0
 334.667 389.667 333.667 385.5 333 380.5 c 0
 332.333 375.5 332 370.333 332 365 c 2
 332 140 l 1
 251 140 l 1
 251 396 l 2xf97980
823 297 m 1
 823 277 825.5 260.5 830.5 247.5 c 0
 835.5 234.5 841.833 224.167 849.5 216.5 c 0
 857.167 208.833 866 203.333 876 200 c 0
 886 196.667 896.333 195 907 195 c 0
 920.333 195 932.667 196.333 944 199 c 0
 955.333 201.667 965.333 205 974 209 c 1
 986 152 l 1
 974.667 146.667 960.5 142.667 943.5 140 c 0
 926.5 137.333 909.333 136 892 136 c 0
 844 136 807.333 151.5 782 182.5 c 0
 756.667 213.5 744 257 744 313 c 0
 744 342.333 747.5 368.667 754.5 392 c 0
 761.5 415.333 771.167 435.167 783.5 451.5 c 0
 795.833 467.833 810.5 480.333 827.5 489 c 0
 844.5 497.667 863 502 883 502 c 256
 903 502 920.333 498 935 490 c 0
 949.667 482 962 470.667 972 456 c 0
 982 441.333 989.5 424.167 994.5 404.5 c 0
 999.5 384.833 1002 363 1002 339 c 0
 1002 328.333 1001.67 320 1001 314 c 0
 1000.33 308 1000 302.333 1000 297 c 1
 823 297 l 1
926 353 m 1
 926.667 381.667 922.5 403.833 913.5 419.5 c 0
 904.5 435.167 892.333 443 877 443 c 0
 868.333 443 860.833 440.333 854.5 435 c 0
 848.167 429.667 842.833 422.667 838.5 414 c 0
 834.167 405.333 830.833 395.667 828.5 385 c 0
 826.167 374.333 824.667 363.667 824 353 c 1
 926 353 l 1
982 641 m 1
 902 541 l 1
 850 541 l 1
 906 641 l 1
 982 641 l 1
1067 396 m 2xf87b80
 1067 416 1066.67 433.833 1066 449.5 c 0
 1065.33 465.167 1064.33 481 1063 497 c 1
 1135 497 l 1xf87d80
 1140 453 l 1
 1141 453 l 1
 1150.33 467 1162.33 478.667 1177 488 c 0
 1191.67 497.333 1208.67 502 1228 502 c 0
 1268 502 1294.67 485 1308 451 c 1
 1309 451 l 1
 1319.67 467.667 1332.33 480 1347 488 c 1
 1362.33 497.333 1379.67 502 1399 502 c 0
 1429 502 1452.17 491.167 1468.5 469.5 c 0
 1484.83 447.833 1493 415 1493 371 c 2
 1493 140 l 1
 1412 140 l 1
 1412 355 l 2
 1412 365.667 1411.5 376 1410.5 386 c 0
 1409.5 396 1407.33 404.667 1404 412 c 0
 1400.67 419.333 1396.17 425.333 1390.5 430 c 0
 1384.83 434.667 1377.67 437 1369 437 c 0
 1346.33 437 1331.33 423 1324 395 c 0
 1322 387.667 1321 378.333 1321 367 c 2
 1321 140 l 1
 1239 140 l 1
 1239 367 l 2
 1239 375 1238.5 383.167 1237.5 391.5 c 0
 1236.5 399.833 1234.67 407.333 1232 414 c 0
 1229.33 420.667 1225.17 426.167 1219.5 430.5 c 0
 1213.83 434.833 1206.67 437 1198 437 c 0
 1188 437 1178.67 433.5 1170 426.5 c 0
 1161.33 419.5 1155.33 408.333 1152 393 c 0
 1150.67 389.667 1149.67 385.5 1149 380.5 c 0
 1148.33 375.5 1148 370.333 1148 365 c 2
 1148 140 l 1
 1067 140 l 1
 1067 396 l 2xf87b80
EndSplineSet
Validated: 524321
EndChar

StartChar: hyphen
Encoding: 45 45 36
Width: 1650
Flags: W
HStem: -156 66<68 230 1354 1516> -14 60<332.322 476.302> 283 60<764 964 1139 1339> 540 60<764 979 1139 1354> 552 60<337.262 472.356> 720 63<68 230 1354 1516>
VStem: 8 222<-156 -90 720 783> 8 60<-90 720> 207 69<119.931 474.527> 534 68<116.581 474.34> 697 67<0 283 343 540> 1072 67<0 283 343 540> 1354 222<-156 -90 720 783> 1516 60<-90 720>
LayerCount: 2
Fore
SplineSet
1576 -156 m 1xe478
 1354 -156 l 1
 1354 -90 l 1xe478
 1516 -90 l 1
 1516 720 l 1xe474
 1354 720 l 1
 1354 783 l 1
 1576 783 l 1
 1576 -156 l 1xe478
230 -156 m 1xe670
 8 -156 l 1
 8 783 l 1
 230 783 l 1
 230 720 l 1xe670
 68 720 l 1
 68 -90 l 1xe570
 230 -90 l 1
 230 -156 l 1xe670
602 313 m 0
 602 209.667 591.333 134.333 570 87 c 0
 540 19.6667 485 -14 405 -14 c 0
 326.333 -14 271.667 19.6667 241 87 c 0
 218.333 137 207 212.333 207 313 c 0
 207 428.333 226 508.667 264 554 c 0
 296 592.667 343.333 612 406 612 c 0xecf0
 466.667 612 513 592.667 545 554 c 0
 583 508 602 427.667 602 313 c 0
534 311 m 0
 534 387.667 525.667 444.667 509 482 c 0
 488.333 528.667 453 552 403 552 c 0
 355.667 552 321.667 528.667 301 482 c 0
 284.333 444 276 387 276 311 c 0
 276 215.667 283.333 150 298 114 c 0
 316.667 68.6667 352.333 46 405 46 c 0
 457 46 492.333 68.3333 511 113 c 0
 526.333 150.333 534 216.333 534 311 c 0
979 540 m 1xf470
 764 540 l 1
 764 343 l 1
 964 343 l 1
 964 283 l 1
 764 283 l 1
 764 0 l 1
 697 0 l 1
 697 600 l 1
 979 600 l 1
 979 540 l 1xf470
1354 540 m 1xf478
 1139 540 l 1
 1139 343 l 1
 1339 343 l 1
 1339 283 l 1
 1139 283 l 1
 1139 0 l 1
 1072 0 l 1
 1072 600 l 1
 1354 600 l 1
 1354 540 l 1xf478
EndSplineSet
Validated: 6815745
EndChar

StartChar: period
Encoding: 46 46 37
Width: 2384
Flags: W
HStem: -156 66<68 230 2133 2295> -29 60<1804.71 1929.86> 107 57<552.755 618.309 1072.93 1138.56 1555.78 1620.03> 114 61<391.748 430.436 921.218 946 1868.04 1929.85> 286 51<560.852 628 1080.85 1148> 404 55<345.549 425.35 760 804 884 954 1870.51 1935.04> 720 63<68 230 2133 2295>
VStem: 8 222<-156 -90 720 783> 8 60<-90 720> 233 80<201.162 369.975> 466 77<172.961 267.737> 630 78<172.789 286 337 389.466> 641 72<113 148> 804 80<182.349 404 459 519> 987 76<172.961 267.737> 1151 78<173.385 286 337 389.466> 1162 71<113 148> 1309 79<113 605> 1457 80<180.76 390.739> 1638 79<179.391 390.354> 1769 80<197.574 382.458> 1949 79<54.2096 152 183.185 392.062> 1961 71<422 459> 2133 222<-156 -90 720 783> 2295 60<-90 720>
LayerCount: 2
Fore
SplineSet
230 -156 m 1xcf6678
 8 -156 l 1
 8 783 l 1
 230 783 l 1
 230 720 l 1xcf6678
 68 720 l 1
 68 -90 l 1xcee678
 230 -90 l 1
 230 -156 l 1xcf6678
2355 -156 m 1xce6679
 2133 -156 l 1
 2133 -90 l 1xce6679
 2295 -90 l 1
 2295 720 l 1xce667880
 2133 720 l 1
 2133 783 l 1
 2355 783 l 1
 2355 -156 l 1xce6679
438 120 m 1
 432.667 116.667 424.5 114 413.5 112 c 0
 402.5 110 390.333 109 377 109 c 0
 333 109 298 123.833 272 153.5 c 0
 246 183.167 233 226.667 233 284 c 0
 233 310 236.667 334 244 356 c 0
 251.333 378 261.667 397 275 413 c 0
 288.333 429 304.833 441.5 324.5 450.5 c 0
 344.167 459.5 366 464 390 464 c 0
 400.667 464 410.667 463 420 461 c 0
 429.333 459 436.667 456.667 442 454 c 1
 430 394 l 1
 424 396 424 396 414.5 399 c 0
 408.167 401 400.333 402 391 402 c 0
 378.333 402 367.167 398.833 357.5 392.5 c 0
 347.833 386.167 339.667 377.667 333 367 c 0
 326.333 356.333 321.333 344 318 330 c 0
 314.667 316 313 301 313 285 c 0
 313 249 320 221 334 201 c 0
 348 181 367 171 391 171 c 0
 407 171 420 173.667 430 179 c 1
 438 120 l 1
708 192 m 2xee7678
 708 178.667 708.333 165 709 151 c 0
 709.667 137 711 124.333 713 113 c 1
 641 113 l 1xee6e78
 637 148 l 1
 635 148 l 1
 617 120.667 591.333 107 558 107 c 0
 532 107 510.167 116.5 492.5 135.5 c 0
 474.833 154.5 466 179.333 466 210 c 0
 466 232 470.667 251 480 267 c 0
 489.333 283 501.5 296.167 516.5 306.5 c 0
 531.5 316.833 548.667 324.5 568 329.5 c 0
 587.333 334.5 607.333 337 628 337 c 1
 628 346 l 2
 628 364 623.833 378.667 615.5 390 c 0
 607.167 401.333 593 407 573 407 c 0
 559.667 407 547.5 405.333 536.5 402 c 0
 525.5 398.667 515 394 505 388 c 1
 490 440 l 1
 499.333 445.333 512.833 450.833 530.5 456.5 c 0
 548.167 462.167 568 465 590 465 c 0
 613.333 465 632.667 461.5 648 454.5 c 0
 663.333 447.5 675.5 437.833 684.5 425.5 c 0
 693.5 413.167 699.667 398.833 703 382.5 c 0
 706.333 366.167 708 348.667 708 330 c 2
 708 192 l 2xee7678
630 286 m 1xee7678
 622 286 613 285.333 603 284 c 0
 593 282.667 583.5 279.5 574.5 274.5 c 0
 565.5 269.5 558 262.5 552 253.5 c 0
 546 244.5 543 232.333 543 217 c 0
 543 197.667 547.167 184 555.5 176 c 0
 563.833 168 572.667 164 582 164 c 0
 592 164 601.333 167.333 610 174 c 0
 618.667 180.667 624.667 190.667 628 204 c 0
 629.333 210.667 630 216.667 630 222 c 2
 630 286 l 1xee7678
884 545 m 1
 884 459 l 1
 954 459 l 1
 954 404 l 1
 884 404 l 1
 884 225 l 2
 884 203.667 887.667 189.333 895 182 c 0
 902.333 174.667 911 171 921 171 c 0
 925.667 171 929.833 171.167 933.5 171.5 c 0
 937.167 171.833 941.333 172.333 946 173 c 1
 947 114 l 1
 933.667 110.667 916.333 109 895 109 c 0
 881.667 109 869.5 110.667 858.5 114 c 0xde6678
 847.5 117.333 838 122.667 830 130 c 0
 821.333 138.667 814.833 150.167 810.5 164.5 c 0
 806.167 178.833 804 198.667 804 224 c 2
 804 404 l 1
 760 404 l 1
 760 459 l 1
 804 459 l 1
 804 519 l 1
 884 545 l 1
1229 192 m 2xee6778
 1229 178.667 1229.33 165 1230 151 c 0
 1230.67 137 1231.67 124.333 1233 113 c 1
 1162 113 l 1xee66f8
 1157 148 l 1
 1156 148 l 1
 1136.67 120.667 1111 107 1079 107 c 0
 1053 107 1031.17 116.5 1013.5 135.5 c 0
 995.833 154.5 987 179.333 987 210 c 0
 987 232 991.5 251 1000.5 267 c 0
 1009.5 283 1021.5 296.167 1036.5 306.5 c 0
 1051.5 316.833 1068.67 324.5 1088 329.5 c 0
 1107.33 334.5 1127.33 337 1148 337 c 1
 1148 346 l 2
 1148 364 1143.83 378.667 1135.5 390 c 0
 1127.17 401.333 1113.33 407 1094 407 c 0
 1080.67 407 1068.5 405.333 1057.5 402 c 0
 1046.5 398.667 1036 394 1026 388 c 1
 1011 440 l 1
 1020.33 445.333 1033.83 450.833 1051.5 456.5 c 0
 1069.17 462.167 1089 465 1111 465 c 0
 1134.33 465 1153.67 461.5 1169 454.5 c 0
 1184.33 447.5 1196.5 437.833 1205.5 425.5 c 0
 1214.5 413.167 1220.67 398.833 1224 382.5 c 0
 1227.33 366.167 1229 348.667 1229 330 c 2
 1229 192 l 2xee6778
1151 286 m 1xee6778
 1143 286 1133.83 285.333 1123.5 284 c 0
 1113.17 282.667 1103.5 279.5 1094.5 274.5 c 0
 1085.5 269.5 1078 262.5 1072 253.5 c 0
 1066 244.5 1063 232.333 1063 217 c 0
 1063 197.667 1067.33 184 1076 176 c 0
 1084.67 168 1093.67 164 1103 164 c 256
 1112.33 164 1121.33 167.333 1130 174 c 0
 1138.67 180.667 1144.67 190.667 1148 204 c 1
 1150 208.667 1151 214.667 1151 222 c 2
 1151 286 l 1xee6778
1309 605 m 1
 1388 605 l 1
 1388 113 l 1
 1309 113 l 1
 1309 605 l 1
1717 287 m 0
 1717 251.667 1712.83 222.5 1704.5 199.5 c 0
 1696.17 176.5 1685.5 158.167 1672.5 144.5 c 0
 1659.5 130.833 1645.5 121.167 1630.5 115.5 c 0
 1615.5 109.833 1601 107 1587 107 c 0
 1548.33 107 1517 122 1493 152 c 0
 1469 182 1457 226.333 1457 285 c 0
 1457 316.333 1460.67 343.333 1468 366 c 0
 1475.33 388.667 1485.33 407.333 1498 422 c 0
 1510.67 436.667 1524.83 447.5 1540.5 454.5 c 0
 1556.17 461.5 1572.67 465 1590 465 c 0
 1628 465 1658.67 449.667 1682 419 c 0
 1705.33 388.333 1717 344.333 1717 287 c 0
1537 286 m 0
 1537 271.333 1537.67 256.833 1539 242.5 c 0
 1540.33 228.167 1543 215.167 1547 203.5 c 0
 1551 191.833 1556.5 182.5 1563.5 175.5 c 0
 1570.5 168.5 1579.33 165 1590 165 c 0
 1600 165 1608 168.833 1614 176.5 c 0
 1620 184.167 1624.83 194 1628.5 206 c 0
 1632.17 218 1634.67 231 1636 245 c 0
 1637.33 259 1638 272.667 1638 286 c 0
 1638 298.667 1637.33 312 1636 326 c 0
 1634.67 340 1632.17 353 1628.5 365 c 0
 1624.83 377 1619.67 386.833 1613 394.5 c 0
 1606.33 402.167 1598 406 1588 406 c 0
 1577.33 406 1568.67 402.167 1562 394.5 c 0
 1555.33 386.833 1550.17 377 1546.5 365 c 0
 1542.83 353 1540.33 340 1539 326 c 0
 1537.67 312 1537 298.667 1537 286 c 0
2028 154 m 2xde667c
 2028 133.333 2027.17 115.5 2025.5 100.5 c 0
 2023.83 85.5 2021.17 72.1667 2017.5 60.5 c 0
 2013.83 48.8333 2009.5 38.8333 2004.5 30.5 c 0
 1999.5 22.1667 1993.67 14.6667 1987 8 c 0
 1962.33 -16.6667 1926.33 -29 1879 -29 c 0
 1846.33 -29 1817.67 -23.6667 1793 -13 c 1
 1809 46 l 1
 1817 42 1826.83 38.5 1838.5 35.5 c 0
 1850.17 32.5 1863.33 31 1878 31 c 0
 1901.33 31 1919 38.5 1931 53.5 c 0
 1943 68.5 1949 92.3333 1949 125 c 2
 1949 152 l 1xde667c
 1947 152 l 1
 1940.33 140 1931 130.667 1919 124 c 0
 1907 117.333 1894 114 1880 114 c 0
 1861.33 114 1845.17 118.5 1831.5 127.5 c 0
 1817.83 136.5 1806.33 148.833 1797 164.5 c 0
 1787.67 180.167 1780.67 198.167 1776 218.5 c 0
 1771.33 238.833 1769 260.667 1769 284 c 0
 1769 314 1772.33 340.333 1779 363 c 0
 1785.67 385.667 1794.5 404.5 1805.5 419.5 c 0
 1816.5 434.5 1829.17 445.833 1843.5 453.5 c 0
 1857.83 461.167 1872.67 465 1888 465 c 0
 1904.67 465 1918.5 460.833 1929.5 452.5 c 0
 1940.5 444.167 1949 434 1955 422 c 1
 1957 422 l 1
 1961 459 l 1
 2032 459 l 1xde667a
 2030.67 445 2029.67 429.167 2029 411.5 c 0
 2028.33 393.833 2028 373.333 2028 350 c 2
 2028 154 l 2xde667c
1949 336 m 2
 1949 340.667 1948.67 345.167 1948 349.5 c 0
 1947.33 353.833 1946.33 357.667 1945 361 c 0
 1942.33 370.333 1937.83 379.167 1931.5 387.5 c 0
 1925.17 395.833 1916.33 400 1905 400 c 0
 1885.67 400 1871.5 389.333 1862.5 368 c 0
 1853.5 346.667 1849 319.333 1849 286 c 0
 1849 248 1854.17 220 1864.5 202 c 0
 1874.83 184 1887.67 175 1903 175 c 0
 1910.33 175 1917.83 177.333 1925.5 182 c 0
 1933.17 186.667 1939.33 196.333 1944 211 c 0
 1946 215.667 1947.33 220.333 1948 225 c 0
 1948.67 229.667 1949 234.333 1949 239 c 2
 1949 336 l 2
EndSplineSet
Validated: 524289
EndChar

StartChar: slash
Encoding: 47 47 38
Width: 1080
Flags: W
HStem: -156 66<68 230 780 942> 0 212<270 337 678 749> 0 76<337 678> 720 63<68 230 780 942>
VStem: 8 222<-156 -90 720 783> 8 60<-90 720> 270 67<76 209> 678 71<76 212> 780 222<-156 -90 720 783> 942 60<-90 720>
LayerCount: 2
Fore
SplineSet
678 76 m 1xb3
 678 212 l 1
 749 212 l 1
 749 0 l 1
 270 0 l 1xd3
 270 209 l 1
 338 210 l 1
 337 76 l 1
 678 76 l 1xb3
230 -156 m 1x9b
 8 -156 l 1
 8 783 l 1
 230 783 l 1
 230 720 l 1x9b
 68 720 l 1
 68 -90 l 1x97
 230 -90 l 1
 230 -156 l 1x9b
1002 -156 m 1x9380
 780 -156 l 1
 780 -90 l 1x9380
 942 -90 l 1
 942 720 l 1x9340
 780 720 l 1
 780 783 l 1
 1002 783 l 1
 1002 -156 l 1x9380
EndSplineSet
Validated: 1
EndChar

StartChar: zero
Encoding: 48 48 39
Width: 768
Flags: W
HStem: 0 18<25 86.5088 249.899 309 461 522.509 685.899 745> 632 41<218 551> 655 18<27 75.9419 693.53 742>
VStem: 115 104<31.4124 631.873> 551 104<31.4124 631.86>
LayerCount: 2
Fore
SplineSet
654 577 m 2xb8
 655 82 l 2
 655 56.6667 662.5 39.6667 677.5 31 c 0
 692.5 22.3333 715 18 745 18 c 1
 745 0 l 1
 461 0 l 1
 461 18 l 1
 492.333 18 514.333 21.6667 527 29 c 0
 543 38.3333 551 56 551 82 c 2
 551 632 l 1
 218 632 l 1xd8
 219 82 l 2
 219 56.6667 226.5 39.6667 241.5 31 c 0
 256.5 22.3333 279 18 309 18 c 1
 309 0 l 1
 25 0 l 1
 25 18 l 1
 56.3333 18 78.3333 21.6667 91 29 c 0
 107 38.3333 115 56 115 82 c 2
 115 577 l 2
 115 601.667 107.833 620.833 93.5 634.5 c 0
 79.1667 648.167 57 655 27 655 c 1
 27 673 l 1
 742 673 l 1
 742 655 l 1
 720 655 702.333 651.333 689 644 c 0
 665.667 631.333 654 609 654 577 c 2xb8
EndSplineSet
Validated: 524289
EndChar

StartChar: one
Encoding: 49 49 40
Width: 2320
Flags: W
HStem: -156 66<68 230 2064 2226> 137 60<750.301 815.969 1068.1 1119.35 1601.55 1688.95 1815.11 1933.66> 286 51<1796 1890> 306 47<758.894 823> 402 72<1268.09 1328> 416 53<313.501 378.258 471.726 535.923 702.166 813.774 944 986 1061 1127 1605.12 1689.83> 513 83<1376.38 1433.14> 720 63<68 230 2064 2226>
VStem: 8 222<-156 -90 720 783> 8 60<-90 720> 228 74<142 405.502> 228 66<430 469> 385 76<142 392.859> 544 74<142 391.311> 671 72<198.914 289.563> 824 75<197.051 306 353 403.498> 835 68<142 175> 986 75<207.317 416 469 525> 1174 74<142 382.02> 1174 67<419 469> 1367 76<142 469 524.861 584.139> 1500 76<224.969 385.833> 1724 72<214.247 286 337 405.505> 1890 70<337 397.793> 2064 222<-156 -90 720 783> 2226 60<-90 720>
LayerCount: 2
Fore
SplineSet
2286 -156 m 1xc30e4f80
 2064 -156 l 1
 2064 -90 l 1xc30e4f80
 2226 -90 l 1
 2226 720 l 1xc30e4f40
 2064 720 l 1
 2064 783 l 1
 2286 783 l 1
 2286 -156 l 1xc30e4f80
230 -156 m 1xc38e4f
 8 -156 l 1
 8 783 l 1
 230 783 l 1
 230 720 l 1xc38e4f
 68 720 l 1
 68 -90 l 1xc34e4f
 230 -90 l 1
 230 -156 l 1xc38e4f
228 377 m 2xdb2e4f
 228 395.667 227.667 412 227 426 c 0
 226 447 226 447 225 469 c 1
 291 469 l 1
 294 430 l 1xd71e4f
 296 430 l 1
 304 442 314.667 452.333 328 461 c 0
 341.333 469.667 357 474 375 474 c 0
 392.333 474 407.5 470 420.5 462 c 0
 433.5 454 443 442.333 449 427 c 1
 450 427 l 1
 460 442.333 471.667 453.667 485 461 c 0
 499.667 469.667 515.667 474 533 474 c 0
 560.333 474 581.333 464 596 444 c 0
 610.667 424 618 393.667 618 353 c 2
 618 142 l 1
 544 142 l 1
 544 340 l 2
 544 360 541.667 377.333 537 392 c 0
 532.333 406.667 521.333 414 504 414 c 0
 484.667 414 471.333 401.333 464 376 c 0
 462 370 461 361.333 461 350 c 2
 461 142 l 1
 385 142 l 1
 385 351 l 2
 385 365.667 382.833 379.833 378.5 393.5 c 0
 374.167 407.167 363.667 414 347 414 c 0
 338.333 414 330 410.667 322 404 c 0
 314 397.333 308.333 387.333 305 374 c 0
 304.333 370.667 303.667 366.833 303 362.5 c 0
 302.333 358.167 302 353.667 302 349 c 2
 302 142 l 1
 228 142 l 1
 228 377 l 2xdb2e4f
899 216 m 2xdb0f4f
 899 203.333 899.167 190.667 899.5 178 c 0
 899.833 165.333 901 153.333 903 142 c 1
 835 142 l 1xdb0ecf
 831 175 l 1
 830 175 l 1
 812.667 149.667 788.333 137 757 137 c 0
 732.333 137 711.833 145.833 695.5 163.5 c 0
 679.167 181.167 671 204.667 671 234 c 0
 671 254.667 675.333 272.5 684 287.5 c 0
 692.667 302.5 704 314.833 718 324.5 c 0
 732 334.167 748.167 341.333 766.5 346 c 0
 784.833 350.667 803.667 353 823 353 c 1
 823 362 l 2
 823 379.333 819.167 393.333 811.5 404 c 0
 803.833 414.667 790.333 420 771 420 c 0
 759 420 747.667 418.333 737 415 c 0
 726.333 411.667 716.333 407.333 707 402 c 1
 693 451 l 1
 701.667 456.333 714.333 461.5 731 466.5 c 0
 747.667 471.5 766.667 474 788 474 c 0
 810 474 828.167 470.667 842.5 464 c 0
 856.833 457.333 868.167 448.167 876.5 436.5 c 0
 884.833 424.833 890.667 411.167 894 395.5 c 0
 897.333 379.833 899 363.333 899 346 c 2
 899 216 l 2xdb0f4f
824 306 m 1xd30f4f
 816.667 306 808.333 305.167 799 303.5 c 0
 789.667 301.833 780.833 298.833 772.5 294.5 c 0
 764.167 290.167 757.167 283.667 751.5 275 c 0
 745.833 266.333 743 255 743 241 c 0
 743 222.333 746.833 209.333 754.5 202 c 0
 762.167 194.667 770.667 191 780 191 c 256
 789.333 191 798 193.833 806 199.5 c 0
 814 205.167 819.667 214.333 823 227 c 0
 823.667 230.333 824 233.333 824 236 c 0
 824 240 824 240 824 245 c 2
 824 306 l 1xd30f4f
1061 551 m 1
 1061 469 l 1
 1127 469 l 1
 1127 416 l 1
 1061 416 l 1
 1061 247 l 2
 1061 227 1064.33 213.667 1071 207 c 0
 1077.67 200.333 1086 197 1096 197 c 0
 1100 197 1104 197.167 1108 197.5 c 0
 1112 197.833 1115.67 198.333 1119 199 c 1
 1121 144 l 1
 1115 142 1108 140.333 1100 139 c 0
 1092 137.667 1082.33 137 1071 137 c 0
 1059 137 1047.83 138.667 1037.5 142 c 0
 1027.17 145.333 1018.33 150.667 1011 158 c 0
 1002.33 166 996 176.667 992 190 c 0
 988 203.333 986 222 986 246 c 2
 986 416 l 1
 944 416 l 1
 944 469 l 1
 986 469 l 1xc70e4f
 986 525 l 1
 1061 551 l 1
1174 377 m 2xcb0e6f
 1174 392.333 1173.67 408 1173 424 c 0
 1172.33 440 1171.67 455 1171 469 c 1
 1237 469 l 1
 1241 419 l 1xc70e5f
 1243 419 l 1
 1249.67 435.667 1259.33 449 1272 459 c 0
 1284.67 469 1298.33 474 1313 474 c 0
 1317.67 474 1322.67 473.333 1328 472 c 1
 1328 401 l 1
 1325.33 401.667 1320.33 402 1313 402 c 0
 1299.67 402 1287 397 1275 387 c 0
 1263 377 1255.33 363 1252 345 c 1
 1249.33 339 1248 328.667 1248 314 c 2
 1248 142 l 1
 1174 142 l 1
 1174 377 l 2xcb0e6f
1445 554 m 1
 1445.67 542 1442 532.167 1434 524.5 c 0
 1426 516.833 1415.67 513 1403 513 c 0
 1392.33 513 1383.17 516.833 1375.5 524.5 c 0
 1367.83 532.167 1364 542 1364 554 c 0
 1364 566.667 1368 576.833 1376 584.5 c 0
 1384 592.167 1393.67 596 1405 596 c 256
 1416.33 596 1425.83 592.167 1433.5 584.5 c 0
 1441.17 576.833 1445 566.667 1445 554 c 1
1367 142 m 1
 1367 469 l 1
 1443 469 l 1
 1443 142 l 1
 1367 142 l 1
1695 148 m 1
 1689.67 146 1681.83 143.667 1671.5 141 c 0
 1661.17 138.333 1649.67 137 1637 137 c 0
 1595 137 1561.67 151.167 1537 179.5 c 0
 1512.33 207.833 1500 249 1500 303 c 0
 1500 327 1503.5 349.5 1510.5 370.5 c 0
 1517.5 391.5 1527.5 409.5 1540.5 424.5 c 0
 1553.5 439.5 1569 451.333 1587 460 c 0
 1605 468.667 1625.33 473 1648 473 c 0
 1659.33 473 1669.17 472.167 1677.5 470.5 c 0
 1685.83 468.833 1692.67 466.667 1698 464 c 1
 1687 407 l 1
 1683 408.333 1678 409.833 1672 411.5 c 0
 1666 413.167 1658.67 414 1650 414 c 0
 1638 414 1627.33 411 1618 405 c 0
 1608.67 399 1600.83 391 1594.5 381 c 0
 1588.17 371 1583.5 359.333 1580.5 346 c 0
 1577.5 332.667 1576 318.667 1576 304 c 0
 1576 270 1582.67 243.667 1596 225 c 0
 1609.33 206.333 1627.33 197 1650 197 c 0
 1657.33 197 1664 197.5 1670 198.5 c 0
 1676 199.5 1681.67 201.667 1687 205 c 1
 1695 148 l 1
1796 286 m 1xeb0e4f
 1796 268 1798.17 253 1802.5 241 c 0
 1806.83 229 1812.5 219.5 1819.5 212.5 c 0
 1826.5 205.5 1834.67 200.5 1844 197.5 c 0
 1853.33 194.5 1863 193 1873 193 c 0
 1885 193 1896.33 194.167 1907 196.5 c 0
 1917.67 198.833 1926.67 201.667 1934 205 c 1
 1945 154 l 1
 1934.33 148.667 1921.33 144.5 1906 141.5 c 0
 1890.67 138.5 1875 137 1859 137 c 0
 1814.33 137 1780.67 151.5 1758 180.5 c 0
 1735.33 209.5 1724 249.333 1724 300 c 0
 1724 354 1736 396.5 1760 427.5 c 0
 1784 458.5 1814.33 474 1851 474 c 0
 1887 474 1914.17 460 1932.5 432 c 0
 1950.83 404 1960 368 1960 324 c 0
 1960 314.667 1959.67 307.167 1959 301.5 c 0
 1958.33 295.833 1958 290.667 1958 286 c 1
 1796 286 l 1xeb0e4f
1890 337 m 1
 1890.67 363 1886.83 383.5 1878.5 398.5 c 0
 1870.17 413.5 1859.33 421 1846 421 c 0
 1838 421 1831 418.333 1825 413 c 0
 1819 407.667 1814 401 1810 393 c 0
 1806 385 1802.83 376 1800.5 366 c 0
 1798.17 356 1796.67 346.333 1796 337 c 1
 1890 337 l 1
EndSplineSet
Validated: 524321
EndChar

StartChar: two
Encoding: 50 50 41
Width: 592
Flags: W
HStem: 0 94<145 518.976> 627 46<180 478.938>
VStem: 526 19<522 551.244>
LayerCount: 2
Fore
SplineSet
286 327 m 1
 17 673 l 1
 535 673 l 1
 545 522 l 1
 526 522 l 1
 518 552 508.333 574 497 588 c 0
 475.667 614 443.333 627 400 627 c 2
 180 627 l 1
 381 369 l 1
 145 94 l 1
 438 94 l 2
 472.667 94 498.667 100.333 516 113 c 0
 537.333 128.333 555 159 569 205 c 1
 589 205 l 1
 552 0 l 1
 5 0 l 1
 286 327 l 1
EndSplineSet
Validated: 524289
EndChar

StartChar: three
Encoding: 51 51 42
Width: 2398
Flags: W
HStem: -156 66<68 230 2153 2315> 115 61<1035.61 1096.51> 116 67<1667.93 1753.71 1884.56 2006.53> 119.5 72.5<1715.75 1752.88 1943.18 2005.33> 121 369<504 581 656 720 820 869.309 1120 1149.95 1261 1324 1425 1473.72> 284 58<1865 1959> 306 54<1045.66 1107> 432 58<247 292 369 430 747.009 809.919 1352.01 1414.89 1672.99 1751.81> 540 94<513.376 571.139> 585 67<379.504 446.642> 720 63<68 230 2153 2315>
VStem: 8 222<-156 -90 720 783> 8 60<-90 720> 292 77<121 432 490 561.795> 504 77<121 490 553.923 621.107> 655 68<447 490> 656 77<121 418.652> 820 77<121 404.796> 953 73<184.635 286.353> 1110 75<185.084 306 360 416.435> 1120 69<121 159> 1261 77<121 418.652> 1261 67<447 490> 1425 77<121 404.796> 1563 77<214.08 395.88> 1789 75<202.393 284 342 417.428> 1959 71<342 425.539> 2153 222<-156 -90 720 783> 2315 60<-90 720>
LayerCount: 2
Fore
SplineSet
230 -156 m 1x803661e0
 8 -156 l 1
 8 783 l 1
 230 783 l 1
 230 720 l 1x803661e0
 68 720 l 1
 68 -90 l 1x802e61e0
 230 -90 l 1
 230 -156 l 1x803661e0
2375 -156 m 1x802661f0
 2153 -156 l 1
 2153 -90 l 1x802661f0
 2315 -90 l 1
 2315 720 l 1x802661e8
 2153 720 l 1
 2153 783 l 1
 2375 783 l 1
 2375 -156 l 1x802661f0
292 121 m 1x882661e0
 292 432 l 1
 247 432 l 1
 247 490 l 1
 292 490 l 1
 292 508 l 2
 292 529.333 294.333 549.333 299 568 c 0
 303.667 586.667 312.667 603.667 326 619 c 0
 336.667 630.333 348.667 638.667 362 644 c 0
 375.333 649.333 389 652 403 652 c 0
 414.333 652 424.167 651.167 432.5 649.5 c 0
 440.833 647.833 448 646 454 644 c 1
 445 580 l 1
 437 583.333 427 585 415 585 c 0
 397.667 585 385.667 577.5 379 562.5 c 0
 372.333 547.5 369 530 369 510 c 2
 369 490 l 1
 430 490 l 1
 430 432 l 1
 369 432 l 1x816661e0
 369 121 l 1
 292 121 l 1x882661e0
583 587 m 1
 583.667 573.667 580 562.5 572 553.5 c 0
 564 544.5 553.667 540 541 540 c 0
 529.667 540 520.167 544.5 512.5 553.5 c 0
 504.833 562.5 501 573.667 501 587 c 0
 501 601.667 505 613.167 513 621.5 c 0
 521 629.833 530.667 634 542 634 c 0x80a661e0
 554 634 563.833 629.833 571.5 621.5 c 0
 579.167 613.167 583 601.667 583 587 c 1
504 121 m 1x882661e0
 504 490 l 1
 581 490 l 1
 581 121 l 1
 504 121 l 1x882661e0
656 387 m 2x8826e1e0
 656 407.667 655.667 426 655 442 c 0
 654 466 654 466 653 490 c 1x812761e0
 720 490 l 1
 723 447 l 1x882761e0
 725 447 l 1
 733 462.333 744 474.333 758 483 c 0
 772 491.667 788.333 496 807 496 c 0
 837 496 859.5 484.5 874.5 461.5 c 0
 889.5 438.5 897 405.667 897 363 c 2
 897 121 l 1
 820 121 l 1
 820 356 l 2
 820 374 817.333 390.5 812 405.5 c 0
 806.667 420.5 795.667 428 779 428 c 0
 769.667 428 761 424.333 753 417 c 0
 745 409.667 739.333 398.333 736 383 c 0
 734 375 733 363.667 733 349 c 2
 733 121 l 1
 656 121 l 1
 656 387 l 2x8826e1e0
1185 205 m 2xc22671e0
 1185 190.333 1185.33 175.667 1186 161 c 0
 1186.67 146.333 1187.67 133 1189 121 c 1
 1120 121 l 1x882669e0
 1116 159 l 1
 1114 159 l 1
 1105.33 144.333 1094.67 133.333 1082 126 c 0
 1069.33 118.667 1055.67 115 1041 115 c 0
 1015.67 115 994.667 125.167 978 145.5 c 0
 961.333 165.833 953 192 953 224 c 0
 953 248 957.333 268.5 966 285.5 c 0
 974.667 302.5 986.167 316.5 1000.5 327.5 c 0
 1014.83 338.5 1031.33 346.667 1050 352 c 0
 1068.67 357.333 1087.67 360 1107 360 c 1
 1107 370 l 2
 1107 389.333 1103.17 405 1095.5 417 c 0
 1087.83 429 1074.33 435 1055 435 c 0
 1031 435 1009.33 428.333 990 415 c 1
 975 470 l 1
 984.333 475.333 997.333 481 1014 487 c 0
 1030.67 493 1049.67 496 1071 496 c 0
 1093.67 496 1112.33 492.167 1127 484.5 c 0
 1141.67 476.833 1153.33 466.5 1162 453.5 c 0
 1170.67 440.5 1176.67 425.333 1180 408 c 0
 1183.33 390.667 1185 372 1185 352 c 2
 1185 205 l 2xc22671e0
1110 306 m 1xc22671e0
 1102 306 1093.17 305.167 1083.5 303.5 c 0
 1073.83 301.833 1064.83 298.333 1056.5 293 c 0
 1048.17 287.667 1041 280.167 1035 270.5 c 0
 1029 260.833 1026 248 1026 232 c 0
 1026 211.333 1030 196.833 1038 188.5 c 0
 1046 180.167 1054.33 176 1063 176 c 0
 1072.33 176 1081.17 179.333 1089.5 186 c 0
 1097.83 192.667 1103.67 203.333 1107 218 c 0
 1109 224 1110 230.333 1110 237 c 2
 1110 306 l 1xc22671e0
1261 387 m 2x882665e0
 1261 407.667 1260.67 426 1260 442 c 0
 1259 466 1259 466 1258 490 c 1x812665e0
 1324 490 l 1
 1328 447 l 1x882663e0
 1330 447 l 1
 1338 462.333 1349 474.333 1363 483 c 0
 1377 491.667 1393.33 496 1412 496 c 0
 1441.33 496 1463.67 484.5 1479 461.5 c 0
 1494.33 438.5 1502 405.667 1502 363 c 2
 1502 121 l 1
 1425 121 l 1
 1425 356 l 2
 1425 374 1422.33 390.5 1417 405.5 c 0
 1411.67 420.5 1400.67 428 1384 428 c 0
 1374.67 428 1366 424.333 1358 417 c 0
 1350 409.667 1344.33 398.333 1341 383 c 0
 1339.67 379 1338.83 374.167 1338.5 368.5 c 0
 1338.17 362.833 1338 356.333 1338 349 c 2
 1338 121 l 1
 1261 121 l 1
 1261 387 l 2x882665e0
1760 128 m 1
 1754.67 124.667 1746.83 121.833 1736.5 119.5 c 0x902661e0
 1726.17 117.167 1714.67 116 1702 116 c 0
 1660 116 1626.33 132 1601 164 c 0
 1575.67 196 1563 242.333 1563 303 c 0
 1563 330.333 1566.5 355.833 1573.5 379.5 c 0
 1580.5 403.167 1590.5 423.667 1603.5 441 c 0
 1616.5 458.333 1632.33 471.833 1651 481.5 c 0
 1669.67 491.167 1690.67 496 1714 496 c 0
 1724 496 1733.5 494.833 1742.5 492.5 c 0
 1751.5 490.167 1758.67 487.667 1764 485 c 1
 1752 420 l 1
 1748 422 1743 424 1737 426 c 0
 1731 428 1723.67 429 1715 429 c 0
 1703 429 1692.33 425.667 1683 419 c 0
 1673.67 412.333 1665.83 403.333 1659.5 392 c 0
 1653.17 380.667 1648.33 367.333 1645 352 c 0
 1641.67 336.667 1640 320.667 1640 304 c 0
 1640 266 1646.67 236.333 1660 215 c 0
 1673.33 193.667 1691.67 183 1715 183 c 0xa02661e0
 1731 183 1743.33 186 1752 192 c 1x902661e0
 1760 128 l 1
1864 284 m 1xa42661e0
 1864 263.333 1866.17 246.167 1870.5 232.5 c 0
 1874.83 218.833 1880.67 208 1888 200 c 0
 1895.33 192 1903.67 186.5 1913 183.5 c 0
 1922.33 180.5 1932 179 1942 179 c 0
 1967.33 179 1988 183.333 2004 192 c 1x942661e0
 2015 134 l 1
 2004.33 128.667 1991.17 124.333 1975.5 121 c 0x882661e0
 1959.83 117.667 1944 116 1928 116 c 0
 1882.67 116 1848.17 132.167 1824.5 164.5 c 0
 1800.83 196.833 1789 242 1789 300 c 0
 1789 361.333 1801.33 409.333 1826 444 c 0
 1850.67 478.667 1882 496 1920 496 c 0
 1938 496 1954 491.833 1968 483.5 c 0
 1982 475.167 1993.5 463.5 2002.5 448.5 c 0
 2011.5 433.5 2018.33 415.667 2023 395 c 0
 2027.67 374.333 2030 351.667 2030 327 c 0
 2030 316.333 2029.83 307.833 2029.5 301.5 c 0
 2029.17 295.167 2028.67 289.333 2028 284 c 1
 1864 284 l 1xa42661e0
1959 342 m 1
 1959.67 371.333 1955.83 394.333 1947.5 411 c 0
 1939.17 427.667 1928 436 1914 436 c 0
 1906 436 1898.83 433.167 1892.5 427.5 c 0
 1886.17 421.833 1881 414.5 1877 405.5 c 0
 1873 396.5 1870 386.333 1868 375 c 0
 1866 363.667 1865 352.667 1865 342 c 1
 1959 342 l 1
EndSplineSet
Validated: 524321
EndChar

StartChar: four
Encoding: 52 52 43
Width: 1030
Flags: W
HStem: -156 66<68 230 720 882> -1 35<391.344 466.086> 501 126.5<544.609 607.465> 720 63<68 230 720 882>
VStem: 8 222<-156 -90 720 783> 8 60<-90 720> 530 95<514.295 610.593> 720 222<-156 -90 720 783> 882 60<-90 720>
LayerCount: 2
Fore
SplineSet
942 -156 m 1xf3
 720 -156 l 1
 720 -90 l 1xf3
 882 -90 l 1
 882 720 l 1xf280
 720 720 l 1
 720 783 l 1
 942 783 l 1
 942 -156 l 1xf3
230 -156 m 1xfa
 8 -156 l 1
 8 783 l 1
 230 783 l 1
 230 720 l 1xfa
 68 720 l 1
 68 -90 l 1xf6
 230 -90 l 1
 230 -156 l 1xfa
327 176 m 0
 334.333 198 343.833 221.333 355.5 246 c 0
 367.167 270.667 379.5 295 392.5 319 c 0
 405.5 343 418.667 365.833 432 387.5 c 0
 445.333 409.167 457.667 428 469 444 c 0
 474.333 451.333 479.167 455.667 483.5 457 c 0
 487.833 458.333 492.667 456.333 498 451 c 0
 502.667 446.333 506.5 439.667 509.5 431 c 0
 512.5 422.333 514.333 412.167 515 400.5 c 0
 515.667 388.833 514.5 376 511.5 362 c 0
 508.5 348 503.333 333.667 496 319 c 0
 483.333 292.333 468.667 264.833 452 236.5 c 0
 435.333 208.167 420.667 179 408 149 c 0
 393.333 113.667 386.833 85.3333 388.5 64 c 0
 390.167 42.6667 400.667 32.6667 420 34 c 0
 434 34.6667 448.333 39.6667 463 49 c 0
 477.667 58.3333 492 70.6667 506 86 c 0
 520 101.333 533 118.833 545 138.5 c 0
 557 158.167 567.667 178.667 577 200 c 1
 580.333 205.333 583.833 207.833 587.5 207.5 c 0
 591.167 207.167 594.333 204.667 597 200 c 0
 607 181.333 604 156.333 588 125 c 0
 578.667 106.333 567.333 89.1667 554 73.5 c 0
 540.667 57.8333 526 44.5 510 33.5 c 0
 494 22.5 477.167 14 459.5 8 c 0
 441.833 2 424.667 -1 408 -1 c 0
 384.667 -1 365.833 3.5 351.5 12.5 c 0
 337.167 21.5 326.667 34 320 50 c 0
 313.333 66 310.667 84.6667 312 106 c 0
 313.333 127.333 318.333 150.667 327 176 c 0
609 510 m 256
 601 501.333 590 498.333 576 501 c 0
 562 503.667 550.333 512.667 541 528 c 0
 531.667 544.667 528 561.167 530 577.5 c 0
 532 593.833 537.667 607.333 547 618 c 0
 551.667 623.333 557.333 626.5 564 627.5 c 0
 570.667 628.5 577.167 627.667 583.5 625 c 0
 589.833 622.333 596 618 602 612 c 0
 608 606 613 599 617 591 c 0
 625 575.667 627.667 560.5 625 545.5 c 0
 622.333 530.5 617 518.667 609 510 c 256
EndSplineSet
Validated: 524321
EndChar

StartChar: five
Encoding: 53 53 44
Width: 1090
Flags: W
HStem: -141 60<73 940> 457 50<687 903> 736 60<73 628>
VStem: 13 60<-81 736> 627 60<507 712> 940 60<-81 457>
LayerCount: 2
Fore
SplineSet
1000 -141 m 1
 13 -141 l 1
 13 796 l 1
 690 796 l 1
 1000 510 l 1
 1000 -141 l 1
940 -81 m 1
 939 457 l 1
 627 457 l 1
 628 736 l 1
 73 736 l 1
 73 -81 l 1
 940 -81 l 1
627 457 m 1
 628 736 l 1
 627 457 l 1
687 507 m 1
 903 507 l 1
 688 712 l 1
 687 507 l 1
EndSplineSet
Validated: 5
EndChar

StartChar: six
Encoding: 54 54 45
Width: 1405
Flags: W
HStem: -156 66<68 230 1144 1306> 131 58<580.121 702.593 889.982 950.621> 288 54<557 656> 411 76<384.331 447> 422 65<884.973 953.208> 430 57<574.933 641.965> 720 63<68 230 1144 1306>
VStem: 8 222<-156 -90 720 783> 8 60<-90 720> 283 80<135 389.773> 283 71<429 481> 479 77<213.788 288 342 411.187> 656 74<342 406.277> 793 79<-2 165 200.242 412.389> 793 71<439 481> 971 79<208.831 406.29> 1144 222<-156 -90 720 783> 1306 60<-90 720>
LayerCount: 2
Fore
SplineSet
1366 -156 m 1xe21980
 1144 -156 l 1
 1144 -90 l 1xe21980
 1306 -90 l 1
 1306 720 l 1xe21940
 1144 720 l 1
 1144 783 l 1
 1366 783 l 1
 1366 -156 l 1xe21980
230 -156 m 1xe319
 8 -156 l 1
 8 783 l 1
 230 783 l 1
 230 720 l 1xe319
 68 720 l 1
 68 -90 l 1xe299
 230 -90 l 1
 230 -156 l 1xe319
283 384 m 2xf259
 283 400 282.667 416.333 282 433 c 0
 281 458 281 458 280 481 c 1
 350 481 l 1
 354 429 l 1xf239
 357 429 l 1
 364.333 446.333 374.667 460.333 388 471 c 0
 401.333 481.667 415.667 487 431 487 c 0
 434.333 487 437.167 486.833 439.5 486.5 c 0
 441.833 486.167 444.333 486 447 486 c 1
 447 409 l 1
 443.667 410.333 438.333 411 431 411 c 0
 417 411 403.667 405.833 391 395.5 c 0
 378.333 385.167 370 370.333 366 351 c 0
 364 343 363 332 363 318 c 2
 363 135 l 1
 283 135 l 1
 283 384 l 2xf259
556 288 m 1
 556 268.667 558.333 252.5 563 239.5 c 0
 567.667 226.5 573.667 216.333 581 209 c 0
 588.333 201.667 597 196.5 607 193.5 c 0
 617 190.5 627.333 189 638 189 c 0
 651.333 189 663.333 190.333 674 193 c 0
 684.667 195.667 694.333 198.667 703 202 c 1
 714 147 l 1
 702.667 141.667 688.833 137.667 672.5 135 c 0
 656.167 132.333 639.667 131 623 131 c 0
 575.667 131 539.833 146.167 515.5 176.5 c 0
 491.167 206.833 479 249 479 303 c 0
 479 360.333 491.833 405.333 517.5 438 c 0
 543.167 470.667 575.667 487 615 487 c 0xe619
 653 487 681.667 472.167 701 442.5 c 0
 720.333 412.833 730 374.667 730 328 c 0
 730 318 729.667 310 729 304 c 0
 728.333 298 727.667 292.667 727 288 c 1
 556 288 l 1
656 342 m 1
 656 370 651.667 391.667 643 407 c 0
 634.333 422.333 623 430 609 430 c 0xe619
 600.333 430 592.833 427.333 586.5 422 c 0xea19
 580.167 416.667 574.833 409.667 570.5 401 c 0
 566.167 392.333 563 382.833 561 372.5 c 0
 559 362.167 557.667 352 557 342 c 1
 656 342 l 1
710 623 m 1
 633 525 l 1
 583 525 l 1
 636 623 l 1
 710 623 l 1
793 372 m 2xea1d
 793 395.333 792.5 415.667 791.5 433 c 0
 790.5 450.333 790 466.333 790 481 c 1
 859 481 l 1
 864 439 l 1xea1b
 865 439 l 1
 873.667 455 884.667 467 898 475 c 0
 911.333 483 925.667 487 941 487 c 0
 959 487 974.833 482.5 988.5 473.5 c 0
 1002.17 464.5 1013.5 452.167 1022.5 436.5 c 0
 1031.5 420.833 1038.33 402 1043 380 c 0
 1047.67 358 1050 334 1050 308 c 0
 1050 276.667 1046.83 249.667 1040.5 227 c 0
 1034.17 204.333 1025.67 185.833 1015 171.5 c 0
 1004.33 157.167 992 146.5 978 139.5 c 0
 964 132.5 949.667 129 935 129 c 0
 919 129 906 132.833 896 140.5 c 0
 886 148.167 878.333 156.333 873 165 c 1
 872 165 l 1
 872 -2 l 1
 793 -2 l 1
 793 372 l 2xea1d
872 261 m 2xea1d
 872 255.667 872.333 250.5 873 245.5 c 0
 873.667 240.5 874.667 236 876 232 c 0
 880.667 215.333 887 204.5 895 199.5 c 0
 903 194.5 910.333 192 917 192 c 0
 927 192 935.5 195.167 942.5 201.5 c 0
 949.5 207.833 955 216.333 959 227 c 0
 963 237.667 966 250 968 264 c 0
 970 278 971 292.667 971 308 c 0
 971 342 966.667 369.5 958 390.5 c 0
 949.333 411.5 936 422 918 422 c 0
 907.333 422 898 417.5 890 408.5 c 0
 882 399.5 877 389.333 875 378 c 0
 873 370 872 361.667 872 353 c 2
 872 261 l 2xea1d
EndSplineSet
Validated: 524289
EndChar

StartChar: seven
Encoding: 55 55 46
Width: 1912
Flags: W
HStem: -123 66<68 230 1674 1836> 142 57<343.439 396.981 770.864 873.687 1024.76 1099.96 1214.43 1317.66 1459.42 1512.66> 286 50<754 836 1198 1278> 399 70<611.492 664.906> 410 59<338.781 397.678 1023.58 1097.84 1459.3 1517.88> 417 52<768.033 825.885 1210.7 1267.51> 753 63<68 230 1674 1836>
VStem: 8 222<-123 -57 753 816> 8 60<-57 753> 265 65<22 174 206.223 404.87> 265 58<425 463> 412 65<210.306 399.451> 530 66<147 384.113> 530 58<415 463> 690 64<213.612 286 336 405.93> 836 61<336 410.436> 937 65<225.021 389.039> 1133 64<213.612 286 336 405.93> 1278 61<336 410.436> 1379 66<209.487 398.773> 1526 66<206.738 406.145 434 597> 1534 58<147 185> 1674 222<-123 -57 753 816> 1836 60<-57 753>
LayerCount: 2
Fore
SplineSet
1896 -123 m 1xe213f2
 1674 -123 l 1
 1674 -57 l 1xe213f2
 1836 -57 l 1
 1836 753 l 1xe213f1
 1674 753 l 1
 1674 816 l 1
 1896 816 l 1
 1896 -123 l 1xe213f2
230 -123 m 1xe313f0
 8 -123 l 1
 8 816 l 1
 230 816 l 1
 230 753 l 1xe313f0
 68 753 l 1
 68 -57 l 1xe293f0
 230 -57 l 1
 230 -123 l 1xe313f0
265 364 m 2xea53f0
 265 385.333 264.667 403.833 264 419.5 c 0
 263.333 435.167 262.667 449.667 262 463 c 1
 319 463 l 1
 323 425 l 1xea33f0
 324 425 l 1
 331.333 439.667 340.333 450.667 351 458 c 0
 361.667 465.333 373.667 469 387 469 c 0
 401.667 469 414.667 465 426 457 c 0
 437.333 449 446.667 437.667 454 423 c 0
 461.333 408.333 467 391.167 471 371.5 c 0
 475 351.833 477 330 477 306 c 0
 477 277.333 474.333 252.667 469 232 c 0
 463.667 211.333 456.5 194.333 447.5 181 c 0
 438.5 167.667 428.333 157.833 417 151.5 c 0
 405.667 145.167 394 142 382 142 c 0
 368.667 142 358 145.333 350 152 c 0
 342 158.667 335.667 166 331 174 c 1
 330 174 l 1
 330 22 l 1
 265 22 l 1
 265 364 l 2xea53f0
330 262 m 2xea53f0
 330 251.333 331 242.667 333 236 c 0
 337 220.667 342.167 210.667 348.5 206 c 0
 354.833 201.333 360.667 199 366 199 c 0
 374.667 199 381.833 201.833 387.5 207.5 c 0
 393.167 213.167 397.833 221 401.5 231 c 0
 405.167 241 407.833 252.333 409.5 265 c 0
 411.167 277.667 412 291 412 305 c 0
 412 336.333 408.333 361.667 401 381 c 0
 393.667 400.333 382.333 410 367 410 c 0
 358.333 410 350.833 405.833 344.5 397.5 c 0
 338.167 389.167 334 380 332 370 c 0
 330.667 366 330 362 330 358 c 0
 330 352 330 352 330 346 c 2
 330 262 l 2xea53f0
530 374 m 2xf21bf0
 530 389.333 529.667 404.667 529 420 c 0
 528.333 435.333 527.667 449.667 527 463 c 1
 585 463 l 1
 588 415 l 1xf217f0
 590 415 l 1
 596 431.667 604.5 444.833 615.5 454.5 c 0
 626.5 464.167 638.333 469 651 469 c 0
 654.333 469 657 468.833 659 468.5 c 0
 661 468.167 663 467.667 665 467 c 1
 665 398 l 1
 662.333 398.667 657.667 399 651 399 c 0
 639.667 399 628.833 394.333 618.5 385 c 0
 608.167 375.667 601.333 362.333 598 345 c 0
 596.667 341 596 336.333 596 331 c 0
 596 323 596 323 596 314 c 2
 596 147 l 1
 530 147 l 1
 530 374 l 2xf21bf0
754 286 m 1
 754 268.667 755.833 254.167 759.5 242.5 c 0
 763.167 230.833 768.167 221.5 774.5 214.5 c 0
 780.833 207.5 788 202.667 796 200 c 0
 804 197.333 812.333 196 821 196 c 0
 831.667 196 841.5 197.167 850.5 199.5 c 0
 859.5 201.833 867.333 204.667 874 208 c 1
 884 158 l 1
 874.667 153.333 863.333 149.667 850 147 c 0
 836.667 144.333 823 143 809 143 c 0
 770.333 143 740.833 156.833 720.5 184.5 c 0
 700.167 212.167 690 250.667 690 300 c 0
 690 352.667 700.667 394 722 424 c 0
 743.333 454 770 469 802 469 c 256xe613f0
 834 469 857.833 455.333 873.5 428 c 0
 889.167 400.667 897 366 897 324 c 0
 897 314.667 896.667 307.167 896 301.5 c 0
 895.333 295.833 895 290.667 895 286 c 1
 754 286 l 1
836 336 m 1
 836.667 361.333 833.333 381.167 826 395.5 c 0
 818.667 409.833 809 417 797 417 c 0
 789.667 417 783.5 414.5 778.5 409.5 c 0
 773.5 404.5 769.167 398.167 765.5 390.5 c 0
 761.833 382.833 759.167 374.167 757.5 364.5 c 0
 755.833 354.833 754.667 345.333 754 336 c 1
 836 336 l 1
881 593 m 1
 818 503 l 1
 776 503 l 1
 820 593 l 1
 881 593 l 1
1106 154 m 1
 1100.67 150.667 1093.67 148 1085 146 c 0
 1076.33 144 1066.33 143 1055 143 c 0
 1019 143 990.333 156.667 969 184 c 0
 947.667 211.333 937 251 937 303 c 0
 937 327 940 349 946 369 c 0
 952 389 960.5 406.333 971.5 421 c 0
 982.5 435.667 996 447.167 1012 455.5 c 0
 1028 463.833 1046 468 1066 468 c 0
 1074.67 468 1083 467 1091 465 c 0
 1099 463 1105 461 1109 459 c 1
 1098 404 l 1
 1094.67 405.333 1090.5 406.833 1085.5 408.5 c 0
 1080.5 410.167 1074 411 1066 411 c 0
 1044.67 411 1028.67 400.5 1018 379.5 c 0
 1007.33 358.5 1002 333.333 1002 304 c 0
 1002 271.333 1007.83 245.833 1019.5 227.5 c 0
 1031.17 209.167 1046.67 200 1066 200 c 0
 1080 200 1090.67 202.333 1098 207 c 1
 1106 154 l 1
1197 286 m 1
 1197 268.667 1199 254.167 1203 242.5 c 0
 1207 230.833 1212 221.5 1218 214.5 c 0
 1224 207.5 1231 202.667 1239 200 c 0
 1247 197.333 1255.33 196 1264 196 c 0
 1275.33 196 1285.33 197.167 1294 199.5 c 0
 1302.67 201.833 1310.67 204.667 1318 208 c 1
 1326 158 l 1
 1316.67 153.333 1305.33 149.667 1292 147 c 0
 1278.67 144.333 1265 143 1251 143 c 0
 1212.33 143 1183 156.833 1163 184.5 c 0
 1143 212.167 1133 250.667 1133 300 c 0
 1133 352.667 1143.67 394 1165 424 c 0
 1186.33 454 1213 469 1245 469 c 0
 1276.33 469 1299.83 455.333 1315.5 428 c 0
 1331.17 400.667 1339 366 1339 324 c 0
 1339 314.667 1338.83 307.167 1338.5 301.5 c 0
 1338.17 295.833 1338 290.667 1338 286 c 1
 1197 286 l 1
1278 336 m 1
 1278.67 361.333 1275.33 381.167 1268 395.5 c 0
 1260.67 409.833 1251.33 417 1240 417 c 0
 1232.67 417 1226.33 414.5 1221 409.5 c 0
 1215.67 404.5 1211.33 398.167 1208 390.5 c 0
 1204.67 382.833 1202.17 374.167 1200.5 364.5 c 0
 1198.83 354.833 1198 345.333 1198 336 c 1
 1278 336 l 1
1323 593 m 1
 1260 503 l 1
 1218 503 l 1
 1262 593 l 1
 1323 593 l 1
1592 597 m 1xea13f8
 1592 233 l 2xea13f8
 1592 219.667 1592.17 205 1592.5 189 c 0
 1592.83 173 1593.33 159 1594 147 c 1
 1538 147 l 1
 1534 185 l 1xea13f4
 1532 185 l 1
 1526.67 173.667 1518.67 163.667 1508 155 c 0
 1497.33 146.333 1484.67 142 1470 142 c 0
 1440.67 142 1418.17 157 1402.5 187 c 0
 1386.83 217 1379 256 1379 304 c 0
 1379 359.333 1388.67 400.667 1408 428 c 0
 1427.33 455.333 1449.33 469 1474 469 c 0
 1497.33 469 1514.67 457.333 1526 434 c 1
 1526 597 l 1
 1592 597 l 1xea13f8
1526 342 m 1
 1526 362 l 1
 1524.67 374.667 1520.83 385.833 1514.5 395.5 c 0
 1508.17 405.167 1500 410 1490 410 c 0
 1482 410 1475 407.167 1469 401.5 c 0
 1463 395.833 1458.33 388 1455 378 c 0
 1451.67 368 1449.17 356.5 1447.5 343.5 c 0
 1445.83 330.5 1445 317 1445 303 c 0
 1445 271 1448.83 245.667 1456.5 227 c 0
 1464.17 208.333 1475 199 1489 199 c 0
 1495 199 1501.33 201.5 1508 206.5 c 0
 1514.67 211.5 1520 222 1524 238 c 0
 1525.33 241.333 1526 244.667 1526 248 c 0
 1526 253 1526 253 1526 258 c 2
 1526 342 l 1
EndSplineSet
Validated: 524321
EndChar

StartChar: eight
Encoding: 56 56 47
Width: 1748
Flags: W
HStem: -156 66<68 230 1504 1666> 131 62<1079.06 1139.78> 132 63<568.995 688.421 766.283 857.623> 300 58<546 640> 432 80<381.882 440 866.842 915.29> 452 60<562.576 626.424 833.902 918.958 1080.33 1138.11> 720 63<68 230 1504 1666>
VStem: 8 222<-156 -90 720 783> 8 60<-90 720> 283 77<137 409.962> 283 68<450 506> 470 75<218.393 300 358 433.428> 640 71<358 441.449> 756 71<373.406 442.56> 870 70<202.085 279.033> 983 77<210.131 432.456> 1158 76<209.04 432.698> 1295 77<137 662> 1504 222<-156 -90 720 783> 1666 60<-90 720>
LayerCount: 2
Fore
SplineSet
1726 -156 m 1x921fe0
 1504 -156 l 1
 1504 -90 l 1x921fe0
 1666 -90 l 1
 1666 720 l 1x921fd0
 1504 720 l 1
 1504 783 l 1
 1726 783 l 1
 1726 -156 l 1x921fe0
230 -156 m 1x931fc0
 8 -156 l 1
 8 783 l 1
 230 783 l 1
 230 720 l 1x931fc0
 68 720 l 1
 68 -90 l 1x929fc0
 230 -90 l 1
 230 -156 l 1x931fc0
283 403 m 2x9a5fc0
 283 419.667 282.667 437.167 282 455.5 c 0
 281.333 473.833 280.667 490.667 280 506 c 1
 347 506 l 1
 351 450 l 1x9a3fc0
 354 450 l 1
 360.667 469.333 370.5 484.5 383.5 495.5 c 0
 396.5 506.5 410.333 512 425 512 c 0
 432.333 512 437.333 511.667 440 511 c 1
 440 430 l 1
 437.333 431.333 432.333 432 425 432 c 0
 411.667 432 398.833 426.333 386.5 415 c 0
 374.167 403.667 366 388 362 368 c 0
 361.333 363.333 360.833 358 360.5 352 c 0
 360.167 346 360 339.333 360 332 c 2
 360 137 l 1
 283 137 l 1
 283 403 l 2x9a5fc0
545 300 m 1
 545 279.333 547.167 262.167 551.5 248.5 c 0
 555.833 234.833 561.667 224 569 216 c 0
 576.333 208 584.667 202.5 594 199.5 c 0
 603.333 196.5 613 195 623 195 c 0
 647.667 195 668.667 199.333 686 208 c 1
 696 150 l 1
 684.667 144.667 671.333 140.333 656 137 c 0
 640.667 133.667 625 132 609 132 c 0
 563.667 132 529.167 148.167 505.5 180.5 c 0
 481.833 212.833 470 258 470 316 c 0
 470 377.333 482.333 425.333 507 460 c 0
 531.667 494.667 563 512 601 512 c 0xb61fc0
 619 512 635 507.833 649 499.5 c 0
 663 491.167 674.5 479.5 683.5 464.5 c 0
 692.5 449.5 699.333 431.833 704 411.5 c 0
 708.667 391.167 711 368.667 711 344 c 0
 711 332.667 710.833 323.833 710.5 317.5 c 0
 710.167 311.167 709.667 305.333 709 300 c 1
 545 300 l 1
640 358 m 1
 640.667 388 636.667 411.167 628 427.5 c 0
 619.333 443.833 608.333 452 595 452 c 0
 587 452 579.833 449.167 573.5 443.5 c 0
 567.167 437.833 562 430.5 558 421.5 c 0
 554 412.5 551 402.333 549 391 c 0
 547 379.667 546 368.667 546 358 c 1
 640 358 l 1
692 657 m 1
 618 552 l 1
 570 552 l 1
 622 657 l 1
 692 657 l 1
766 213 m 1
 772 208.333 780.5 204 791.5 200 c 0
 802.5 196 814 194 826 194 c 0
 839.333 194 850 197.667 858 205 c 0
 866 212.333 870 222.667 870 236 c 0
 870 247.333 866.833 257.333 860.5 266 c 0
 854.167 274.667 843 284.667 827 296 c 1
 801 312.667 782.667 329.667 772 347 c 0
 761.333 364.333 756 382.667 756 402 c 0
 756 434 766 460.333 786 481 c 0
 806 501.667 831.333 512 862 512 c 0
 876.667 512 889.5 510.333 900.5 507 c 0
 911.5 503.667 921.333 499.333 930 494 c 1
 914 434 l 1
 900 444.667 884 450 866 450 c 0
 852.667 450 842.833 446.167 836.5 438.5 c 0
 830.167 430.833 827 422 827 412 c 256
 827 402 829.833 393.333 835.5 386 c 0
 841.167 378.667 852.667 369.333 870 358 c 0
 893.333 342.667 910.833 326 922.5 308 c 0
 934.167 290 940 269.333 940 246 c 0
 940 208 929 179.5 907 160.5 c 0
 885 141.5 857.667 132 825 132 c 0
 811.667 132 797.833 133.833 783.5 137.5 c 0
 769.167 141.167 758 146.333 750 153 c 1
 766 213 l 1
1234 323 m 0
 1234 285.667 1230 254.667 1222 230 c 0
 1214 205.333 1203.67 185.667 1191 171 c 0
 1178.33 156.333 1164.67 146 1150 140 c 0
 1135.33 134 1121.33 131 1108 131 c 0xd61fc0
 1070.67 131 1040.5 146.833 1017.5 178.5 c 0
 994.5 210.167 983 257.333 983 320 c 0
 983 353.333 986.667 382.167 994 406.5 c 0
 1001.33 430.833 1010.83 450.833 1022.5 466.5 c 0
 1034.17 482.167 1047.67 493.667 1063 501 c 0
 1078.33 508.333 1094 512 1110 512 c 0
 1147.33 512 1177.33 495.667 1200 463 c 0
 1222.67 430.333 1234 383.667 1234 323 c 0
1060 322 m 0
 1060 306.667 1060.67 291.333 1062 276 c 0
 1063.33 260.667 1066 246.833 1070 234.5 c 0
 1074 222.167 1079.17 212.167 1085.5 204.5 c 0
 1091.83 196.833 1100 193 1110 193 c 256
 1120 193 1128 197.167 1134 205.5 c 0
 1140 213.833 1144.83 224.333 1148.5 237 c 0
 1152.17 249.667 1154.67 263.5 1156 278.5 c 0
 1157.33 293.5 1158 308 1158 322 c 0
 1158 335.333 1157.33 349.5 1156 364.5 c 0
 1154.67 379.5 1152.17 393.167 1148.5 405.5 c 0
 1144.83 417.833 1140 428.167 1134 436.5 c 0
 1128 444.833 1120 449 1110 449 c 0
 1099.33 449 1090.83 444.833 1084.5 436.5 c 0
 1078.17 428.167 1073.17 417.833 1069.5 405.5 c 0
 1065.83 393.167 1063.33 379.5 1062 364.5 c 0
 1060.67 349.5 1060 335.333 1060 322 c 0
1295 662 m 1
 1372 662 l 1
 1372 137 l 1
 1295 137 l 1
 1295 662 l 1
EndSplineSet
Validated: 524321
EndChar

StartChar: nine
Encoding: 57 57 48
Width: 1260
Flags: W
HStem: -156 66<68 230 965 1127> 283 60<316 516> 437 52<668 770.222> 540 60<316 531> 720 63<68 230 965 1127>
VStem: 8 222<-156 -90 720 783> 8 60<-90 720> 249 67<0 283 343 540> 796 67<0 437> 811 52<530.581 600> 965 222<-156 -90 720 783> 1127 60<-90 720>
LayerCount: 2
Fore
SplineSet
531 540 m 1xf9
 316 540 l 1
 316 343 l 1
 516 343 l 1
 516 283 l 1
 316 283 l 1
 316 0 l 1
 249 0 l 1
 249 600 l 1
 531 600 l 1
 531 540 l 1xf9
863 0 m 1xf980
 796 0 l 1
 796 437 l 1xf980
 668 437 l 1
 668 489 l 1
 714.667 489 748 495.667 768 509 c 0
 792 525 806.333 555.333 811 600 c 1
 863 600 l 1xf940
 863 0 l 1xf980
230 -156 m 1xfd
 8 -156 l 1
 8 783 l 1
 230 783 l 1
 230 720 l 1xfd
 68 720 l 1
 68 -90 l 1xfb
 230 -90 l 1
 230 -156 l 1xfd
1187 -156 m 1xf920
 965 -156 l 1
 965 -90 l 1xf920
 1127 -90 l 1
 1127 720 l 1xf910
 965 720 l 1
 965 783 l 1
 1187 783 l 1
 1187 -156 l 1xf920
EndSplineSet
Validated: 524289
EndChar

StartChar: colon
Encoding: 58 58 49
Width: 1260
Flags: W
HStem: -156 66<68 230 965 1127> 0 60<698 952> 283 60<316 516> 540 60<316 531 730.29 850.366> 720 63<68 230 965 1127>
VStem: 8 222<-156 -90 720 783> 8 60<-90 720> 249 67<0 283 343 540> 634 66<60 126.18 396 508.312> 877 69<346.894 513.394> 965 222<-156 -90 720 783> 1127 60<-90 720>
LayerCount: 2
Fore
SplineSet
531 540 m 1xf9c0
 316 540 l 1
 316 343 l 1
 516 343 l 1
 516 283 l 1
 316 283 l 1
 316 0 l 1
 249 0 l 1
 249 600 l 1
 531 600 l 1
 531 540 l 1xf9c0
952 0 m 1
 629 0 l 1
 629 46 637 89.3333 653 130 c 1
 657.667 140 664.333 150.333 673 161 c 0
 679 168.333 688 178 700 190 c 2
 815 300 l 1
 839 324 855.333 344.5 864 361.5 c 0
 872.667 378.5 877 402.667 877 434 c 0
 877 467.333 870.667 492.667 858 510 c 0
 843.333 530 820 540 788 540 c 0
 751.333 540 726.333 524 713 492 c 0
 704.333 471.333 700 439.333 700 396 c 1
 634 396 l 1
 634 433 l 2
 634 457 636.833 478.333 642.5 497 c 0
 648.167 515.667 658 534.333 672 553 c 1
 684.667 565.667 698.333 575.667 713 583 c 0
 735.667 594.333 762 600 792 600 c 0
 841.333 600 879.333 585 906 555 c 0
 932.667 525 946 484.333 946 433 c 0
 946 392.333 937.667 357.333 921 328 c 0
 907.667 304.667 883.667 277.333 849 246 c 2
 741 147 l 2
 726.333 134.333 715.5 121.333 708.5 108 c 0
 701.5 94.6667 698 78.6667 698 60 c 1
 952 60 l 1
 952 0 l 1
230 -156 m 1xfdc0
 8 -156 l 1
 8 783 l 1
 230 783 l 1
 230 720 l 1xfdc0
 68 720 l 1
 68 -90 l 1xfbc0
 230 -90 l 1
 230 -156 l 1xfdc0
1187 -156 m 1xf9e0
 965 -156 l 1
 965 -90 l 1xf9e0
 1127 -90 l 1
 1127 720 l 1xf9d0
 965 720 l 1
 965 783 l 1
 1187 783 l 1
 1187 -156 l 1xf9e0
EndSplineSet
Validated: 524289
EndChar

StartChar: semicolon
Encoding: 59 59 50
Width: 1260
Flags: W
HStem: -156 66<68 230 965 1127> -12 60<717.445 850.977> 283 60<316 516 742 842.943> 540 60<316 531 721.685 845.367> 720 63<68 230 965 1127>
VStem: 8 222<-156 -90 720 783> 8 60<-90 720> 249 67<0 283 343 540> 622 65<80.0763 176> 634 63<422 515.044> 866 68<363.997 519.754> 883 67<80.9629 246.223> 965 222<-156 -90 720 783> 1127 60<-90 720>
LayerCount: 2
Fore
SplineSet
531 540 m 1xf9
 316 540 l 1
 316 343 l 1
 516 343 l 1
 516 283 l 1
 316 283 l 1
 316 0 l 1
 249 0 l 1
 249 600 l 1
 531 600 l 1
 531 540 l 1xf9
950 177 m 0xf910
 950 118.333 937 73 911 41 c 0
 882.333 5.66667 839 -12 781 -12 c 0
 724.333 -12 683 5.66667 657 41 c 0
 633.667 72.3333 622 117.333 622 176 c 1
 688 176 l 1
 687.333 171.333 687 164 687 154 c 0
 687 122.667 694 98 708 80 c 0
 724.667 58.6667 750.667 48 786 48 c 0
 818 48 842.167 57.8333 858.5 77.5 c 0
 874.833 97.1667 883 123 883 155 c 0xf990
 883 205.667 872.833 239 852.5 255 c 0
 832.167 271 795.333 279 742 279 c 1
 742 339 l 1
 763 339 l 2
 795 339 818.333 344 833 354 c 0
 855 369.333 866 398.667 866 442 c 0
 866 474.667 860.667 498.333 850 513 c 0
 837.333 531 814.667 540 782 540 c 0
 748 540 724.667 528.333 712 505 c 0
 702 487 697 459.333 697 422 c 1
 634 422 l 1
 634 476 645.333 518.333 668 549 c 0
 693.333 583 732 600 784 600 c 0
 829.333 600 865.667 586.667 893 560 c 0
 920.333 533.333 934 497 934 451 c 0xf960
 934 417 927.667 388.667 915 366 c 0
 902.333 343.333 880.667 326.667 850 316 c 1
 883.333 308 908.333 291.667 925 267 c 0
 941.667 242.333 950 212.333 950 177 c 0xf910
230 -156 m 1xfd
 8 -156 l 1
 8 783 l 1
 230 783 l 1
 230 720 l 1xfd
 68 720 l 1
 68 -90 l 1xfb
 230 -90 l 1
 230 -156 l 1xfd
1187 -156 m 1xf908
 965 -156 l 1
 965 -90 l 1xf908
 1127 -90 l 1
 1127 720 l 1xf904
 965 720 l 1
 965 783 l 1
 1187 783 l 1
 1187 -156 l 1xf908
EndSplineSet
Validated: 524289
EndChar

StartChar: less
Encoding: 60 60 51
Width: 1260
Flags: W
HStem: -156 66<68 230 965 1127> 150 60<661 827 893 947> 283 60<316 516> 540 60<316 531> 720 63<68 230 965 1127>
VStem: 8 222<-156 -90 720 783> 8 60<-90 720> 249 67<0 283 343 540> 827 66<0 150 210 496> 965 222<-156 -90 720 783> 1127 60<-90 720>
LayerCount: 2
Fore
SplineSet
531 540 m 1xf980
 316 540 l 1
 316 343 l 1
 516 343 l 1
 516 283 l 1
 316 283 l 1
 316 0 l 1
 249 0 l 1
 249 600 l 1
 531 600 l 1
 531 540 l 1xf980
947 150 m 1
 893 150 l 1
 893 0 l 1
 827 0 l 1
 827 150 l 1
 608 150 l 1
 608 211 l 1
 832 600 l 1
 893 600 l 1
 893 210 l 1
 947 210 l 1
 947 150 l 1
827 210 m 1
 827 496 l 1
 661 210 l 1
 827 210 l 1
230 -156 m 1xfd80
 8 -156 l 1
 8 783 l 1
 230 783 l 1
 230 720 l 1xfd80
 68 720 l 1
 68 -90 l 1xfb80
 230 -90 l 1
 230 -156 l 1xfd80
1187 -156 m 1xf9c0
 965 -156 l 1
 965 -90 l 1xf9c0
 1127 -90 l 1
 1127 720 l 1xf9a0
 965 720 l 1
 965 783 l 1
 1187 783 l 1
 1187 -156 l 1xf9c0
EndSplineSet
Validated: 1
EndChar

StartChar: equal
Encoding: 61 61 52
Width: 1260
Flags: W
HStem: -156 66<68 230 965 1127> -12 60<714.761 833.483> 283 60<316 516> 334 60<717.164 836.388> 528 60<719 920> 540 60<316 531> 720 63<68 230 965 1127>
VStem: 8 222<-156 -90 720 783> 8 60<-90 720> 249 67<0 283 343 540> 619 69<75.7102 157> 873 69<92.1712 295.548> 965 222<-156 -90 720 783> 1127 60<-90 720>
LayerCount: 2
Fore
SplineSet
531 540 m 1xe670
 316 540 l 1
 316 343 l 1
 516 343 l 1
 516 283 l 1
 316 283 l 1
 316 0 l 1
 249 0 l 1
 249 600 l 1
 531 600 l 1
 531 540 l 1xe670
942 203 m 0
 942 142.333 930.333 93.3333 907 56 c 0
 879 10.6667 836.333 -12 779 -12 c 0
 725.667 -12 685.667 2.66667 659 32 c 0
 632.333 61.3333 619 103 619 157 c 1
 688 157 l 1
 688 123 694.833 96.3333 708.5 77 c 0
 722.167 57.6667 745 48 777 48 c 0
 809.667 48 834.333 62.6667 851 92 c 0
 865.667 118 873 151.667 873 193 c 0
 873 235 867 267 855 289 c 0
 839 319 811.667 334 773 334 c 0
 733 334 705 315.667 689 279 c 1
 630 279 l 1
 665 588 l 1
 920 588 l 1
 920 528 l 1
 719 528 l 1
 692 350 l 1
 706.667 365.333 721.333 376.5 736 383.5 c 0
 750.667 390.5 768.333 394 789 394 c 0xda70
 841 394 880.333 374.667 907 336 c 0
 930.333 302 942 257.667 942 203 c 0
230 -156 m 1xc370
 8 -156 l 1
 8 783 l 1
 230 783 l 1
 230 720 l 1xc370
 68 720 l 1
 68 -90 l 1xc2f0
 230 -90 l 1
 230 -156 l 1xc370
1187 -156 m 1xc278
 965 -156 l 1
 965 -90 l 1xc278
 1127 -90 l 1
 1127 720 l 1xc274
 965 720 l 1
 965 783 l 1
 1187 783 l 1
 1187 -156 l 1xc278
EndSplineSet
Validated: 524289
EndChar

StartChar: greater
Encoding: 62 62 53
Width: 1260
Flags: W
HStem: -156 66<68 230 955 1117> 0 60<307 552> 437 52<633 735.222> 720 63<68 230 955 1117>
VStem: 8 222<-156 -90 720 783> 8 60<-90 720> 240 67<60 600> 761 67<0 437> 776 52<530.581 600> 955 223<-156 -90 720 783> 1117 61<-90 720>
LayerCount: 2
Fore
SplineSet
230 -156 m 1xfa
 8 -156 l 1
 8 783 l 1
 230 783 l 1
 230 720 l 1xfa
 68 720 l 1
 68 -90 l 1xf6
 230 -90 l 1
 230 -156 l 1xfa
1178 -156 m 1xf240
 955 -156 l 1
 955 -90 l 1xf240
 1117 -90 l 1
 1117 720 l 1xf220
 955 720 l 1
 955 783 l 1
 1180 783 l 1
 1178 -156 l 1xf240
828 0 m 1xf3
 761 0 l 1
 761 437 l 1xf3
 633 437 l 1
 633 489 l 1
 679.667 489 713 495.667 733 509 c 0
 757 525 771.333 555.333 776 600 c 1
 828 600 l 1xf280
 828 0 l 1xf3
552 0 m 1
 240 0 l 1
 240 600 l 1
 307 600 l 1
 307 60 l 1
 552 60 l 1
 552 0 l 1
EndSplineSet
Validated: 524289
EndChar

StartChar: question
Encoding: 63 63 54
Width: 1260
Flags: W
HStem: -156 66<68 230 955 1117> 0 60<297 542 718 972> 540 60<750.29 870.366> 720 63<68 230 955 1117>
VStem: 8 222<-156 -90 720 783> 8 60<-90 720> 230 67<60 600> 654 66<60 126.18 396 508.312> 897 69<346.894 513.394> 955 223<-156 -90 720 783> 1117 61<-90 720>
LayerCount: 2
Fore
SplineSet
542 0 m 1xf3
 230 0 l 1
 230 600 l 1
 297 600 l 1
 297 60 l 1
 542 60 l 1
 542 0 l 1xf3
972 0 m 1
 649 0 l 1
 649 46 657 89.3333 673 130 c 1
 677.667 140 684.333 150.333 693 161 c 0
 699 168.333 708 178 720 190 c 2
 835 300 l 1
 859 324 875.333 344.5 884 361.5 c 0
 892.667 378.5 897 402.667 897 434 c 0
 897 467.333 890.667 492.667 878 510 c 0
 863.333 530 840 540 808 540 c 0
 771.333 540 746.333 524 733 492 c 0
 724.333 471.333 720 439.333 720 396 c 1
 654 396 l 1
 654 433 l 2
 654 457 656.833 478.333 662.5 497 c 0
 668.167 515.667 678 534.333 692 553 c 1
 704.667 565.667 718.333 575.667 733 583 c 0
 755.667 594.333 782 600 812 600 c 0
 861.333 600 899.333 585 926 555 c 0
 952.667 525 966 484.333 966 433 c 0xf380
 966 392.333 957.667 357.333 941 328 c 0
 927.667 304.667 903.667 277.333 869 246 c 2
 761 147 l 2
 746.333 134.333 735.5 121.333 728.5 108 c 0
 721.5 94.6667 718 78.6667 718 60 c 1
 972 60 l 1
 972 0 l 1
230 -156 m 1xfb
 8 -156 l 1
 8 783 l 1
 230 783 l 1
 230 720 l 1xfb
 68 720 l 1
 68 -90 l 1xf7
 230 -90 l 1
 230 -156 l 1xfb
1178 -156 m 1xf340
 955 -156 l 1
 955 -90 l 1xf340
 1117 -90 l 1
 1117 720 l 1xf320
 955 720 l 1
 955 783 l 1
 1180 783 l 1
 1178 -156 l 1xf340
EndSplineSet
Validated: 524289
EndChar

StartChar: at
Encoding: 64 64 55
Width: 1260
Flags: W
HStem: -156 66<68 230 955 1117> -12 60<747.445 880.211> 0 60<297 542> 279 60<772 870.553> 540 60<751.685 875.367> 720 63<68 230 955 1117>
VStem: 8 222<-156 -90 720 783> 8 60<-90 720> 230 67<60 600> 652 65<80.0763 176> 664 63<422 515.044> 896 68<363.997 519.754> 913 77<81.1156 245.893> 955 223<-156 -90 720 783> 1117 61<-90 720>
LayerCount: 2
Fore
SplineSet
230 -156 m 1x9e80
 8 -156 l 1
 8 783 l 1
 230 783 l 1
 230 720 l 1x9e80
 68 720 l 1
 68 -90 l 1x9d80
 230 -90 l 1
 230 -156 l 1x9e80
542 0 m 1xbc80
 230 0 l 1
 230 600 l 1
 297 600 l 1
 297 60 l 1
 542 60 l 1
 542 0 l 1xbc80
990 177 m 0xdc88
 990 119.667 974.667 73.8333 944 39.5 c 0
 913.333 5.16667 869 -12 811 -12 c 0
 754.333 -12 713 5.66667 687 41 c 0
 663.667 72.3333 652 117.333 652 176 c 1
 718 176 l 1
 717.333 171.333 717 164 717 154 c 0
 717 122.667 724 98 738 80 c 0
 754.667 58.6667 780.667 48 816 48 c 0
 848 48 872.167 57.8333 888.5 77.5 c 0
 904.833 97.1667 913 123 913 155 c 0xdcc8
 913 205.667 902.833 239 882.5 255 c 0
 862.167 271 825.333 279 772 279 c 1
 772 339 l 1
 793 339 l 2
 825 339 848.333 344 863 354 c 0
 885 369.333 896 398.667 896 442 c 0
 896 474.667 890.667 498.333 880 513 c 0
 867.333 531 844.667 540 812 540 c 0
 778 540 754.667 528.333 742 505 c 0
 732 487 727 459.333 727 422 c 1
 664 422 l 1
 664 476 675.333 518.333 698 549 c 0
 723.333 583 762 600 814 600 c 0
 859.333 600 895.667 586.667 923 560 c 0
 950.333 533.333 964 497 964 451 c 0xdcb0
 964 417 957.667 388.667 945 366 c 0
 932.333 343.333 910.667 326.667 880 316 c 1
 914 308 940.833 291.5 960.5 266.5 c 0
 980.167 241.5 990 211.667 990 177 c 0xdc88
1178 -156 m 1x9c84
 955 -156 l 1
 955 -90 l 1x9c84
 1117 -90 l 1
 1117 720 l 1x9c82
 955 720 l 1
 955 783 l 1
 1180 783 l 1
 1178 -156 l 1x9c84
EndSplineSet
Validated: 524289
EndChar

StartChar: A
Encoding: 65 65 56
Width: 1260
Flags: W
HStem: -156 66<68 230 955 1117> 0 60<297 542> 150 60<665 831 897 951> 720 63<68 230 955 1117>
VStem: 8 222<-156 -90 720 783> 8 60<-90 720> 230 67<60 600> 831 66<0 150 210 496> 955 223<-156 -90 720 783> 1117 61<-90 720>
LayerCount: 2
Fore
SplineSet
230 -156 m 1xfb
 8 -156 l 1
 8 783 l 1
 230 783 l 1
 230 720 l 1xfb
 68 720 l 1
 68 -90 l 1xf7
 230 -90 l 1
 230 -156 l 1xfb
542 0 m 1
 230 0 l 1
 230 600 l 1
 297 600 l 1
 297 60 l 1
 542 60 l 1
 542 0 l 1
951 150 m 1
 897 150 l 1
 897 0 l 1
 831 0 l 1
 831 150 l 1
 612 150 l 1
 612 211 l 1
 836 600 l 1
 897 600 l 1
 897 210 l 1
 951 210 l 1
 951 150 l 1
831 210 m 1
 831 496 l 1
 665 210 l 1
 831 210 l 1
1178 -156 m 1xf380
 955 -156 l 1
 955 -90 l 1xf380
 1117 -90 l 1
 1117 720 l 1xf340
 955 720 l 1
 955 783 l 1
 1180 783 l 1
 1178 -156 l 1xf380
EndSplineSet
Validated: 1
EndChar

StartChar: B
Encoding: 66 66 57
Width: 1260
Flags: W
HStem: -156 66<68 230 955 1117> -12 60<739.761 858.483> 0 60<297 542> 334 60<742.164 861.388> 528 60<744 945> 720 63<68 230 955 1117>
VStem: 8 222<-156 -90 720 783> 8 60<-90 720> 230 67<60 600> 644 69<75.7102 157> 898 69<92.1712 295.548> 955 223<-156 -90 720 783> 1117 61<-90 720>
LayerCount: 2
Fore
SplineSet
230 -156 m 1x9ec0
 8 -156 l 1
 8 783 l 1
 230 783 l 1
 230 720 l 1x9ec0
 68 720 l 1
 68 -90 l 1x9dc0
 230 -90 l 1
 230 -156 l 1x9ec0
542 0 m 1xbcc0
 230 0 l 1
 230 600 l 1
 297 600 l 1
 297 60 l 1
 542 60 l 1
 542 0 l 1xbcc0
967 203 m 0xdce0
 967 142.333 955.333 93.3333 932 56 c 0
 904 10.6667 861.333 -12 804 -12 c 0
 750.667 -12 710.667 2.66667 684 32 c 0
 657.333 61.3333 644 103 644 157 c 1
 713 157 l 1
 713 123 719.833 96.3333 733.5 77 c 0
 747.167 57.6667 770 48 802 48 c 0
 834.667 48 859.333 62.6667 876 92 c 0
 890.667 118 898 151.667 898 193 c 0
 898 235 892 267 880 289 c 0
 864 319 836.667 334 798 334 c 0
 758 334 730 315.667 714 279 c 1
 655 279 l 1
 690 588 l 1
 945 588 l 1
 945 528 l 1
 744 528 l 1
 717 350 l 1
 731.667 365.333 746.333 376.5 761 383.5 c 0
 775.667 390.5 793.333 394 814 394 c 0
 866 394 905.333 374.667 932 336 c 0
 955.333 302 967 257.667 967 203 c 0xdce0
1178 -156 m 1x9cd0
 955 -156 l 1
 955 -90 l 1x9cd0
 1117 -90 l 1
 1117 720 l 1x9cc8
 955 720 l 1
 955 783 l 1
 1180 783 l 1
 1178 -156 l 1x9cd0
EndSplineSet
Validated: 524289
EndChar

StartChar: C
Encoding: 67 67 58
Width: 1260
Flags: W
HStem: -156 66<68 230 955 1117> -12 60<735.387 851.643> 0 60<297 542> 321 60<733.355 854.602> 540 60<740.412 855.387> 720 63<68 230 955 1117>
VStem: 8 222<-156 -90 720 783> 8 60<-90 720> 230 67<60 600> 624 74<92.4371 381.967> 624 66<307 471.438> 874 68<457 518.854> 888 68<89.2635 285.301> 955 223<-156 -90 720 783> 1117 61<-90 720>
LayerCount: 2
Fore
SplineSet
230 -156 m 1x9e80
 8 -156 l 1
 8 783 l 1
 230 783 l 1
 230 720 l 1x9e80
 68 720 l 1
 68 -90 l 1x9d80
 230 -90 l 1
 230 -156 l 1x9e80
542 0 m 1xbc80
 230 0 l 1
 230 600 l 1
 297 600 l 1
 297 60 l 1
 542 60 l 1
 542 0 l 1xbc80
956 198 m 0xdca8
 956 134.667 941.167 83.8333 911.5 45.5 c 0
 881.833 7.16667 843.667 -12 797 -12 c 0
 725.667 -12 676.667 19 650 81 c 0
 632.667 121.667 624 183.333 624 266 c 0
 624 328 626.333 375.333 631 408 c 0
 639 465.333 654.667 509.667 678 541 c 0
 707.333 580.333 748.667 600 802 600 c 0
 846 600 880.333 587 905 561 c 0
 929.667 535 942 500.333 942 457 c 1
 874 457 l 1xdcd0
 874 485 867.833 505.833 855.5 519.5 c 0
 843.167 533.167 822.667 540 794 540 c 0
 750 540 720 509.333 704 448 c 0
 694.667 412.667 690 365.667 690 307 c 1
 702 331.667 718 350.167 738 362.5 c 0
 758 374.833 779.333 381 802 381 c 0
 852.667 381 891.667 362.667 919 326 c 0
 943.667 293.333 956 250.667 956 198 c 0xdca8
888 194 m 0xdcc8
 888 232 881.667 261.333 869 282 c 0
 853 308 827 321 791 321 c 0
 755.667 321 730.333 307.667 715 281 c 0
 703.667 261 698 234 698 200 c 0
 698 144.667 706.333 105.5 723 82.5 c 0
 739.667 59.5 764 48 796 48 c 0
 830.667 48 855.667 64.6667 871 98 c 0
 882.333 122.667 888 154.667 888 194 c 0xdcc8
1178 -156 m 1x9c84
 955 -156 l 1
 955 -90 l 1x9c84
 1117 -90 l 1
 1117 720 l 1x9c82
 955 720 l 1
 955 783 l 1
 1180 783 l 1
 1178 -156 l 1x9c84
EndSplineSet
Validated: 524289
EndChar

StartChar: D
Encoding: 68 68 59
Width: 960
Flags: W
HStem: -173 59<77.4575 804.047> 255 56<284 615> 700 59<74.9551 804.874>
VStem: 2 60<-98.5173 686.926> 820 60<-98.7991 684.316>
LayerCount: 2
Fore
SplineSet
880 -64 m 2
 880 -90.6667 878.333 -109 875 -119 c 0
 871.667 -129 865.167 -139.167 855.5 -149.5 c 0
 845.833 -159.833 835.167 -166.333 823.5 -169 c 0
 811.833 -171.667 794.333 -173 771 -173 c 2
 111 -173 l 2
 89.6667 -173 73 -171.667 61 -169 c 0
 49 -166.333 37.5 -159.667 26.5 -149 c 0
 15.5 -138.333 8.66667 -127 6 -115 c 0
 3.33333 -103 2 -86 2 -64 c 2
 2 650 l 2
 2 671.333 3.33333 688.167 6 700.5 c 0
 8.66667 712.833 15.5 724.333 26.5 735 c 0
 37.5 745.667 49 752.333 61 755 c 0
 73 757.667 89.6667 759 111 759 c 2
 771 759 l 2
 797.667 759 816 757.333 826 754 c 0
 836 750.667 846.167 744.167 856.5 734.5 c 0
 866.833 724.833 873.333 714.167 876 702.5 c 0
 878.667 690.833 880 673.333 880 650 c 2
 880 -64 l 2
820 -15 m 1
 820 606 l 1
 820 628 l 2
 820 639.333 818.833 649.333 816.5 658 c 0
 814.167 666.667 809 674.667 801 682 c 0
 793 689.333 783.833 694.167 773.5 696.5 c 0
 763.167 698.833 751 700 737 700 c 2
 726 700 l 1
 156 700 l 1
 134 700 l 2
 120 700 109.5 699.167 102.5 697.5 c 0
 95.5 695.833 88.1667 691.333 80.5 684 c 0
 72.8333 676.667 67.8333 668.667 65.5 660 c 0
 63.1667 651.333 62 640.333 62 627 c 2
 62 606 l 1
 62 -15 l 1
 62 -36 l 2
 62 -48.6667 63.1667 -59.8333 65.5 -69.5 c 0
 67.8333 -79.1667 73 -88 81 -96 c 0
 89 -104 98.5 -109 109.5 -111 c 0
 120.5 -113 136 -114 156 -114 c 2
 726 -114 l 1
 738 -114 l 2
 758 -114 772.167 -112.5 780.5 -109.5 c 0
 788.833 -106.5 796.333 -101.333 803 -94 c 0
 809.667 -86.6667 814.167 -78.1667 816.5 -68.5 c 0
 818.833 -58.8333 820 -47.6667 820 -35 c 2
 820 -15 l 1
615 255 m 1
 284 255 l 1
 284 311 l 1
 615 311 l 1
 615 255 l 1
EndSplineSet
Validated: 524289
EndChar

StartChar: E
Encoding: 69 69 60
Width: 1055
Flags: W
HStem: -173 59<77.4575 903.047> 255 66<396 590> 700 59<74.9551 903.874>
VStem: 2 60<-98.5173 686.926> 173 53<144.201 440.291> 752 53<140.862 436.799> 919 60<-98.7991 684.316>
LayerCount: 2
Fore
SplineSet
979 -64 m 2
 979 -90.6667 977.333 -109 974 -119 c 0
 970.667 -129 964.167 -139.167 954.5 -149.5 c 0
 944.833 -159.833 934.167 -166.333 922.5 -169 c 0
 910.833 -171.667 893.333 -173 870 -173 c 2
 111 -173 l 2
 89.6667 -173 73 -171.667 61 -169 c 0
 49 -166.333 37.5 -159.667 26.5 -149 c 0
 15.5 -138.333 8.66667 -127 6 -115 c 0
 3.33333 -103 2 -86 2 -64 c 2
 2 650 l 2
 2 671.333 3.33333 688.167 6 700.5 c 0
 8.66667 712.833 15.5 724.333 26.5 735 c 0
 37.5 745.667 49 752.333 61 755 c 0
 73 757.667 89.6667 759 111 759 c 2
 870 759 l 2
 896.667 759 915 757.333 925 754 c 0
 935 750.667 945.167 744.167 955.5 734.5 c 0
 965.833 724.833 972.333 714.167 975 702.5 c 0
 977.667 690.833 979 673.333 979 650 c 2
 979 -64 l 2
919 -15 m 1
 919 606 l 1
 919 628 l 2
 919 639.333 917.833 649.333 915.5 658 c 0
 913.167 666.667 908 674.667 900 682 c 0
 892 689.333 882.833 694.167 872.5 696.5 c 0
 862.167 698.833 850 700 836 700 c 2
 825 700 l 1
 156 700 l 1
 134 700 l 2
 120 700 109.5 699.167 102.5 697.5 c 0
 95.5 695.833 88.1667 691.333 80.5 684 c 0
 72.8333 676.667 67.8333 668.667 65.5 660 c 0
 63.1667 651.333 62 640.333 62 627 c 2
 62 606 l 1
 62 -15 l 1
 62 -36 l 2
 62 -48.6667 63.1667 -59.8333 65.5 -69.5 c 0
 67.8333 -79.1667 73 -88 81 -96 c 0
 89 -104 98.5 -109 109.5 -111 c 0
 120.5 -113 136 -114 156 -114 c 2
 825 -114 l 1
 837 -114 l 2
 857 -114 871.167 -112.5 879.5 -109.5 c 0
 887.833 -106.5 895.333 -101.333 902 -94 c 0
 908.667 -86.6667 913.167 -78.1667 915.5 -68.5 c 0
 917.833 -58.8333 919 -47.6667 919 -35 c 2
 919 -15 l 1
805 297 m 0
 805 235.667 797.5 182.667 782.5 138 c 0
 767.5 93.3333 742 41.6667 706 -17 c 1
 673 -17 l 1
 701 43 717.667 81 723 97 c 0
 742.333 155 752 219 752 289 c 0
 752 348.333 745.667 402.5 733 451.5 c 0
 720.333 500.5 699 550.333 669 601 c 1
 706 601 l 1
 737.333 550.333 761 502 777 456 c 0
 795.667 402.667 805 349.667 805 297 c 0
590 255 m 1
 396 255 l 1
 396 321 l 1
 590 321 l 1
 590 255 l 1
309 -20 m 1
 272 -20 l 1
 240.667 30.6667 217 79 201 125 c 0
 182.333 178.333 173 231.333 173 284 c 0
 173 345.333 181 400 197 448 c 0
 211 489.333 236 539.333 272 598 c 1
 305 598 l 1
 277 538 260.333 500 255 484 c 0
 235.667 426 226 362 226 292 c 0
 226 232.667 232.333 178.5 245 129.5 c 0
 257.667 80.5 279 30.6667 309 -20 c 1
EndSplineSet
Validated: 524289
EndChar

StartChar: F
Encoding: 70 70 61
Width: 1090
Flags: W
HStem: -141 60<73 940> 254 60<265 440.374> 457 50<687 903> 540 60<265 440.844> 736 60<73 628>
VStem: 13 60<-81 736> 199 66<0 254 314 540> 476 69<348.75 506.107> 627 60<507 712> 940 60<-81 457>
LayerCount: 2
Fore
SplineSet
1000 -141 m 1
 13 -141 l 1
 13 796 l 1
 690 796 l 1
 1000 510 l 1
 1000 -141 l 1
940 -81 m 1
 939 457 l 1
 627 457 l 1
 628 736 l 1
 73 736 l 1
 73 -81 l 1
 940 -81 l 1
627 457 m 1
 628 736 l 1
 627 457 l 1
687 507 m 1
 903 507 l 1
 688 712 l 1
 687 507 l 1
545 433 m 0
 545 396.333 539 365 527 339 c 0
 513 308.333 490.667 286 460 272 c 0
 442 264 421 259 397 257 c 0
 373 255 342.333 254 305 254 c 2
 265 254 l 1
 265 0 l 1
 199 0 l 1
 199 600 l 1
 356 600 l 2
 384.667 600 411.167 597.333 435.5 592 c 0
 459.833 586.667 480.333 576.167 497 560.5 c 0
 513.667 544.833 525.833 526.333 533.5 505 c 0
 541.167 483.667 545 459.667 545 433 c 0
476 431 m 0
 476 475.667 462.667 506 436 522 c 0
 416 534 382 540 334 540 c 2
 265 540 l 1
 265 314 l 1
 330 314 l 2
 382 314 417.667 320.333 437 333 c 0
 463 349.667 476 382.333 476 431 c 0
EndSplineSet
Validated: 524293
EndChar

